<svg width="831" height="694" viewBox="0 0 831 694" fill="none" xmlns="http://www.w3.org/2000/svg">
<path d="M67.5884 38.3647C69.8943 38.3647 71.7636 36.4954 71.7636 34.1896C71.7636 31.8837 69.8943 30.0144 67.5884 30.0144C65.2825 30.0144 63.4133 31.8837 63.4133 34.1896C63.4133 36.4954 65.2825 38.3647 67.5884 38.3647Z" fill="#7FD1C8"/>
<path d="M602.124 38.3647C604.43 38.3647 606.299 36.4954 606.299 34.1896C606.299 31.8837 604.43 30.0144 602.124 30.0144C599.818 30.0144 597.949 31.8837 597.949 34.1896C597.949 36.4954 599.818 38.3647 602.124 38.3647Z" fill="#7FD1C8"/>
<path d="M334.857 38.3784C337.17 38.3784 339.046 36.5029 339.046 34.1892C339.046 31.8756 337.17 30 334.857 30C332.543 30 330.667 31.8756 330.667 34.1892C330.667 36.5029 332.543 38.3784 334.857 38.3784Z" fill="#7FD1C8"/>
<path d="M201.224 38.3647C203.529 38.3647 205.399 36.4954 205.399 34.1896C205.399 31.8837 203.529 30.0144 201.224 30.0144C198.918 30.0144 197.048 31.8837 197.048 34.1896C197.048 36.4954 198.918 38.3647 201.224 38.3647Z" fill="#7FD1C8"/>
<path d="M268.039 38.3647C270.345 38.3647 272.215 36.4954 272.215 34.1896C272.215 31.8837 270.345 30.0144 268.039 30.0144C265.734 30.0144 263.864 31.8837 263.864 34.1896C263.864 36.4954 265.734 38.3647 268.039 38.3647Z" fill="#7FD1C8"/>
<path d="M134.406 38.3647C136.712 38.3647 138.581 36.4954 138.581 34.1896C138.581 31.8837 136.712 30.0144 134.406 30.0144C132.1 30.0144 130.231 31.8837 130.231 34.1896C130.231 36.4954 132.1 38.3647 134.406 38.3647Z" fill="#7FD1C8"/>
<path d="M535.306 38.3647C537.612 38.3647 539.481 36.4954 539.481 34.1896C539.481 31.8837 537.612 30.0144 535.306 30.0144C533 30.0144 531.131 31.8837 531.131 34.1896C531.131 36.4954 533 38.3647 535.306 38.3647Z" fill="#7FD1C8"/>
<path d="M401.674 38.3784C403.988 38.3784 405.864 36.5029 405.864 34.1892C405.864 31.8756 403.988 30 401.674 30C399.361 30 397.485 31.8756 397.485 34.1892C397.485 36.5029 399.361 38.3784 401.674 38.3784Z" fill="#7FD1C8"/>
<path d="M468.489 38.3647C470.794 38.3647 472.664 36.4954 472.664 34.1896C472.664 31.8837 470.794 30.0144 468.489 30.0144C466.183 30.0144 464.313 31.8837 464.313 34.1896C464.313 36.4954 466.183 38.3647 468.489 38.3647Z" fill="#7FD1C8"/>
<path d="M34.1895 38.3647C36.4954 38.3647 38.3647 36.4954 38.3647 34.1896C38.3647 31.8837 36.4954 30.0144 34.1895 30.0144C31.8837 30.0144 30.0144 31.8837 30.0144 34.1896C30.0144 36.4954 31.8837 38.3647 34.1895 38.3647Z" fill="#7FD1C8"/>
<path d="M568.709 38.3647C571.015 38.3647 572.884 36.4954 572.884 34.1896C572.884 31.8837 571.015 30.0144 568.709 30.0144C566.403 30.0144 564.534 31.8837 564.534 34.1896C564.534 36.4954 566.403 38.3647 568.709 38.3647Z" fill="#7FD1C8"/>
<path d="M301.44 38.3647C303.746 38.3647 305.615 36.4954 305.615 34.1896C305.615 31.8837 303.746 30.0144 301.44 30.0144C299.134 30.0144 297.265 31.8837 297.265 34.1896C297.265 36.4954 299.134 38.3647 301.44 38.3647Z" fill="#7FD1C8"/>
<path d="M167.81 38.3647C170.116 38.3647 171.985 36.4954 171.985 34.1896C171.985 31.8837 170.116 30.0144 167.81 30.0144C165.504 30.0144 163.635 31.8837 163.635 34.1896C163.635 36.4954 165.504 38.3647 167.81 38.3647Z" fill="#7FD1C8"/>
<path d="M234.623 38.3647C236.928 38.3647 238.798 36.4954 238.798 34.1896C238.798 31.8837 236.928 30.0144 234.623 30.0144C232.317 30.0144 230.447 31.8837 230.447 34.1896C230.447 36.4954 232.317 38.3647 234.623 38.3647Z" fill="#7FD1C8"/>
<path d="M100.993 38.3647C103.299 38.3647 105.168 36.4954 105.168 34.1896C105.168 31.8837 103.299 30.0144 100.993 30.0144C98.6868 30.0144 96.8176 31.8837 96.8176 34.1896C96.8176 36.4954 98.6868 38.3647 100.993 38.3647Z" fill="#7FD1C8"/>
<path d="M501.893 38.3647C504.199 38.3647 506.068 36.4954 506.068 34.1896C506.068 31.8837 504.199 30.0144 501.893 30.0144C499.587 30.0144 497.718 31.8837 497.718 34.1896C497.718 36.4954 499.587 38.3647 501.893 38.3647Z" fill="#7FD1C8"/>
<path d="M368.258 38.3647C370.564 38.3647 372.433 36.4954 372.433 34.1896C372.433 31.8837 370.564 30.0144 368.258 30.0144C365.952 30.0144 364.083 31.8837 364.083 34.1896C364.083 36.4954 365.952 38.3647 368.258 38.3647Z" fill="#7FD1C8"/>
<path d="M435.075 38.3647C437.381 38.3647 439.25 36.4954 439.25 34.1896C439.25 31.8837 437.381 30.0144 435.075 30.0144C432.769 30.0144 430.9 31.8837 430.9 34.1896C430.9 36.4954 432.769 38.3647 435.075 38.3647Z" fill="#7FD1C8"/>
<path d="M67.5884 74.9155C69.8943 74.9155 71.7636 73.0462 71.7636 70.7403C71.7636 68.4345 69.8943 66.5652 67.5884 66.5652C65.2825 66.5652 63.4133 68.4345 63.4133 70.7403C63.4133 73.0462 65.2825 74.9155 67.5884 74.9155Z" fill="#7FD1C8"/>
<path d="M602.124 74.9155C604.43 74.9155 606.299 73.0462 606.299 70.7403C606.299 68.4345 604.43 66.5652 602.124 66.5652C599.818 66.5652 597.949 68.4345 597.949 70.7403C597.949 73.0462 599.818 74.9155 602.124 74.9155Z" fill="#7FD1C8"/>
<path d="M334.857 74.9275C337.17 74.9275 339.046 73.0519 339.046 70.7383C339.046 68.4247 337.17 66.5491 334.857 66.5491C332.543 66.5491 330.667 68.4247 330.667 70.7383C330.667 73.0519 332.543 74.9275 334.857 74.9275Z" fill="#7FD1C8"/>
<path d="M201.224 74.9155C203.529 74.9155 205.399 73.0462 205.399 70.7403C205.399 68.4345 203.529 66.5652 201.224 66.5652C198.918 66.5652 197.048 68.4345 197.048 70.7403C197.048 73.0462 198.918 74.9155 201.224 74.9155Z" fill="#7FD1C8"/>
<path d="M268.039 74.9155C270.345 74.9155 272.215 73.0462 272.215 70.7403C272.215 68.4345 270.345 66.5652 268.039 66.5652C265.734 66.5652 263.864 68.4345 263.864 70.7403C263.864 73.0462 265.734 74.9155 268.039 74.9155Z" fill="#7FD1C8"/>
<path d="M134.406 74.9155C136.712 74.9155 138.581 73.0462 138.581 70.7403C138.581 68.4345 136.712 66.5652 134.406 66.5652C132.1 66.5652 130.231 68.4345 130.231 70.7403C130.231 73.0462 132.1 74.9155 134.406 74.9155Z" fill="#7FD1C8"/>
<path d="M535.306 74.9155C537.612 74.9155 539.481 73.0462 539.481 70.7403C539.481 68.4345 537.612 66.5652 535.306 66.5652C533 66.5652 531.131 68.4345 531.131 70.7403C531.131 73.0462 533 74.9155 535.306 74.9155Z" fill="#7FD1C8"/>
<path d="M401.674 74.9275C403.988 74.9275 405.864 73.0519 405.864 70.7383C405.864 68.4247 403.988 66.5491 401.674 66.5491C399.361 66.5491 397.485 68.4247 397.485 70.7383C397.485 73.0519 399.361 74.9275 401.674 74.9275Z" fill="#7FD1C8"/>
<path d="M468.489 74.9155C470.794 74.9155 472.664 73.0462 472.664 70.7403C472.664 68.4345 470.794 66.5652 468.489 66.5652C466.183 66.5652 464.313 68.4345 464.313 70.7403C464.313 73.0462 466.183 74.9155 468.489 74.9155Z" fill="#7FD1C8"/>
<path d="M34.1895 74.9155C36.4954 74.9155 38.3647 73.0462 38.3647 70.7403C38.3647 68.4345 36.4954 66.5652 34.1895 66.5652C31.8837 66.5652 30.0144 68.4345 30.0144 70.7403C30.0144 73.0462 31.8837 74.9155 34.1895 74.9155Z" fill="#7FD1C8"/>
<path d="M568.709 74.9155C571.015 74.9155 572.884 73.0462 572.884 70.7403C572.884 68.4345 571.015 66.5652 568.709 66.5652C566.403 66.5652 564.534 68.4345 564.534 70.7403C564.534 73.0462 566.403 74.9155 568.709 74.9155Z" fill="#7FD1C8"/>
<path d="M301.44 74.9155C303.746 74.9155 305.615 73.0462 305.615 70.7403C305.615 68.4345 303.746 66.5652 301.44 66.5652C299.134 66.5652 297.265 68.4345 297.265 70.7403C297.265 73.0462 299.134 74.9155 301.44 74.9155Z" fill="#7FD1C8"/>
<path d="M167.81 74.9155C170.116 74.9155 171.985 73.0462 171.985 70.7403C171.985 68.4345 170.116 66.5652 167.81 66.5652C165.504 66.5652 163.635 68.4345 163.635 70.7403C163.635 73.0462 165.504 74.9155 167.81 74.9155Z" fill="#7FD1C8"/>
<path d="M234.623 74.9155C236.928 74.9155 238.798 73.0462 238.798 70.7403C238.798 68.4345 236.928 66.5652 234.623 66.5652C232.317 66.5652 230.447 68.4345 230.447 70.7403C230.447 73.0462 232.317 74.9155 234.623 74.9155Z" fill="#7FD1C8"/>
<path d="M100.993 74.9155C103.299 74.9155 105.168 73.0462 105.168 70.7403C105.168 68.4345 103.299 66.5652 100.993 66.5652C98.6868 66.5652 96.8176 68.4345 96.8176 70.7403C96.8176 73.0462 98.6868 74.9155 100.993 74.9155Z" fill="#7FD1C8"/>
<path d="M501.893 74.9155C504.199 74.9155 506.068 73.0462 506.068 70.7403C506.068 68.4345 504.199 66.5652 501.893 66.5652C499.587 66.5652 497.718 68.4345 497.718 70.7403C497.718 73.0462 499.587 74.9155 501.893 74.9155Z" fill="#7FD1C8"/>
<path d="M368.258 74.9155C370.564 74.9155 372.433 73.0462 372.433 70.7403C372.433 68.4345 370.564 66.5652 368.258 66.5652C365.952 66.5652 364.083 68.4345 364.083 70.7403C364.083 73.0462 365.952 74.9155 368.258 74.9155Z" fill="#7FD1C8"/>
<path d="M435.075 74.9155C437.381 74.9155 439.25 73.0462 439.25 70.7403C439.25 68.4345 437.381 66.5652 435.075 66.5652C432.769 66.5652 430.9 68.4345 430.9 70.7403C430.9 73.0462 432.769 74.9155 435.075 74.9155Z" fill="#7FD1C8"/>
<path d="M67.5884 111.463C69.8943 111.463 71.7636 109.594 71.7636 107.288C71.7636 104.982 69.8943 103.113 67.5884 103.113C65.2825 103.113 63.4133 104.982 63.4133 107.288C63.4133 109.594 65.2825 111.463 67.5884 111.463Z" fill="#7FD1C8"/>
<path d="M602.124 111.463C604.43 111.463 606.299 109.594 606.299 107.288C606.299 104.982 604.43 103.113 602.124 103.113C599.818 103.113 597.949 104.982 597.949 107.288C597.949 109.594 599.818 111.463 602.124 111.463Z" fill="#7FD1C8"/>
<path d="M334.857 111.48C337.17 111.48 339.046 109.605 339.046 107.291C339.046 104.977 337.17 103.102 334.857 103.102C332.543 103.102 330.667 104.977 330.667 107.291C330.667 109.605 332.543 111.48 334.857 111.48Z" fill="#7FD1C8"/>
<path d="M201.224 111.463C203.529 111.463 205.399 109.594 205.399 107.288C205.399 104.982 203.529 103.113 201.224 103.113C198.918 103.113 197.048 104.982 197.048 107.288C197.048 109.594 198.918 111.463 201.224 111.463Z" fill="#7FD1C8"/>
<path d="M268.039 111.463C270.345 111.463 272.215 109.594 272.215 107.288C272.215 104.982 270.345 103.113 268.039 103.113C265.734 103.113 263.864 104.982 263.864 107.288C263.864 109.594 265.734 111.463 268.039 111.463Z" fill="#7FD1C8"/>
<path d="M134.406 111.463C136.712 111.463 138.581 109.594 138.581 107.288C138.581 104.982 136.712 103.113 134.406 103.113C132.1 103.113 130.231 104.982 130.231 107.288C130.231 109.594 132.1 111.463 134.406 111.463Z" fill="#7FD1C8"/>
<path d="M535.306 111.463C537.612 111.463 539.481 109.594 539.481 107.288C539.481 104.982 537.612 103.113 535.306 103.113C533 103.113 531.131 104.982 531.131 107.288C531.131 109.594 533 111.463 535.306 111.463Z" fill="#7FD1C8"/>
<path d="M401.674 111.48C403.988 111.48 405.864 109.605 405.864 107.291C405.864 104.977 403.988 103.102 401.674 103.102C399.361 103.102 397.485 104.977 397.485 107.291C397.485 109.605 399.361 111.48 401.674 111.48Z" fill="#7FD1C8"/>
<path d="M468.489 111.463C470.794 111.463 472.664 109.594 472.664 107.288C472.664 104.982 470.794 103.113 468.489 103.113C466.183 103.113 464.313 104.982 464.313 107.288C464.313 109.594 466.183 111.463 468.489 111.463Z" fill="#7FD1C8"/>
<path d="M34.1895 111.463C36.4954 111.463 38.3647 109.594 38.3647 107.288C38.3647 104.982 36.4954 103.113 34.1895 103.113C31.8837 103.113 30.0144 104.982 30.0144 107.288C30.0144 109.594 31.8837 111.463 34.1895 111.463Z" fill="#7FD1C8"/>
<path d="M568.709 111.463C571.015 111.463 572.884 109.594 572.884 107.288C572.884 104.982 571.015 103.113 568.709 103.113C566.403 103.113 564.534 104.982 564.534 107.288C564.534 109.594 566.403 111.463 568.709 111.463Z" fill="#7FD1C8"/>
<path d="M301.44 111.463C303.746 111.463 305.615 109.594 305.615 107.288C305.615 104.982 303.746 103.113 301.44 103.113C299.134 103.113 297.265 104.982 297.265 107.288C297.265 109.594 299.134 111.463 301.44 111.463Z" fill="#7FD1C8"/>
<path d="M167.81 111.463C170.116 111.463 171.985 109.594 171.985 107.288C171.985 104.982 170.116 103.113 167.81 103.113C165.504 103.113 163.635 104.982 163.635 107.288C163.635 109.594 165.504 111.463 167.81 111.463Z" fill="#7FD1C8"/>
<path d="M234.623 111.463C236.928 111.463 238.798 109.594 238.798 107.288C238.798 104.982 236.928 103.113 234.623 103.113C232.317 103.113 230.447 104.982 230.447 107.288C230.447 109.594 232.317 111.463 234.623 111.463Z" fill="#7FD1C8"/>
<path d="M100.993 111.463C103.299 111.463 105.168 109.594 105.168 107.288C105.168 104.982 103.299 103.113 100.993 103.113C98.6868 103.113 96.8176 104.982 96.8176 107.288C96.8176 109.594 98.6868 111.463 100.993 111.463Z" fill="#7FD1C8"/>
<path d="M501.893 111.463C504.199 111.463 506.068 109.594 506.068 107.288C506.068 104.982 504.199 103.113 501.893 103.113C499.587 103.113 497.718 104.982 497.718 107.288C497.718 109.594 499.587 111.463 501.893 111.463Z" fill="#7FD1C8"/>
<path d="M368.258 111.463C370.564 111.463 372.433 109.594 372.433 107.288C372.433 104.982 370.564 103.113 368.258 103.113C365.952 103.113 364.083 104.982 364.083 107.288C364.083 109.594 365.952 111.463 368.258 111.463Z" fill="#7FD1C8"/>
<path d="M435.075 111.463C437.381 111.463 439.25 109.594 439.25 107.288C439.25 104.982 437.381 103.113 435.075 103.113C432.769 103.113 430.9 104.982 430.9 107.288C430.9 109.594 432.769 111.463 435.075 111.463Z" fill="#7FD1C8"/>
<path d="M67.5884 148.016C69.8943 148.016 71.7636 146.146 71.7636 143.84C71.7636 141.535 69.8943 139.665 67.5884 139.665C65.2825 139.665 63.4133 141.535 63.4133 143.84C63.4133 146.146 65.2825 148.016 67.5884 148.016Z" fill="#7FD1C8"/>
<path d="M602.124 148.016C604.43 148.016 606.299 146.146 606.299 143.84C606.299 141.535 604.43 139.665 602.124 139.665C599.818 139.665 597.949 141.535 597.949 143.84C597.949 146.146 599.818 148.016 602.124 148.016Z" fill="#7FD1C8"/>
<path d="M334.857 148.027C337.17 148.027 339.046 146.152 339.046 143.838C339.046 141.524 337.17 139.649 334.857 139.649C332.543 139.649 330.667 141.524 330.667 143.838C330.667 146.152 332.543 148.027 334.857 148.027Z" fill="#7FD1C8"/>
<path d="M201.224 148.016C203.529 148.016 205.399 146.146 205.399 143.84C205.399 141.535 203.529 139.665 201.224 139.665C198.918 139.665 197.048 141.535 197.048 143.84C197.048 146.146 198.918 148.016 201.224 148.016Z" fill="#7FD1C8"/>
<path d="M268.039 148.016C270.345 148.016 272.215 146.146 272.215 143.84C272.215 141.535 270.345 139.665 268.039 139.665C265.734 139.665 263.864 141.535 263.864 143.84C263.864 146.146 265.734 148.016 268.039 148.016Z" fill="#7FD1C8"/>
<path d="M134.406 148.016C136.712 148.016 138.581 146.146 138.581 143.84C138.581 141.535 136.712 139.665 134.406 139.665C132.1 139.665 130.231 141.535 130.231 143.84C130.231 146.146 132.1 148.016 134.406 148.016Z" fill="#7FD1C8"/>
<path d="M535.306 148.016C537.612 148.016 539.481 146.146 539.481 143.84C539.481 141.535 537.612 139.665 535.306 139.665C533 139.665 531.131 141.535 531.131 143.84C531.131 146.146 533 148.016 535.306 148.016Z" fill="#7FD1C8"/>
<path d="M401.674 148.027C403.988 148.027 405.864 146.152 405.864 143.838C405.864 141.524 403.988 139.649 401.674 139.649C399.361 139.649 397.485 141.524 397.485 143.838C397.485 146.152 399.361 148.027 401.674 148.027Z" fill="#7FD1C8"/>
<path d="M468.489 148.016C470.794 148.016 472.664 146.146 472.664 143.84C472.664 141.535 470.794 139.665 468.489 139.665C466.183 139.665 464.313 141.535 464.313 143.84C464.313 146.146 466.183 148.016 468.489 148.016Z" fill="#7FD1C8"/>
<path d="M34.1895 148.016C36.4954 148.016 38.3647 146.146 38.3647 143.84C38.3647 141.535 36.4954 139.665 34.1895 139.665C31.8837 139.665 30.0144 141.535 30.0144 143.84C30.0144 146.146 31.8837 148.016 34.1895 148.016Z" fill="#7FD1C8"/>
<path d="M568.709 148.016C571.015 148.016 572.884 146.146 572.884 143.84C572.884 141.535 571.015 139.665 568.709 139.665C566.403 139.665 564.534 141.535 564.534 143.84C564.534 146.146 566.403 148.016 568.709 148.016Z" fill="#7FD1C8"/>
<path d="M301.44 148.016C303.746 148.016 305.615 146.146 305.615 143.84C305.615 141.535 303.746 139.665 301.44 139.665C299.134 139.665 297.265 141.535 297.265 143.84C297.265 146.146 299.134 148.016 301.44 148.016Z" fill="#7FD1C8"/>
<path d="M167.81 148.016C170.116 148.016 171.985 146.146 171.985 143.84C171.985 141.535 170.116 139.665 167.81 139.665C165.504 139.665 163.635 141.535 163.635 143.84C163.635 146.146 165.504 148.016 167.81 148.016Z" fill="#7FD1C8"/>
<path d="M234.623 148.016C236.928 148.016 238.798 146.146 238.798 143.84C238.798 141.535 236.928 139.665 234.623 139.665C232.317 139.665 230.447 141.535 230.447 143.84C230.447 146.146 232.317 148.016 234.623 148.016Z" fill="#7FD1C8"/>
<path d="M100.993 148.016C103.299 148.016 105.168 146.146 105.168 143.84C105.168 141.535 103.299 139.665 100.993 139.665C98.6868 139.665 96.8176 141.535 96.8176 143.84C96.8176 146.146 98.6868 148.016 100.993 148.016Z" fill="#7FD1C8"/>
<path d="M501.893 148.016C504.199 148.016 506.068 146.146 506.068 143.84C506.068 141.535 504.199 139.665 501.893 139.665C499.587 139.665 497.718 141.535 497.718 143.84C497.718 146.146 499.587 148.016 501.893 148.016Z" fill="#7FD1C8"/>
<path d="M368.258 148.016C370.564 148.016 372.433 146.146 372.433 143.84C372.433 141.535 370.564 139.665 368.258 139.665C365.952 139.665 364.083 141.535 364.083 143.84C364.083 146.146 365.952 148.016 368.258 148.016Z" fill="#7FD1C8"/>
<path d="M435.075 148.016C437.381 148.016 439.25 146.146 439.25 143.84C439.25 141.535 437.381 139.665 435.075 139.665C432.769 139.665 430.9 141.535 430.9 143.84C430.9 146.146 432.769 148.016 435.075 148.016Z" fill="#7FD1C8"/>
<path d="M67.5884 184.565C69.8943 184.565 71.7636 182.695 71.7636 180.389C71.7636 178.084 69.8943 176.214 67.5884 176.214C65.2825 176.214 63.4133 178.084 63.4133 180.389C63.4133 182.695 65.2825 184.565 67.5884 184.565Z" fill="#7FD1C8"/>
<path d="M602.124 184.565C604.43 184.565 606.299 182.695 606.299 180.389C606.299 178.084 604.43 176.214 602.124 176.214C599.818 176.214 597.949 178.084 597.949 180.389C597.949 182.695 599.818 184.565 602.124 184.565Z" fill="#7FD1C8"/>
<path d="M334.857 184.58C337.17 184.58 339.046 182.704 339.046 180.391C339.046 178.077 337.17 176.202 334.857 176.202C332.543 176.202 330.667 178.077 330.667 180.391C330.667 182.704 332.543 184.58 334.857 184.58Z" fill="#7FD1C8"/>
<path d="M201.224 184.565C203.529 184.565 205.399 182.695 205.399 180.389C205.399 178.084 203.529 176.214 201.224 176.214C198.918 176.214 197.048 178.084 197.048 180.389C197.048 182.695 198.918 184.565 201.224 184.565Z" fill="#7FD1C8"/>
<path d="M268.039 184.565C270.345 184.565 272.215 182.695 272.215 180.389C272.215 178.084 270.345 176.214 268.039 176.214C265.734 176.214 263.864 178.084 263.864 180.389C263.864 182.695 265.734 184.565 268.039 184.565Z" fill="#7FD1C8"/>
<path d="M134.406 184.565C136.712 184.565 138.581 182.695 138.581 180.389C138.581 178.084 136.712 176.214 134.406 176.214C132.1 176.214 130.231 178.084 130.231 180.389C130.231 182.695 132.1 184.565 134.406 184.565Z" fill="#7FD1C8"/>
<path d="M535.306 184.565C537.612 184.565 539.481 182.695 539.481 180.389C539.481 178.084 537.612 176.214 535.306 176.214C533 176.214 531.131 178.084 531.131 180.389C531.131 182.695 533 184.565 535.306 184.565Z" fill="#7FD1C8"/>
<path d="M401.674 184.58C403.988 184.58 405.864 182.704 405.864 180.391C405.864 178.077 403.988 176.202 401.674 176.202C399.361 176.202 397.485 178.077 397.485 180.391C397.485 182.704 399.361 184.58 401.674 184.58Z" fill="#7FD1C8"/>
<path d="M468.489 184.565C470.794 184.565 472.664 182.695 472.664 180.389C472.664 178.084 470.794 176.214 468.489 176.214C466.183 176.214 464.313 178.084 464.313 180.389C464.313 182.695 466.183 184.565 468.489 184.565Z" fill="#7FD1C8"/>
<path d="M34.1895 184.565C36.4954 184.565 38.3647 182.695 38.3647 180.389C38.3647 178.084 36.4954 176.214 34.1895 176.214C31.8837 176.214 30.0144 178.084 30.0144 180.389C30.0144 182.695 31.8837 184.565 34.1895 184.565Z" fill="#7FD1C8"/>
<path d="M568.709 184.565C571.015 184.565 572.884 182.695 572.884 180.389C572.884 178.084 571.015 176.214 568.709 176.214C566.403 176.214 564.534 178.084 564.534 180.389C564.534 182.695 566.403 184.565 568.709 184.565Z" fill="#7FD1C8"/>
<path d="M301.44 184.565C303.746 184.565 305.615 182.695 305.615 180.389C305.615 178.084 303.746 176.214 301.44 176.214C299.134 176.214 297.265 178.084 297.265 180.389C297.265 182.695 299.134 184.565 301.44 184.565Z" fill="#7FD1C8"/>
<path d="M167.81 184.565C170.116 184.565 171.985 182.695 171.985 180.389C171.985 178.084 170.116 176.214 167.81 176.214C165.504 176.214 163.635 178.084 163.635 180.389C163.635 182.695 165.504 184.565 167.81 184.565Z" fill="#7FD1C8"/>
<path d="M234.623 184.565C236.928 184.565 238.798 182.695 238.798 180.389C238.798 178.084 236.928 176.214 234.623 176.214C232.317 176.214 230.447 178.084 230.447 180.389C230.447 182.695 232.317 184.565 234.623 184.565Z" fill="#7FD1C8"/>
<path d="M100.993 184.565C103.299 184.565 105.168 182.695 105.168 180.389C105.168 178.084 103.299 176.214 100.993 176.214C98.6868 176.214 96.8176 178.084 96.8176 180.389C96.8176 182.695 98.6868 184.565 100.993 184.565Z" fill="#7FD1C8"/>
<path d="M501.893 184.565C504.199 184.565 506.068 182.695 506.068 180.389C506.068 178.084 504.199 176.214 501.893 176.214C499.587 176.214 497.718 178.084 497.718 180.389C497.718 182.695 499.587 184.565 501.893 184.565Z" fill="#7FD1C8"/>
<path d="M368.258 184.565C370.564 184.565 372.433 182.695 372.433 180.389C372.433 178.084 370.564 176.214 368.258 176.214C365.952 176.214 364.083 178.084 364.083 180.389C364.083 182.695 365.952 184.565 368.258 184.565Z" fill="#7FD1C8"/>
<path d="M435.075 184.565C437.381 184.565 439.25 182.695 439.25 180.389C439.25 178.084 437.381 176.214 435.075 176.214C432.769 176.214 430.9 178.084 430.9 180.389C430.9 182.695 432.769 184.565 435.075 184.565Z" fill="#7FD1C8"/>
<path d="M67.5884 221.115C69.8943 221.115 71.7636 219.246 71.7636 216.94C71.7636 214.634 69.8943 212.765 67.5884 212.765C65.2825 212.765 63.4133 214.634 63.4133 216.94C63.4133 219.246 65.2825 221.115 67.5884 221.115Z" fill="#7FD1C8"/>
<path d="M602.124 221.115C604.43 221.115 606.299 219.246 606.299 216.94C606.299 214.634 604.43 212.765 602.124 212.765C599.818 212.765 597.949 214.634 597.949 216.94C597.949 219.246 599.818 221.115 602.124 221.115Z" fill="#7FD1C8"/>
<path d="M334.857 221.129C337.17 221.129 339.046 219.254 339.046 216.94C339.046 214.626 337.17 212.751 334.857 212.751C332.543 212.751 330.667 214.626 330.667 216.94C330.667 219.254 332.543 221.129 334.857 221.129Z" fill="#7FD1C8"/>
<path d="M201.224 221.115C203.529 221.115 205.399 219.246 205.399 216.94C205.399 214.634 203.529 212.765 201.224 212.765C198.918 212.765 197.048 214.634 197.048 216.94C197.048 219.246 198.918 221.115 201.224 221.115Z" fill="#7FD1C8"/>
<path d="M268.039 221.115C270.345 221.115 272.215 219.246 272.215 216.94C272.215 214.634 270.345 212.765 268.039 212.765C265.734 212.765 263.864 214.634 263.864 216.94C263.864 219.246 265.734 221.115 268.039 221.115Z" fill="#7FD1C8"/>
<path d="M134.406 221.115C136.712 221.115 138.581 219.246 138.581 216.94C138.581 214.634 136.712 212.765 134.406 212.765C132.1 212.765 130.231 214.634 130.231 216.94C130.231 219.246 132.1 221.115 134.406 221.115Z" fill="#7FD1C8"/>
<path d="M535.306 221.115C537.612 221.115 539.481 219.246 539.481 216.94C539.481 214.634 537.612 212.765 535.306 212.765C533 212.765 531.131 214.634 531.131 216.94C531.131 219.246 533 221.115 535.306 221.115Z" fill="#7FD1C8"/>
<path d="M401.674 221.129C403.988 221.129 405.864 219.254 405.864 216.94C405.864 214.626 403.988 212.751 401.674 212.751C399.361 212.751 397.485 214.626 397.485 216.94C397.485 219.254 399.361 221.129 401.674 221.129Z" fill="#7FD1C8"/>
<path d="M468.489 221.115C470.794 221.115 472.664 219.246 472.664 216.94C472.664 214.634 470.794 212.765 468.489 212.765C466.183 212.765 464.313 214.634 464.313 216.94C464.313 219.246 466.183 221.115 468.489 221.115Z" fill="#7FD1C8"/>
<path d="M34.1895 221.115C36.4954 221.115 38.3647 219.246 38.3647 216.94C38.3647 214.634 36.4954 212.765 34.1895 212.765C31.8837 212.765 30.0144 214.634 30.0144 216.94C30.0144 219.246 31.8837 221.115 34.1895 221.115Z" fill="#7FD1C8"/>
<path d="M568.709 221.115C571.015 221.115 572.884 219.246 572.884 216.94C572.884 214.634 571.015 212.765 568.709 212.765C566.403 212.765 564.534 214.634 564.534 216.94C564.534 219.246 566.403 221.115 568.709 221.115Z" fill="#7FD1C8"/>
<path d="M301.44 221.115C303.746 221.115 305.615 219.246 305.615 216.94C305.615 214.634 303.746 212.765 301.44 212.765C299.134 212.765 297.265 214.634 297.265 216.94C297.265 219.246 299.134 221.115 301.44 221.115Z" fill="#7FD1C8"/>
<path d="M167.81 221.115C170.116 221.115 171.985 219.246 171.985 216.94C171.985 214.634 170.116 212.765 167.81 212.765C165.504 212.765 163.635 214.634 163.635 216.94C163.635 219.246 165.504 221.115 167.81 221.115Z" fill="#7FD1C8"/>
<path d="M234.623 221.115C236.928 221.115 238.798 219.246 238.798 216.94C238.798 214.634 236.928 212.765 234.623 212.765C232.317 212.765 230.447 214.634 230.447 216.94C230.447 219.246 232.317 221.115 234.623 221.115Z" fill="#7FD1C8"/>
<path d="M100.993 221.115C103.299 221.115 105.168 219.246 105.168 216.94C105.168 214.634 103.299 212.765 100.993 212.765C98.6868 212.765 96.8176 214.634 96.8176 216.94C96.8176 219.246 98.6868 221.115 100.993 221.115Z" fill="#7FD1C8"/>
<path d="M501.893 221.115C504.199 221.115 506.068 219.246 506.068 216.94C506.068 214.634 504.199 212.765 501.893 212.765C499.587 212.765 497.718 214.634 497.718 216.94C497.718 219.246 499.587 221.115 501.893 221.115Z" fill="#7FD1C8"/>
<path d="M368.258 221.115C370.564 221.115 372.433 219.246 372.433 216.94C372.433 214.634 370.564 212.765 368.258 212.765C365.952 212.765 364.083 214.634 364.083 216.94C364.083 219.246 365.952 221.115 368.258 221.115Z" fill="#7FD1C8"/>
<path d="M435.075 221.115C437.381 221.115 439.25 219.246 439.25 216.94C439.25 214.634 437.381 212.765 435.075 212.765C432.769 212.765 430.9 214.634 430.9 216.94C430.9 219.246 432.769 221.115 435.075 221.115Z" fill="#7FD1C8"/>
<path d="M67.5884 257.666C69.8943 257.666 71.7636 255.797 71.7636 253.491C71.7636 251.185 69.8943 249.316 67.5884 249.316C65.2825 249.316 63.4133 251.185 63.4133 253.491C63.4133 255.797 65.2825 257.666 67.5884 257.666Z" fill="#7FD1C8"/>
<path d="M602.124 257.666C604.43 257.666 606.299 255.797 606.299 253.491C606.299 251.185 604.43 249.316 602.124 249.316C599.818 249.316 597.949 251.185 597.949 253.491C597.949 255.797 599.818 257.666 602.124 257.666Z" fill="#7FD1C8"/>
<path d="M334.857 257.682C337.17 257.682 339.046 255.806 339.046 253.493C339.046 251.179 337.17 249.303 334.857 249.303C332.543 249.303 330.667 251.179 330.667 253.493C330.667 255.806 332.543 257.682 334.857 257.682Z" fill="#7FD1C8"/>
<path d="M201.224 257.666C203.529 257.666 205.399 255.797 205.399 253.491C205.399 251.185 203.529 249.316 201.224 249.316C198.918 249.316 197.048 251.185 197.048 253.491C197.048 255.797 198.918 257.666 201.224 257.666Z" fill="#7FD1C8"/>
<path d="M268.039 257.666C270.345 257.666 272.215 255.797 272.215 253.491C272.215 251.185 270.345 249.316 268.039 249.316C265.734 249.316 263.864 251.185 263.864 253.491C263.864 255.797 265.734 257.666 268.039 257.666Z" fill="#7FD1C8"/>
<path d="M134.406 257.666C136.712 257.666 138.581 255.797 138.581 253.491C138.581 251.185 136.712 249.316 134.406 249.316C132.1 249.316 130.231 251.185 130.231 253.491C130.231 255.797 132.1 257.666 134.406 257.666Z" fill="#7FD1C8"/>
<path d="M535.306 257.666C537.612 257.666 539.481 255.797 539.481 253.491C539.481 251.185 537.612 249.316 535.306 249.316C533 249.316 531.131 251.185 531.131 253.491C531.131 255.797 533 257.666 535.306 257.666Z" fill="#7FD1C8"/>
<path d="M401.674 257.682C403.988 257.682 405.864 255.806 405.864 253.493C405.864 251.179 403.988 249.303 401.674 249.303C399.361 249.303 397.485 251.179 397.485 253.493C397.485 255.806 399.361 257.682 401.674 257.682Z" fill="#7FD1C8"/>
<path d="M468.489 257.666C470.794 257.666 472.664 255.797 472.664 253.491C472.664 251.185 470.794 249.316 468.489 249.316C466.183 249.316 464.313 251.185 464.313 253.491C464.313 255.797 466.183 257.666 468.489 257.666Z" fill="#7FD1C8"/>
<path d="M34.1895 257.666C36.4954 257.666 38.3647 255.797 38.3647 253.491C38.3647 251.185 36.4954 249.316 34.1895 249.316C31.8837 249.316 30.0144 251.185 30.0144 253.491C30.0144 255.797 31.8837 257.666 34.1895 257.666Z" fill="#7FD1C8"/>
<path d="M568.709 257.666C571.015 257.666 572.884 255.797 572.884 253.491C572.884 251.185 571.015 249.316 568.709 249.316C566.403 249.316 564.534 251.185 564.534 253.491C564.534 255.797 566.403 257.666 568.709 257.666Z" fill="#7FD1C8"/>
<path d="M301.44 257.666C303.746 257.666 305.615 255.797 305.615 253.491C305.615 251.185 303.746 249.316 301.44 249.316C299.134 249.316 297.265 251.185 297.265 253.491C297.265 255.797 299.134 257.666 301.44 257.666Z" fill="#7FD1C8"/>
<path d="M167.81 257.666C170.116 257.666 171.985 255.797 171.985 253.491C171.985 251.185 170.116 249.316 167.81 249.316C165.504 249.316 163.635 251.185 163.635 253.491C163.635 255.797 165.504 257.666 167.81 257.666Z" fill="#7FD1C8"/>
<path d="M234.623 257.666C236.928 257.666 238.798 255.797 238.798 253.491C238.798 251.185 236.928 249.316 234.623 249.316C232.317 249.316 230.447 251.185 230.447 253.491C230.447 255.797 232.317 257.666 234.623 257.666Z" fill="#7FD1C8"/>
<path d="M100.993 257.666C103.299 257.666 105.168 255.797 105.168 253.491C105.168 251.185 103.299 249.316 100.993 249.316C98.6868 249.316 96.8176 251.185 96.8176 253.491C96.8176 255.797 98.6868 257.666 100.993 257.666Z" fill="#7FD1C8"/>
<path d="M501.893 257.666C504.199 257.666 506.068 255.797 506.068 253.491C506.068 251.185 504.199 249.316 501.893 249.316C499.587 249.316 497.718 251.185 497.718 253.491C497.718 255.797 499.587 257.666 501.893 257.666Z" fill="#7FD1C8"/>
<path d="M368.258 257.666C370.564 257.666 372.433 255.797 372.433 253.491C372.433 251.185 370.564 249.316 368.258 249.316C365.952 249.316 364.083 251.185 364.083 253.491C364.083 255.797 365.952 257.666 368.258 257.666Z" fill="#7FD1C8"/>
<path d="M435.075 257.666C437.381 257.666 439.25 255.797 439.25 253.491C439.25 251.185 437.381 249.316 435.075 249.316C432.769 249.316 430.9 251.185 430.9 253.491C430.9 255.797 432.769 257.666 435.075 257.666Z" fill="#7FD1C8"/>
<path d="M67.5884 294.214C69.8943 294.214 71.7636 292.344 71.7636 290.038C71.7636 287.733 69.8943 285.863 67.5884 285.863C65.2825 285.863 63.4133 287.733 63.4133 290.038C63.4133 292.344 65.2825 294.214 67.5884 294.214Z" fill="#7FD1C8"/>
<path d="M602.124 294.214C604.43 294.214 606.299 292.344 606.299 290.038C606.299 287.733 604.43 285.863 602.124 285.863C599.818 285.863 597.949 287.733 597.949 290.038C597.949 292.344 599.818 294.214 602.124 294.214Z" fill="#7FD1C8"/>
<path d="M334.857 294.231C337.17 294.231 339.046 292.355 339.046 290.042C339.046 287.728 337.17 285.853 334.857 285.853C332.543 285.853 330.667 287.728 330.667 290.042C330.667 292.355 332.543 294.231 334.857 294.231Z" fill="#7FD1C8"/>
<path d="M201.224 294.214C203.529 294.214 205.399 292.344 205.399 290.038C205.399 287.733 203.529 285.863 201.224 285.863C198.918 285.863 197.048 287.733 197.048 290.038C197.048 292.344 198.918 294.214 201.224 294.214Z" fill="#7FD1C8"/>
<path d="M268.039 294.214C270.345 294.214 272.215 292.344 272.215 290.038C272.215 287.733 270.345 285.863 268.039 285.863C265.734 285.863 263.864 287.733 263.864 290.038C263.864 292.344 265.734 294.214 268.039 294.214Z" fill="#7FD1C8"/>
<path d="M134.406 294.214C136.712 294.214 138.581 292.344 138.581 290.038C138.581 287.733 136.712 285.863 134.406 285.863C132.1 285.863 130.231 287.733 130.231 290.038C130.231 292.344 132.1 294.214 134.406 294.214Z" fill="#7FD1C8"/>
<path d="M535.306 294.214C537.612 294.214 539.481 292.344 539.481 290.038C539.481 287.733 537.612 285.863 535.306 285.863C533 285.863 531.131 287.733 531.131 290.038C531.131 292.344 533 294.214 535.306 294.214Z" fill="#7FD1C8"/>
<path d="M401.674 294.231C403.988 294.231 405.864 292.355 405.864 290.042C405.864 287.728 403.988 285.853 401.674 285.853C399.361 285.853 397.485 287.728 397.485 290.042C397.485 292.355 399.361 294.231 401.674 294.231Z" fill="#7FD1C8"/>
<path d="M468.489 294.214C470.794 294.214 472.664 292.344 472.664 290.038C472.664 287.733 470.794 285.863 468.489 285.863C466.183 285.863 464.313 287.733 464.313 290.038C464.313 292.344 466.183 294.214 468.489 294.214Z" fill="#7FD1C8"/>
<path d="M34.1895 294.214C36.4954 294.214 38.3647 292.344 38.3647 290.038C38.3647 287.733 36.4954 285.863 34.1895 285.863C31.8837 285.863 30.0144 287.733 30.0144 290.038C30.0144 292.344 31.8837 294.214 34.1895 294.214Z" fill="#7FD1C8"/>
<path d="M568.709 294.214C571.015 294.214 572.884 292.344 572.884 290.038C572.884 287.733 571.015 285.863 568.709 285.863C566.403 285.863 564.534 287.733 564.534 290.038C564.534 292.344 566.403 294.214 568.709 294.214Z" fill="#7FD1C8"/>
<path d="M301.44 294.214C303.746 294.214 305.615 292.344 305.615 290.038C305.615 287.733 303.746 285.863 301.44 285.863C299.134 285.863 297.265 287.733 297.265 290.038C297.265 292.344 299.134 294.214 301.44 294.214Z" fill="#7FD1C8"/>
<path d="M167.81 294.214C170.116 294.214 171.985 292.344 171.985 290.038C171.985 287.733 170.116 285.863 167.81 285.863C165.504 285.863 163.635 287.733 163.635 290.038C163.635 292.344 165.504 294.214 167.81 294.214Z" fill="#7FD1C8"/>
<path d="M234.623 294.214C236.928 294.214 238.798 292.344 238.798 290.038C238.798 287.733 236.928 285.863 234.623 285.863C232.317 285.863 230.447 287.733 230.447 290.038C230.447 292.344 232.317 294.214 234.623 294.214Z" fill="#7FD1C8"/>
<path d="M100.993 294.214C103.299 294.214 105.168 292.344 105.168 290.038C105.168 287.733 103.299 285.863 100.993 285.863C98.6868 285.863 96.8176 287.733 96.8176 290.038C96.8176 292.344 98.6868 294.214 100.993 294.214Z" fill="#7FD1C8"/>
<path d="M501.893 294.214C504.199 294.214 506.068 292.344 506.068 290.038C506.068 287.733 504.199 285.863 501.893 285.863C499.587 285.863 497.718 287.733 497.718 290.038C497.718 292.344 499.587 294.214 501.893 294.214Z" fill="#7FD1C8"/>
<path d="M368.258 294.214C370.564 294.214 372.433 292.344 372.433 290.038C372.433 287.733 370.564 285.863 368.258 285.863C365.952 285.863 364.083 287.733 364.083 290.038C364.083 292.344 365.952 294.214 368.258 294.214Z" fill="#7FD1C8"/>
<path d="M435.075 294.214C437.381 294.214 439.25 292.344 439.25 290.038C439.25 287.733 437.381 285.863 435.075 285.863C432.769 285.863 430.9 287.733 430.9 290.038C430.9 292.344 432.769 294.214 435.075 294.214Z" fill="#7FD1C8"/>
<path d="M67.5884 330.766C69.8943 330.766 71.7636 328.897 71.7636 326.591C71.7636 324.285 69.8943 322.416 67.5884 322.416C65.2825 322.416 63.4133 324.285 63.4133 326.591C63.4133 328.897 65.2825 330.766 67.5884 330.766Z" fill="#7FD1C8"/>
<path d="M602.124 330.766C604.43 330.766 606.299 328.897 606.299 326.591C606.299 324.285 604.43 322.416 602.124 322.416C599.818 322.416 597.949 324.285 597.949 326.591C597.949 328.897 599.818 330.766 602.124 330.766Z" fill="#7FD1C8"/>
<path d="M334.857 330.778C337.17 330.778 339.046 328.903 339.046 326.589C339.046 324.275 337.17 322.4 334.857 322.4C332.543 322.4 330.667 324.275 330.667 326.589C330.667 328.903 332.543 330.778 334.857 330.778Z" fill="#7FD1C8"/>
<path d="M201.224 330.766C203.529 330.766 205.399 328.897 205.399 326.591C205.399 324.285 203.529 322.416 201.224 322.416C198.918 322.416 197.048 324.285 197.048 326.591C197.048 328.897 198.918 330.766 201.224 330.766Z" fill="#7FD1C8"/>
<path d="M268.039 330.766C270.345 330.766 272.215 328.897 272.215 326.591C272.215 324.285 270.345 322.416 268.039 322.416C265.734 322.416 263.864 324.285 263.864 326.591C263.864 328.897 265.734 330.766 268.039 330.766Z" fill="#7FD1C8"/>
<path d="M134.406 330.766C136.712 330.766 138.581 328.897 138.581 326.591C138.581 324.285 136.712 322.416 134.406 322.416C132.1 322.416 130.231 324.285 130.231 326.591C130.231 328.897 132.1 330.766 134.406 330.766Z" fill="#7FD1C8"/>
<path d="M535.306 330.766C537.612 330.766 539.481 328.897 539.481 326.591C539.481 324.285 537.612 322.416 535.306 322.416C533 322.416 531.131 324.285 531.131 326.591C531.131 328.897 533 330.766 535.306 330.766Z" fill="#7FD1C8"/>
<path d="M401.674 330.778C403.988 330.778 405.864 328.903 405.864 326.589C405.864 324.275 403.988 322.4 401.674 322.4C399.361 322.4 397.485 324.275 397.485 326.589C397.485 328.903 399.361 330.778 401.674 330.778Z" fill="#7FD1C8"/>
<path d="M468.489 330.766C470.794 330.766 472.664 328.897 472.664 326.591C472.664 324.285 470.794 322.416 468.489 322.416C466.183 322.416 464.313 324.285 464.313 326.591C464.313 328.897 466.183 330.766 468.489 330.766Z" fill="#7FD1C8"/>
<path d="M34.1895 330.766C36.4954 330.766 38.3647 328.897 38.3647 326.591C38.3647 324.285 36.4954 322.416 34.1895 322.416C31.8837 322.416 30.0144 324.285 30.0144 326.591C30.0144 328.897 31.8837 330.766 34.1895 330.766Z" fill="#7FD1C8"/>
<path d="M568.709 330.766C571.015 330.766 572.884 328.897 572.884 326.591C572.884 324.285 571.015 322.416 568.709 322.416C566.403 322.416 564.534 324.285 564.534 326.591C564.534 328.897 566.403 330.766 568.709 330.766Z" fill="#7FD1C8"/>
<path d="M301.44 330.766C303.746 330.766 305.615 328.897 305.615 326.591C305.615 324.285 303.746 322.416 301.44 322.416C299.134 322.416 297.265 324.285 297.265 326.591C297.265 328.897 299.134 330.766 301.44 330.766Z" fill="#7FD1C8"/>
<path d="M167.81 330.766C170.116 330.766 171.985 328.897 171.985 326.591C171.985 324.285 170.116 322.416 167.81 322.416C165.504 322.416 163.635 324.285 163.635 326.591C163.635 328.897 165.504 330.766 167.81 330.766Z" fill="#7FD1C8"/>
<path d="M234.623 330.766C236.928 330.766 238.798 328.897 238.798 326.591C238.798 324.285 236.928 322.416 234.623 322.416C232.317 322.416 230.447 324.285 230.447 326.591C230.447 328.897 232.317 330.766 234.623 330.766Z" fill="#7FD1C8"/>
<path d="M100.993 330.766C103.299 330.766 105.168 328.897 105.168 326.591C105.168 324.285 103.299 322.416 100.993 322.416C98.6868 322.416 96.8176 324.285 96.8176 326.591C96.8176 328.897 98.6868 330.766 100.993 330.766Z" fill="#7FD1C8"/>
<path d="M501.893 330.766C504.199 330.766 506.068 328.897 506.068 326.591C506.068 324.285 504.199 322.416 501.893 322.416C499.587 322.416 497.718 324.285 497.718 326.591C497.718 328.897 499.587 330.766 501.893 330.766Z" fill="#7FD1C8"/>
<path d="M368.258 330.766C370.564 330.766 372.433 328.897 372.433 326.591C372.433 324.285 370.564 322.416 368.258 322.416C365.952 322.416 364.083 324.285 364.083 326.591C364.083 328.897 365.952 330.766 368.258 330.766Z" fill="#7FD1C8"/>
<path d="M435.075 330.766C437.381 330.766 439.25 328.897 439.25 326.591C439.25 324.285 437.381 322.416 435.075 322.416C432.769 322.416 430.9 324.285 430.9 326.591C430.9 328.897 432.769 330.766 435.075 330.766Z" fill="#7FD1C8"/>
<path d="M67.5884 367.315C69.8943 367.315 71.7636 365.446 71.7636 363.14C71.7636 360.834 69.8943 358.965 67.5884 358.965C65.2825 358.965 63.4133 360.834 63.4133 363.14C63.4133 365.446 65.2825 367.315 67.5884 367.315Z" fill="#7FD1C8"/>
<path d="M602.124 367.315C604.43 367.315 606.299 365.446 606.299 363.14C606.299 360.834 604.43 358.965 602.124 358.965C599.818 358.965 597.949 360.834 597.949 363.14C597.949 365.446 599.818 367.315 602.124 367.315Z" fill="#7FD1C8"/>
<path d="M334.857 367.331C337.17 367.331 339.046 365.455 339.046 363.142C339.046 360.828 337.17 358.953 334.857 358.953C332.543 358.953 330.667 360.828 330.667 363.142C330.667 365.455 332.543 367.331 334.857 367.331Z" fill="#7FD1C8"/>
<path d="M201.224 367.315C203.529 367.315 205.399 365.446 205.399 363.14C205.399 360.834 203.529 358.965 201.224 358.965C198.918 358.965 197.048 360.834 197.048 363.14C197.048 365.446 198.918 367.315 201.224 367.315Z" fill="#7FD1C8"/>
<path d="M268.039 367.315C270.345 367.315 272.215 365.446 272.215 363.14C272.215 360.834 270.345 358.965 268.039 358.965C265.734 358.965 263.864 360.834 263.864 363.14C263.864 365.446 265.734 367.315 268.039 367.315Z" fill="#7FD1C8"/>
<path d="M134.406 367.315C136.712 367.315 138.581 365.446 138.581 363.14C138.581 360.834 136.712 358.965 134.406 358.965C132.1 358.965 130.231 360.834 130.231 363.14C130.231 365.446 132.1 367.315 134.406 367.315Z" fill="#7FD1C8"/>
<path d="M535.306 367.315C537.612 367.315 539.481 365.446 539.481 363.14C539.481 360.834 537.612 358.965 535.306 358.965C533 358.965 531.131 360.834 531.131 363.14C531.131 365.446 533 367.315 535.306 367.315Z" fill="#7FD1C8"/>
<path d="M401.674 367.331C403.988 367.331 405.864 365.455 405.864 363.142C405.864 360.828 403.988 358.953 401.674 358.953C399.361 358.953 397.485 360.828 397.485 363.142C397.485 365.455 399.361 367.331 401.674 367.331Z" fill="#7FD1C8"/>
<path d="M468.489 367.315C470.794 367.315 472.664 365.446 472.664 363.14C472.664 360.834 470.794 358.965 468.489 358.965C466.183 358.965 464.313 360.834 464.313 363.14C464.313 365.446 466.183 367.315 468.489 367.315Z" fill="#7FD1C8"/>
<path d="M34.1895 367.315C36.4954 367.315 38.3647 365.446 38.3647 363.14C38.3647 360.834 36.4954 358.965 34.1895 358.965C31.8837 358.965 30.0144 360.834 30.0144 363.14C30.0144 365.446 31.8837 367.315 34.1895 367.315Z" fill="#7FD1C8"/>
<path d="M568.709 367.315C571.015 367.315 572.884 365.446 572.884 363.14C572.884 360.834 571.015 358.965 568.709 358.965C566.403 358.965 564.534 360.834 564.534 363.14C564.534 365.446 566.403 367.315 568.709 367.315Z" fill="#7FD1C8"/>
<path d="M301.44 367.315C303.746 367.315 305.615 365.446 305.615 363.14C305.615 360.834 303.746 358.965 301.44 358.965C299.134 358.965 297.265 360.834 297.265 363.14C297.265 365.446 299.134 367.315 301.44 367.315Z" fill="#7FD1C8"/>
<path d="M167.81 367.315C170.116 367.315 171.985 365.446 171.985 363.14C171.985 360.834 170.116 358.965 167.81 358.965C165.504 358.965 163.635 360.834 163.635 363.14C163.635 365.446 165.504 367.315 167.81 367.315Z" fill="#7FD1C8"/>
<path d="M234.623 367.315C236.928 367.315 238.798 365.446 238.798 363.14C238.798 360.834 236.928 358.965 234.623 358.965C232.317 358.965 230.447 360.834 230.447 363.14C230.447 365.446 232.317 367.315 234.623 367.315Z" fill="#7FD1C8"/>
<path d="M100.993 367.315C103.299 367.315 105.168 365.446 105.168 363.14C105.168 360.834 103.299 358.965 100.993 358.965C98.6868 358.965 96.8176 360.834 96.8176 363.14C96.8176 365.446 98.6868 367.315 100.993 367.315Z" fill="#7FD1C8"/>
<path d="M501.893 367.315C504.199 367.315 506.068 365.446 506.068 363.14C506.068 360.834 504.199 358.965 501.893 358.965C499.587 358.965 497.718 360.834 497.718 363.14C497.718 365.446 499.587 367.315 501.893 367.315Z" fill="#7FD1C8"/>
<path d="M368.258 367.315C370.564 367.315 372.433 365.446 372.433 363.14C372.433 360.834 370.564 358.965 368.258 358.965C365.952 358.965 364.083 360.834 364.083 363.14C364.083 365.446 365.952 367.315 368.258 367.315Z" fill="#7FD1C8"/>
<path d="M435.075 367.315C437.381 367.315 439.25 365.446 439.25 363.14C439.25 360.834 437.381 358.965 435.075 358.965C432.769 358.965 430.9 360.834 430.9 363.14C430.9 365.446 432.769 367.315 435.075 367.315Z" fill="#7FD1C8"/>
<path d="M67.5884 403.866C69.8943 403.866 71.7636 401.997 71.7636 399.691C71.7636 397.385 69.8943 395.516 67.5884 395.516C65.2825 395.516 63.4133 397.385 63.4133 399.691C63.4133 401.997 65.2825 403.866 67.5884 403.866Z" fill="#7FD1C8"/>
<path d="M602.124 403.866C604.43 403.866 606.299 401.997 606.299 399.691C606.299 397.385 604.43 395.516 602.124 395.516C599.818 395.516 597.949 397.385 597.949 399.691C597.949 401.997 599.818 403.866 602.124 403.866Z" fill="#7FD1C8"/>
<path d="M334.857 403.88C337.17 403.88 339.046 402.005 339.046 399.691C339.046 397.377 337.17 395.502 334.857 395.502C332.543 395.502 330.667 397.377 330.667 399.691C330.667 402.005 332.543 403.88 334.857 403.88Z" fill="#7FD1C8"/>
<path d="M201.224 403.866C203.529 403.866 205.399 401.997 205.399 399.691C205.399 397.385 203.529 395.516 201.224 395.516C198.918 395.516 197.048 397.385 197.048 399.691C197.048 401.997 198.918 403.866 201.224 403.866Z" fill="#7FD1C8"/>
<path d="M268.039 403.866C270.345 403.866 272.215 401.997 272.215 399.691C272.215 397.385 270.345 395.516 268.039 395.516C265.734 395.516 263.864 397.385 263.864 399.691C263.864 401.997 265.734 403.866 268.039 403.866Z" fill="#7FD1C8"/>
<path d="M134.406 403.866C136.712 403.866 138.581 401.997 138.581 399.691C138.581 397.385 136.712 395.516 134.406 395.516C132.1 395.516 130.231 397.385 130.231 399.691C130.231 401.997 132.1 403.866 134.406 403.866Z" fill="#7FD1C8"/>
<path d="M535.306 403.866C537.612 403.866 539.481 401.997 539.481 399.691C539.481 397.385 537.612 395.516 535.306 395.516C533 395.516 531.131 397.385 531.131 399.691C531.131 401.997 533 403.866 535.306 403.866Z" fill="#7FD1C8"/>
<path d="M401.674 403.88C403.988 403.88 405.864 402.005 405.864 399.691C405.864 397.377 403.988 395.502 401.674 395.502C399.361 395.502 397.485 397.377 397.485 399.691C397.485 402.005 399.361 403.88 401.674 403.88Z" fill="#7FD1C8"/>
<path d="M468.489 403.866C470.794 403.866 472.664 401.997 472.664 399.691C472.664 397.385 470.794 395.516 468.489 395.516C466.183 395.516 464.313 397.385 464.313 399.691C464.313 401.997 466.183 403.866 468.489 403.866Z" fill="#7FD1C8"/>
<path d="M34.1895 403.866C36.4954 403.866 38.3647 401.997 38.3647 399.691C38.3647 397.385 36.4954 395.516 34.1895 395.516C31.8837 395.516 30.0144 397.385 30.0144 399.691C30.0144 401.997 31.8837 403.866 34.1895 403.866Z" fill="#7FD1C8"/>
<path d="M568.709 403.866C571.015 403.866 572.884 401.997 572.884 399.691C572.884 397.385 571.015 395.516 568.709 395.516C566.403 395.516 564.534 397.385 564.534 399.691C564.534 401.997 566.403 403.866 568.709 403.866Z" fill="#7FD1C8"/>
<path d="M301.44 403.866C303.746 403.866 305.615 401.997 305.615 399.691C305.615 397.385 303.746 395.516 301.44 395.516C299.134 395.516 297.265 397.385 297.265 399.691C297.265 401.997 299.134 403.866 301.44 403.866Z" fill="#7FD1C8"/>
<path d="M167.81 403.866C170.116 403.866 171.985 401.997 171.985 399.691C171.985 397.385 170.116 395.516 167.81 395.516C165.504 395.516 163.635 397.385 163.635 399.691C163.635 401.997 165.504 403.866 167.81 403.866Z" fill="#7FD1C8"/>
<path d="M234.623 403.866C236.928 403.866 238.798 401.997 238.798 399.691C238.798 397.385 236.928 395.516 234.623 395.516C232.317 395.516 230.447 397.385 230.447 399.691C230.447 401.997 232.317 403.866 234.623 403.866Z" fill="#7FD1C8"/>
<path d="M100.993 403.866C103.299 403.866 105.168 401.997 105.168 399.691C105.168 397.385 103.299 395.516 100.993 395.516C98.6868 395.516 96.8176 397.385 96.8176 399.691C96.8176 401.997 98.6868 403.866 100.993 403.866Z" fill="#7FD1C8"/>
<path d="M501.893 403.866C504.199 403.866 506.068 401.997 506.068 399.691C506.068 397.385 504.199 395.516 501.893 395.516C499.587 395.516 497.718 397.385 497.718 399.691C497.718 401.997 499.587 403.866 501.893 403.866Z" fill="#7FD1C8"/>
<path d="M368.258 403.866C370.564 403.866 372.433 401.997 372.433 399.691C372.433 397.385 370.564 395.516 368.258 395.516C365.952 395.516 364.083 397.385 364.083 399.691C364.083 401.997 365.952 403.866 368.258 403.866Z" fill="#7FD1C8"/>
<path d="M435.075 403.866C437.381 403.866 439.25 401.997 439.25 399.691C439.25 397.385 437.381 395.516 435.075 395.516C432.769 395.516 430.9 397.385 430.9 399.691C430.9 401.997 432.769 403.866 435.075 403.866Z" fill="#7FD1C8"/>
<path d="M67.5884 440.415C69.8943 440.415 71.7636 438.546 71.7636 436.24C71.7636 433.934 69.8943 432.065 67.5884 432.065C65.2825 432.065 63.4133 433.934 63.4133 436.24C63.4133 438.546 65.2825 440.415 67.5884 440.415Z" fill="#7FD1C8"/>
<path d="M602.122 440.433C604.435 440.433 606.311 438.557 606.311 436.243C606.311 433.93 604.435 432.054 602.122 432.054C599.808 432.054 597.932 433.93 597.932 436.243C597.932 438.557 599.808 440.433 602.122 440.433Z" fill="#7FD1C8"/>
<path d="M334.857 440.433C337.17 440.433 339.046 438.557 339.046 436.243C339.046 433.93 337.17 432.054 334.857 432.054C332.543 432.054 330.667 433.93 330.667 436.243C330.667 438.557 332.543 440.433 334.857 440.433Z" fill="#7FD1C8"/>
<path d="M201.224 440.415C203.529 440.415 205.399 438.546 205.399 436.24C205.399 433.934 203.529 432.065 201.224 432.065C198.918 432.065 197.048 433.934 197.048 436.24C197.048 438.546 198.918 440.415 201.224 440.415Z" fill="#7FD1C8"/>
<path d="M268.041 440.433C270.355 440.433 272.23 438.557 272.23 436.243C272.23 433.93 270.355 432.054 268.041 432.054C265.727 432.054 263.852 433.93 263.852 436.243C263.852 438.557 265.727 440.433 268.041 440.433Z" fill="#7FD1C8"/>
<path d="M134.406 440.415C136.712 440.415 138.581 438.546 138.581 436.24C138.581 433.934 136.712 432.065 134.406 432.065C132.1 432.065 130.231 433.934 130.231 436.24C130.231 438.546 132.1 440.415 134.406 440.415Z" fill="#7FD1C8"/>
<path d="M535.308 440.433C537.621 440.433 539.497 438.557 539.497 436.243C539.497 433.93 537.621 432.054 535.308 432.054C532.994 432.054 531.118 433.93 531.118 436.243C531.118 438.557 532.994 440.433 535.308 440.433Z" fill="#7FD1C8"/>
<path d="M401.674 440.433C403.988 440.433 405.864 438.557 405.864 436.243C405.864 433.93 403.988 432.054 401.674 432.054C399.361 432.054 397.485 433.93 397.485 436.243C397.485 438.557 399.361 440.433 401.674 440.433Z" fill="#7FD1C8"/>
<path d="M468.488 440.433C470.802 440.433 472.677 438.557 472.677 436.243C472.677 433.93 470.802 432.054 468.488 432.054C466.175 432.054 464.299 433.93 464.299 436.243C464.299 438.557 466.175 440.433 468.488 440.433Z" fill="#7FD1C8"/>
<path d="M34.1892 440.433C36.5029 440.433 38.3784 438.557 38.3784 436.243C38.3784 433.93 36.5029 432.054 34.1892 432.054C31.8756 432.054 30 433.93 30 436.243C30 438.557 31.8756 440.433 34.1892 440.433Z" fill="#7FD1C8"/>
<path d="M568.708 440.433C571.022 440.433 572.898 438.557 572.898 436.243C572.898 433.93 571.022 432.054 568.708 432.054C566.395 432.054 564.519 433.93 564.519 436.243C564.519 438.557 566.395 440.433 568.708 440.433Z" fill="#7FD1C8"/>
<path d="M301.44 440.433C303.753 440.433 305.629 438.557 305.629 436.243C305.629 433.93 303.753 432.054 301.44 432.054C299.126 432.054 297.251 433.93 297.251 436.243C297.251 438.557 299.126 440.433 301.44 440.433Z" fill="#7FD1C8"/>
<path d="M167.81 440.415C170.116 440.415 171.985 438.546 171.985 436.24C171.985 433.934 170.116 432.065 167.81 432.065C165.504 432.065 163.635 433.934 163.635 436.24C163.635 438.546 165.504 440.415 167.81 440.415Z" fill="#7FD1C8"/>
<path d="M234.623 440.415C236.928 440.415 238.798 438.546 238.798 436.24C238.798 433.934 236.928 432.065 234.623 432.065C232.317 432.065 230.447 433.934 230.447 436.24C230.447 438.546 232.317 440.415 234.623 440.415Z" fill="#7FD1C8"/>
<path d="M100.991 440.433C103.304 440.433 105.18 438.557 105.18 436.243C105.18 433.93 103.304 432.054 100.991 432.054C98.677 432.054 96.8014 433.93 96.8014 436.243C96.8014 438.557 98.677 440.433 100.991 440.433Z" fill="#7FD1C8"/>
<path d="M501.891 440.433C504.204 440.433 506.08 438.557 506.08 436.243C506.08 433.93 504.204 432.054 501.891 432.054C499.577 432.054 497.702 433.93 497.702 436.243C497.702 438.557 499.577 440.433 501.891 440.433Z" fill="#7FD1C8"/>
<path d="M368.259 440.433C370.573 440.433 372.448 438.557 372.448 436.243C372.448 433.93 370.573 432.054 368.259 432.054C365.946 432.054 364.07 433.93 364.07 436.243C364.07 438.557 365.946 440.433 368.259 440.433Z" fill="#7FD1C8"/>
<path d="M435.073 440.433C437.387 440.433 439.262 438.557 439.262 436.243C439.262 433.93 437.387 432.054 435.073 432.054C432.76 432.054 430.884 433.93 430.884 436.243C430.884 438.557 432.76 440.433 435.073 440.433Z" fill="#7FD1C8"/>
<path d="M67.5884 476.968C69.8943 476.968 71.7636 475.099 71.7636 472.793C71.7636 470.487 69.8943 468.618 67.5884 468.618C65.2825 468.618 63.4133 470.487 63.4133 472.793C63.4133 475.099 65.2825 476.968 67.5884 476.968Z" fill="#7FD1C8"/>
<path d="M602.122 476.982C604.435 476.982 606.311 475.106 606.311 472.792C606.311 470.479 604.435 468.603 602.122 468.603C599.808 468.603 597.932 470.479 597.932 472.792C597.932 475.106 599.808 476.982 602.122 476.982Z" fill="#7FD1C8"/>
<path d="M334.857 476.982C337.17 476.982 339.046 475.106 339.046 472.792C339.046 470.479 337.17 468.603 334.857 468.603C332.543 468.603 330.667 470.479 330.667 472.792C330.667 475.106 332.543 476.982 334.857 476.982Z" fill="#7FD1C8"/>
<path d="M201.224 476.968C203.529 476.968 205.399 475.099 205.399 472.793C205.399 470.487 203.529 468.618 201.224 468.618C198.918 468.618 197.048 470.487 197.048 472.793C197.048 475.099 198.918 476.968 201.224 476.968Z" fill="#7FD1C8"/>
<path d="M268.041 476.982C270.355 476.982 272.23 475.106 272.23 472.792C272.23 470.479 270.355 468.603 268.041 468.603C265.727 468.603 263.852 470.479 263.852 472.792C263.852 475.106 265.727 476.982 268.041 476.982Z" fill="#7FD1C8"/>
<path d="M134.406 476.968C136.712 476.968 138.581 475.099 138.581 472.793C138.581 470.487 136.712 468.618 134.406 468.618C132.1 468.618 130.231 470.487 130.231 472.793C130.231 475.099 132.1 476.968 134.406 476.968Z" fill="#7FD1C8"/>
<path d="M535.308 476.982C537.621 476.982 539.497 475.106 539.497 472.792C539.497 470.479 537.621 468.603 535.308 468.603C532.994 468.603 531.118 470.479 531.118 472.792C531.118 475.106 532.994 476.982 535.308 476.982Z" fill="#7FD1C8"/>
<path d="M401.674 476.982C403.988 476.982 405.864 475.106 405.864 472.792C405.864 470.479 403.988 468.603 401.674 468.603C399.361 468.603 397.485 470.479 397.485 472.792C397.485 475.106 399.361 476.982 401.674 476.982Z" fill="#7FD1C8"/>
<path d="M468.488 476.982C470.802 476.982 472.677 475.106 472.677 472.792C472.677 470.479 470.802 468.603 468.488 468.603C466.175 468.603 464.299 470.479 464.299 472.792C464.299 475.106 466.175 476.982 468.488 476.982Z" fill="#7FD1C8"/>
<path d="M34.1892 476.982C36.5029 476.982 38.3784 475.106 38.3784 472.792C38.3784 470.479 36.5029 468.603 34.1892 468.603C31.8756 468.603 30 470.479 30 472.792C30 475.106 31.8756 476.982 34.1892 476.982Z" fill="#7FD1C8"/>
<path d="M568.708 476.982C571.022 476.982 572.898 475.106 572.898 472.792C572.898 470.479 571.022 468.603 568.708 468.603C566.395 468.603 564.519 470.479 564.519 472.792C564.519 475.106 566.395 476.982 568.708 476.982Z" fill="#7FD1C8"/>
<path d="M301.44 476.982C303.753 476.982 305.629 475.106 305.629 472.792C305.629 470.479 303.753 468.603 301.44 468.603C299.126 468.603 297.251 470.479 297.251 472.792C297.251 475.106 299.126 476.982 301.44 476.982Z" fill="#7FD1C8"/>
<path d="M167.81 476.968C170.116 476.968 171.985 475.099 171.985 472.793C171.985 470.487 170.116 468.618 167.81 468.618C165.504 468.618 163.635 470.487 163.635 472.793C163.635 475.099 165.504 476.968 167.81 476.968Z" fill="#7FD1C8"/>
<path d="M234.623 476.968C236.928 476.968 238.798 475.099 238.798 472.793C238.798 470.487 236.928 468.618 234.623 468.618C232.317 468.618 230.447 470.487 230.447 472.793C230.447 475.099 232.317 476.968 234.623 476.968Z" fill="#7FD1C8"/>
<path d="M100.991 476.982C103.304 476.982 105.18 475.106 105.18 472.792C105.18 470.479 103.304 468.603 100.991 468.603C98.677 468.603 96.8014 470.479 96.8014 472.792C96.8014 475.106 98.677 476.982 100.991 476.982Z" fill="#7FD1C8"/>
<path d="M501.891 476.982C504.204 476.982 506.08 475.106 506.08 472.792C506.08 470.479 504.204 468.603 501.891 468.603C499.577 468.603 497.702 470.479 497.702 472.792C497.702 475.106 499.577 476.982 501.891 476.982Z" fill="#7FD1C8"/>
<path d="M368.259 476.982C370.573 476.982 372.448 475.106 372.448 472.792C372.448 470.479 370.573 468.603 368.259 468.603C365.946 468.603 364.07 470.479 364.07 472.792C364.07 475.106 365.946 476.982 368.259 476.982Z" fill="#7FD1C8"/>
<path d="M435.073 476.982C437.387 476.982 439.262 475.106 439.262 472.792C439.262 470.479 437.387 468.603 435.073 468.603C432.76 468.603 430.884 470.479 430.884 472.792C430.884 475.106 432.76 476.982 435.073 476.982Z" fill="#7FD1C8"/>
<path d="M67.5884 513.515C69.8943 513.515 71.7636 511.646 71.7636 509.34C71.7636 507.034 69.8943 505.165 67.5884 505.165C65.2825 505.165 63.4133 507.034 63.4133 509.34C63.4133 511.646 65.2825 513.515 67.5884 513.515Z" fill="#7FD1C8"/>
<path d="M602.122 513.529C604.435 513.529 606.311 511.653 606.311 509.34C606.311 507.026 604.435 505.151 602.122 505.151C599.808 505.151 597.932 507.026 597.932 509.34C597.932 511.653 599.808 513.529 602.122 513.529Z" fill="#7FD1C8"/>
<path d="M334.857 513.529C337.17 513.529 339.046 511.653 339.046 509.34C339.046 507.026 337.17 505.151 334.857 505.151C332.543 505.151 330.667 507.026 330.667 509.34C330.667 511.653 332.543 513.529 334.857 513.529Z" fill="#7FD1C8"/>
<path d="M201.224 513.515C203.529 513.515 205.399 511.646 205.399 509.34C205.399 507.034 203.529 505.165 201.224 505.165C198.918 505.165 197.048 507.034 197.048 509.34C197.048 511.646 198.918 513.515 201.224 513.515Z" fill="#7FD1C8"/>
<path d="M268.041 513.529C270.355 513.529 272.23 511.653 272.23 509.34C272.23 507.026 270.355 505.151 268.041 505.151C265.727 505.151 263.852 507.026 263.852 509.34C263.852 511.653 265.727 513.529 268.041 513.529Z" fill="#7FD1C8"/>
<path d="M134.406 513.515C136.712 513.515 138.581 511.646 138.581 509.34C138.581 507.034 136.712 505.165 134.406 505.165C132.1 505.165 130.231 507.034 130.231 509.34C130.231 511.646 132.1 513.515 134.406 513.515Z" fill="#7FD1C8"/>
<path d="M535.308 513.529C537.621 513.529 539.497 511.653 539.497 509.34C539.497 507.026 537.621 505.151 535.308 505.151C532.994 505.151 531.118 507.026 531.118 509.34C531.118 511.653 532.994 513.529 535.308 513.529Z" fill="#7FD1C8"/>
<path d="M401.674 513.529C403.988 513.529 405.864 511.653 405.864 509.34C405.864 507.026 403.988 505.151 401.674 505.151C399.361 505.151 397.485 507.026 397.485 509.34C397.485 511.653 399.361 513.529 401.674 513.529Z" fill="#7FD1C8"/>
<path d="M468.488 513.529C470.802 513.529 472.677 511.653 472.677 509.34C472.677 507.026 470.802 505.151 468.488 505.151C466.175 505.151 464.299 507.026 464.299 509.34C464.299 511.653 466.175 513.529 468.488 513.529Z" fill="#7FD1C8"/>
<path d="M34.1892 513.529C36.5029 513.529 38.3784 511.653 38.3784 509.34C38.3784 507.026 36.5029 505.151 34.1892 505.151C31.8756 505.151 30 507.026 30 509.34C30 511.653 31.8756 513.529 34.1892 513.529Z" fill="#7FD1C8"/>
<path d="M568.708 513.529C571.022 513.529 572.898 511.653 572.898 509.34C572.898 507.026 571.022 505.151 568.708 505.151C566.395 505.151 564.519 507.026 564.519 509.34C564.519 511.653 566.395 513.529 568.708 513.529Z" fill="#7FD1C8"/>
<path d="M301.44 513.529C303.753 513.529 305.629 511.653 305.629 509.34C305.629 507.026 303.753 505.151 301.44 505.151C299.126 505.151 297.251 507.026 297.251 509.34C297.251 511.653 299.126 513.529 301.44 513.529Z" fill="#7FD1C8"/>
<path d="M167.81 513.515C170.116 513.515 171.985 511.646 171.985 509.34C171.985 507.034 170.116 505.165 167.81 505.165C165.504 505.165 163.635 507.034 163.635 509.34C163.635 511.646 165.504 513.515 167.81 513.515Z" fill="#7FD1C8"/>
<path d="M234.623 513.515C236.928 513.515 238.798 511.646 238.798 509.34C238.798 507.034 236.928 505.165 234.623 505.165C232.317 505.165 230.447 507.034 230.447 509.34C230.447 511.646 232.317 513.515 234.623 513.515Z" fill="#7FD1C8"/>
<path d="M100.991 513.529C103.304 513.529 105.18 511.653 105.18 509.34C105.18 507.026 103.304 505.151 100.991 505.151C98.677 505.151 96.8014 507.026 96.8014 509.34C96.8014 511.653 98.677 513.529 100.991 513.529Z" fill="#7FD1C8"/>
<path d="M501.891 513.529C504.204 513.529 506.08 511.653 506.08 509.34C506.08 507.026 504.204 505.151 501.891 505.151C499.577 505.151 497.702 507.026 497.702 509.34C497.702 511.653 499.577 513.529 501.891 513.529Z" fill="#7FD1C8"/>
<path d="M368.259 513.529C370.573 513.529 372.448 511.653 372.448 509.34C372.448 507.026 370.573 505.151 368.259 505.151C365.946 505.151 364.07 507.026 364.07 509.34C364.07 511.653 365.946 513.529 368.259 513.529Z" fill="#7FD1C8"/>
<path d="M435.073 513.529C437.387 513.529 439.262 511.653 439.262 509.34C439.262 507.026 437.387 505.151 435.073 505.151C432.76 505.151 430.884 507.026 430.884 509.34C430.884 511.653 432.76 513.529 435.073 513.529Z" fill="#7FD1C8"/>
<path d="M67.5884 550.066C69.8943 550.066 71.7636 548.197 71.7636 545.891C71.7636 543.585 69.8943 541.716 67.5884 541.716C65.2825 541.716 63.4133 543.585 63.4133 545.891C63.4133 548.197 65.2825 550.066 67.5884 550.066Z" fill="#7FD1C8"/>
<path d="M602.122 550.082C604.435 550.082 606.311 548.206 606.311 545.893C606.311 543.579 604.435 541.703 602.122 541.703C599.808 541.703 597.932 543.579 597.932 545.893C597.932 548.206 599.808 550.082 602.122 550.082Z" fill="#7FD1C8"/>
<path d="M334.857 550.082C337.17 550.082 339.046 548.206 339.046 545.893C339.046 543.579 337.17 541.703 334.857 541.703C332.543 541.703 330.667 543.579 330.667 545.893C330.667 548.206 332.543 550.082 334.857 550.082Z" fill="#7FD1C8"/>
<path d="M201.224 550.066C203.529 550.066 205.399 548.197 205.399 545.891C205.399 543.585 203.529 541.716 201.224 541.716C198.918 541.716 197.048 543.585 197.048 545.891C197.048 548.197 198.918 550.066 201.224 550.066Z" fill="#7FD1C8"/>
<path d="M268.041 550.082C270.355 550.082 272.23 548.206 272.23 545.893C272.23 543.579 270.355 541.703 268.041 541.703C265.727 541.703 263.852 543.579 263.852 545.893C263.852 548.206 265.727 550.082 268.041 550.082Z" fill="#7FD1C8"/>
<path d="M134.406 550.066C136.712 550.066 138.581 548.197 138.581 545.891C138.581 543.585 136.712 541.716 134.406 541.716C132.1 541.716 130.231 543.585 130.231 545.891C130.231 548.197 132.1 550.066 134.406 550.066Z" fill="#7FD1C8"/>
<path d="M535.308 550.082C537.621 550.082 539.497 548.206 539.497 545.893C539.497 543.579 537.621 541.703 535.308 541.703C532.994 541.703 531.118 543.579 531.118 545.893C531.118 548.206 532.994 550.082 535.308 550.082Z" fill="#7FD1C8"/>
<path d="M401.674 550.082C403.988 550.082 405.864 548.206 405.864 545.893C405.864 543.579 403.988 541.703 401.674 541.703C399.361 541.703 397.485 543.579 397.485 545.893C397.485 548.206 399.361 550.082 401.674 550.082Z" fill="#7FD1C8"/>
<path d="M468.488 550.082C470.802 550.082 472.677 548.206 472.677 545.893C472.677 543.579 470.802 541.703 468.488 541.703C466.175 541.703 464.299 543.579 464.299 545.893C464.299 548.206 466.175 550.082 468.488 550.082Z" fill="#7FD1C8"/>
<path d="M34.1892 550.082C36.5029 550.082 38.3784 548.206 38.3784 545.893C38.3784 543.579 36.5029 541.703 34.1892 541.703C31.8756 541.703 30 543.579 30 545.893C30 548.206 31.8756 550.082 34.1892 550.082Z" fill="#7FD1C8"/>
<path d="M568.708 550.082C571.022 550.082 572.898 548.206 572.898 545.893C572.898 543.579 571.022 541.703 568.708 541.703C566.395 541.703 564.519 543.579 564.519 545.893C564.519 548.206 566.395 550.082 568.708 550.082Z" fill="#7FD1C8"/>
<path d="M301.44 550.082C303.753 550.082 305.629 548.206 305.629 545.893C305.629 543.579 303.753 541.703 301.44 541.703C299.126 541.703 297.251 543.579 297.251 545.893C297.251 548.206 299.126 550.082 301.44 550.082Z" fill="#7FD1C8"/>
<path d="M167.81 550.066C170.116 550.066 171.985 548.197 171.985 545.891C171.985 543.585 170.116 541.716 167.81 541.716C165.504 541.716 163.635 543.585 163.635 545.891C163.635 548.197 165.504 550.066 167.81 550.066Z" fill="#7FD1C8"/>
<path d="M234.623 550.066C236.928 550.066 238.798 548.197 238.798 545.891C238.798 543.585 236.928 541.716 234.623 541.716C232.317 541.716 230.447 543.585 230.447 545.891C230.447 548.197 232.317 550.066 234.623 550.066Z" fill="#7FD1C8"/>
<path d="M100.991 550.082C103.304 550.082 105.18 548.206 105.18 545.893C105.18 543.579 103.304 541.703 100.991 541.703C98.677 541.703 96.8014 543.579 96.8014 545.893C96.8014 548.206 98.677 550.082 100.991 550.082Z" fill="#7FD1C8"/>
<path d="M501.891 550.082C504.204 550.082 506.08 548.206 506.08 545.893C506.08 543.579 504.204 541.703 501.891 541.703C499.577 541.703 497.702 543.579 497.702 545.893C497.702 548.206 499.577 550.082 501.891 550.082Z" fill="#7FD1C8"/>
<path d="M368.259 550.082C370.573 550.082 372.448 548.206 372.448 545.893C372.448 543.579 370.573 541.703 368.259 541.703C365.946 541.703 364.07 543.579 364.07 545.893C364.07 548.206 365.946 550.082 368.259 550.082Z" fill="#7FD1C8"/>
<path d="M435.073 550.082C437.387 550.082 439.262 548.206 439.262 545.893C439.262 543.579 437.387 541.703 435.073 541.703C432.76 541.703 430.884 543.579 430.884 545.893C430.884 548.206 432.76 550.082 435.073 550.082Z" fill="#7FD1C8"/>
<path d="M67.5884 586.617C69.8943 586.617 71.7636 584.748 71.7636 582.442C71.7636 580.136 69.8943 578.267 67.5884 578.267C65.2825 578.267 63.4133 580.136 63.4133 582.442C63.4133 584.748 65.2825 586.617 67.5884 586.617Z" fill="#7FD1C8"/>
<path d="M602.122 586.631C604.435 586.631 606.311 584.755 606.311 582.442C606.311 580.128 604.435 578.252 602.122 578.252C599.808 578.252 597.932 580.128 597.932 582.442C597.932 584.755 599.808 586.631 602.122 586.631Z" fill="#7FD1C8"/>
<path d="M334.857 586.631C337.17 586.631 339.046 584.755 339.046 582.442C339.046 580.128 337.17 578.252 334.857 578.252C332.543 578.252 330.667 580.128 330.667 582.442C330.667 584.755 332.543 586.631 334.857 586.631Z" fill="#7FD1C8"/>
<path d="M201.224 586.617C203.529 586.617 205.399 584.748 205.399 582.442C205.399 580.136 203.529 578.267 201.224 578.267C198.918 578.267 197.048 580.136 197.048 582.442C197.048 584.748 198.918 586.617 201.224 586.617Z" fill="#7FD1C8"/>
<path d="M268.041 586.631C270.355 586.631 272.23 584.755 272.23 582.442C272.23 580.128 270.355 578.252 268.041 578.252C265.727 578.252 263.852 580.128 263.852 582.442C263.852 584.755 265.727 586.631 268.041 586.631Z" fill="#7FD1C8"/>
<path d="M134.406 586.617C136.712 586.617 138.581 584.748 138.581 582.442C138.581 580.136 136.712 578.267 134.406 578.267C132.1 578.267 130.231 580.136 130.231 582.442C130.231 584.748 132.1 586.617 134.406 586.617Z" fill="#7FD1C8"/>
<path d="M535.308 586.631C537.621 586.631 539.497 584.755 539.497 582.442C539.497 580.128 537.621 578.252 535.308 578.252C532.994 578.252 531.118 580.128 531.118 582.442C531.118 584.755 532.994 586.631 535.308 586.631Z" fill="#7FD1C8"/>
<path d="M401.674 586.631C403.988 586.631 405.864 584.755 405.864 582.442C405.864 580.128 403.988 578.252 401.674 578.252C399.361 578.252 397.485 580.128 397.485 582.442C397.485 584.755 399.361 586.631 401.674 586.631Z" fill="#7FD1C8"/>
<path d="M468.488 586.631C470.802 586.631 472.677 584.755 472.677 582.442C472.677 580.128 470.802 578.252 468.488 578.252C466.175 578.252 464.299 580.128 464.299 582.442C464.299 584.755 466.175 586.631 468.488 586.631Z" fill="#7FD1C8"/>
<path d="M34.1892 586.631C36.5029 586.631 38.3784 584.755 38.3784 582.442C38.3784 580.128 36.5029 578.252 34.1892 578.252C31.8756 578.252 30 580.128 30 582.442C30 584.755 31.8756 586.631 34.1892 586.631Z" fill="#7FD1C8"/>
<path d="M568.708 586.631C571.022 586.631 572.898 584.755 572.898 582.442C572.898 580.128 571.022 578.252 568.708 578.252C566.395 578.252 564.519 580.128 564.519 582.442C564.519 584.755 566.395 586.631 568.708 586.631Z" fill="#7FD1C8"/>
<path d="M301.44 586.631C303.753 586.631 305.629 584.755 305.629 582.442C305.629 580.128 303.753 578.252 301.44 578.252C299.126 578.252 297.251 580.128 297.251 582.442C297.251 584.755 299.126 586.631 301.44 586.631Z" fill="#7FD1C8"/>
<path d="M167.81 586.617C170.116 586.617 171.985 584.748 171.985 582.442C171.985 580.136 170.116 578.267 167.81 578.267C165.504 578.267 163.635 580.136 163.635 582.442C163.635 584.748 165.504 586.617 167.81 586.617Z" fill="#7FD1C8"/>
<path d="M234.623 586.617C236.928 586.617 238.798 584.748 238.798 582.442C238.798 580.136 236.928 578.267 234.623 578.267C232.317 578.267 230.447 580.136 230.447 582.442C230.447 584.748 232.317 586.617 234.623 586.617Z" fill="#7FD1C8"/>
<path d="M100.991 586.631C103.304 586.631 105.18 584.755 105.18 582.442C105.18 580.128 103.304 578.252 100.991 578.252C98.677 578.252 96.8014 580.128 96.8014 582.442C96.8014 584.755 98.677 586.631 100.991 586.631Z" fill="#7FD1C8"/>
<path d="M501.891 586.631C504.204 586.631 506.08 584.755 506.08 582.442C506.08 580.128 504.204 578.252 501.891 578.252C499.577 578.252 497.702 580.128 497.702 582.442C497.702 584.755 499.577 586.631 501.891 586.631Z" fill="#7FD1C8"/>
<path d="M368.259 586.631C370.573 586.631 372.448 584.755 372.448 582.442C372.448 580.128 370.573 578.252 368.259 578.252C365.946 578.252 364.07 580.128 364.07 582.442C364.07 584.755 365.946 586.631 368.259 586.631Z" fill="#7FD1C8"/>
<path d="M435.073 586.631C437.387 586.631 439.262 584.755 439.262 582.442C439.262 580.128 437.387 578.252 435.073 578.252C432.76 578.252 430.884 580.128 430.884 582.442C430.884 584.755 432.76 586.631 435.073 586.631Z" fill="#7FD1C8"/>
<rect x="301.31" y="112.947" width="313.69" height="571.438" rx="8" fill="white" stroke="#1B1B1B" stroke-width="4"/>
<circle cx="359.252" cy="170.888" r="29.9707" fill="#1B1B1B"/>
<rect x="329.281" y="224.836" width="187.317" height="14.9854" rx="1" fill="#3F3F3D"/>
<rect x="329.281" y="248.812" width="257.748" height="14.9854" rx="1" fill="#3F3F3D"/>
<rect x="329.281" y="428.637" width="257.748" height="101.9" rx="2" fill="#3F3F3D"/>
<rect x="425.188" y="460.106" width="137.865" height="14.9854" rx="1" fill="white" fill-opacity="0.8"/>
<rect x="425.188" y="484.083" width="137.865" height="14.9854" rx="1" fill="white" fill-opacity="0.8"/>
<circle cx="383.229" cy="479.587" r="29.9707" fill="white" fill-opacity="0.8"/>
<rect x="329.281" y="302.76" width="257.748" height="101.9" rx="2" fill="#3F3F3D"/>
<rect x="425.188" y="334.229" width="137.865" height="14.9854" rx="1" fill="white" fill-opacity="0.8"/>
<rect x="425.188" y="358.206" width="137.865" height="14.9854" rx="1" fill="white" fill-opacity="0.8"/>
<circle cx="383.229" cy="353.71" r="29.9707" fill="white" fill-opacity="0.8"/>
<rect x="329.281" y="554.514" width="257.748" height="101.9" rx="2" fill="#3F3F3D"/>
<rect x="425.188" y="585.983" width="137.865" height="14.9854" rx="1" fill="white" fill-opacity="0.8"/>
<rect x="425.188" y="609.959" width="137.865" height="14.9854" rx="1" fill="white" fill-opacity="0.8"/>
<circle cx="383.229" cy="605.464" r="29.9707" fill="white" fill-opacity="0.8"/>
<rect x="171.5" y="41.5" width="316.69" height="574.438" rx="9.5" fill="#3F3F3D" stroke="#1B1B1B"/>
<circle cx="230.942" cy="100.941" r="29.9707" fill="white" fill-opacity="0.6"/>
<rect x="200.971" y="154.889" width="187.317" height="14.9854" rx="1" fill="white" fill-opacity="0.6"/>
<rect x="200.971" y="178.865" width="257.748" height="14.9854" rx="1" fill="white" fill-opacity="0.6"/>
<rect x="200.971" y="358.689" width="257.748" height="101.9" rx="2" fill="#8E8E8D"/>
<rect x="296.877" y="390.159" width="137.865" height="14.9854" rx="1" fill="white" fill-opacity="0.8"/>
<rect x="296.877" y="414.135" width="137.865" height="14.9854" rx="1" fill="white" fill-opacity="0.8"/>
<circle cx="254.918" cy="409.64" r="29.9707" fill="white" fill-opacity="0.8"/>
<rect x="200.971" y="232.812" width="257.748" height="101.9" rx="2" fill="#8E8E8D"/>
<rect x="296.877" y="264.282" width="137.865" height="14.9854" rx="1" fill="white" fill-opacity="0.8"/>
<rect x="296.877" y="288.258" width="137.865" height="14.9854" rx="1" fill="white" fill-opacity="0.8"/>
<circle cx="254.918" cy="283.763" r="29.9707" fill="white" fill-opacity="0.8"/>
<rect x="200.971" y="484.567" width="257.748" height="101.9" rx="2" fill="#8E8E8D"/>
<rect x="296.877" y="516.036" width="137.865" height="14.9854" rx="1" fill="white" fill-opacity="0.8"/>
<rect x="296.877" y="540.012" width="137.865" height="14.9854" rx="1" fill="white" fill-opacity="0.8"/>
<circle cx="254.918" cy="535.517" r="29.9707" fill="white" fill-opacity="0.8"/>
<g filter="url(#filter0_dd_204_418)">
<rect width="59.4571" height="59.4571" rx="12" transform="matrix(0.866044 -0.499967 0.866044 0.499967 31 213.633)" fill="#089181"/>
</g>
<g filter="url(#filter1_dd_204_418)">
<rect width="59.4571" height="59.4571" rx="12" transform="matrix(0.866044 -0.499967 0.866044 0.499967 31 170.18)" fill="#58BCB0"/>
</g>
<g filter="url(#filter2_dd_204_418)">
<rect width="59.4571" height="59.4571" rx="12" transform="matrix(0.866044 -0.499967 0.866044 0.499967 31 126.727)" fill="#A7E7DF"/>
</g>
<defs>
<filter id="filter0_dd_204_418" x="25.0878" y="183.421" width="114.809" height="76.4243" filterUnits="userSpaceOnUse" color-interpolation-filters="sRGB">
<feFlood flood-opacity="0" result="BackgroundImageFix"/>
<feColorMatrix in="SourceAlpha" type="matrix" values="0 0 0 0 0 0 0 0 0 0 0 0 0 0 0 0 0 0 127 0" result="hardAlpha"/>
<feOffset dy="8"/>
<feGaussianBlur stdDeviation="6"/>
<feColorMatrix type="matrix" values="0 0 0 0 0.0352941 0 0 0 0 0.117647 0 0 0 0 0.258824 0 0 0 0.15 0"/>
<feBlend mode="normal" in2="BackgroundImageFix" result="effect1_dropShadow_204_418"/>
<feColorMatrix in="SourceAlpha" type="matrix" values="0 0 0 0 0 0 0 0 0 0 0 0 0 0 0 0 0 0 127 0" result="hardAlpha"/>
<feOffset/>
<feGaussianBlur stdDeviation="0.5"/>
<feColorMatrix type="matrix" values="0 0 0 0 0.0352941 0 0 0 0 0.117647 0 0 0 0 0.258824 0 0 0 0.31 0"/>
<feBlend mode="normal" in2="effect1_dropShadow_204_418" result="effect2_dropShadow_204_418"/>
<feBlend mode="normal" in="SourceGraphic" in2="effect2_dropShadow_204_418" result="shape"/>
</filter>
<filter id="filter1_dd_204_418" x="25.0878" y="139.968" width="114.809" height="76.4243" filterUnits="userSpaceOnUse" color-interpolation-filters="sRGB">
<feFlood flood-opacity="0" result="BackgroundImageFix"/>
<feColorMatrix in="SourceAlpha" type="matrix" values="0 0 0 0 0 0 0 0 0 0 0 0 0 0 0 0 0 0 127 0" result="hardAlpha"/>
<feOffset dy="8"/>
<feGaussianBlur stdDeviation="6"/>
<feColorMatrix type="matrix" values="0 0 0 0 0.0352941 0 0 0 0 0.117647 0 0 0 0 0.258824 0 0 0 0.15 0"/>
<feBlend mode="normal" in2="BackgroundImageFix" result="effect1_dropShadow_204_418"/>
<feColorMatrix in="SourceAlpha" type="matrix" values="0 0 0 0 0 0 0 0 0 0 0 0 0 0 0 0 0 0 127 0" result="hardAlpha"/>
<feOffset/>
<feGaussianBlur stdDeviation="0.5"/>
<feColorMatrix type="matrix" values="0 0 0 0 0.0352941 0 0 0 0 0.117647 0 0 0 0 0.258824 0 0 0 0.31 0"/>
<feBlend mode="normal" in2="effect1_dropShadow_204_418" result="effect2_dropShadow_204_418"/>
<feBlend mode="normal" in="SourceGraphic" in2="effect2_dropShadow_204_418" result="shape"/>
</filter>
<filter id="filter2_dd_204_418" x="25.0878" y="96.5144" width="114.809" height="76.4243" filterUnits="userSpaceOnUse" color-interpolation-filters="sRGB">
<feFlood flood-opacity="0" result="BackgroundImageFix"/>
<feColorMatrix in="SourceAlpha" type="matrix" values="0 0 0 0 0 0 0 0 0 0 0 0 0 0 0 0 0 0 127 0" result="hardAlpha"/>
<feOffset dy="8"/>
<feGaussianBlur stdDeviation="6"/>
<feColorMatrix type="matrix" values="0 0 0 0 0.0352941 0 0 0 0 0.117647 0 0 0 0 0.258824 0 0 0 0.15 0"/>
<feBlend mode="normal" in2="BackgroundImageFix" result="effect1_dropShadow_204_418"/>
<feColorMatrix in="SourceAlpha" type="matrix" values="0 0 0 0 0 0 0 0 0 0 0 0 0 0 0 0 0 0 127 0" result="hardAlpha"/>
<feOffset/>
<feGaussianBlur stdDeviation="0.5"/>
<feColorMatrix type="matrix" values="0 0 0 0 0.0352941 0 0 0 0 0.117647 0 0 0 0 0.258824 0 0 0 0.31 0"/>
<feBlend mode="normal" in2="effect1_dropShadow_204_418" result="effect2_dropShadow_204_418"/>
<feBlend mode="normal" in="SourceGraphic" in2="effect2_dropShadow_204_418" result="shape"/>
</filter>
</defs>
</svg>
