<svg width="832" height="740" viewBox="0 0 832 740" fill="none" xmlns="http://www.w3.org/2000/svg">
<path d="M101.469 54.3647C103.775 54.3647 105.644 52.4954 105.644 50.1896C105.644 47.8837 103.775 46.0144 101.469 46.0144C99.1633 46.0144 97.294 47.8837 97.294 50.1896C97.294 52.4954 99.1633 54.3647 101.469 54.3647Z" fill="#7FD1C8"/>
<path d="M636.004 54.3647C638.31 54.3647 640.18 52.4954 640.18 50.1896C640.18 47.8837 638.31 46.0144 636.004 46.0144C633.699 46.0144 631.829 47.8837 631.829 50.1896C631.829 52.4954 633.699 54.3647 636.004 54.3647Z" fill="#7FD1C8"/>
<path d="M368.737 54.3784C371.051 54.3784 372.927 52.5029 372.927 50.1892C372.927 47.8756 371.051 46 368.737 46C366.424 46 364.548 47.8756 364.548 50.1892C364.548 52.5029 366.424 54.3784 368.737 54.3784Z" fill="#7FD1C8"/>
<path d="M235.104 54.3647C237.41 54.3647 239.28 52.4954 239.28 50.1896C239.28 47.8837 237.41 46.0144 235.104 46.0144C232.798 46.0144 230.929 47.8837 230.929 50.1896C230.929 52.4954 232.798 54.3647 235.104 54.3647Z" fill="#7FD1C8"/>
<path d="M301.92 54.3647C304.226 54.3647 306.095 52.4954 306.095 50.1896C306.095 47.8837 304.226 46.0144 301.92 46.0144C299.614 46.0144 297.745 47.8837 297.745 50.1896C297.745 52.4954 299.614 54.3647 301.92 54.3647Z" fill="#7FD1C8"/>
<path d="M168.287 54.3647C170.593 54.3647 172.462 52.4954 172.462 50.1896C172.462 47.8837 170.593 46.0144 168.287 46.0144C165.981 46.0144 164.112 47.8837 164.112 50.1896C164.112 52.4954 165.981 54.3647 168.287 54.3647Z" fill="#7FD1C8"/>
<path d="M569.187 54.3647C571.493 54.3647 573.362 52.4954 573.362 50.1896C573.362 47.8837 571.493 46.0144 569.187 46.0144C566.881 46.0144 565.012 47.8837 565.012 50.1896C565.012 52.4954 566.881 54.3647 569.187 54.3647Z" fill="#7FD1C8"/>
<path d="M435.555 54.3784C437.869 54.3784 439.744 52.5029 439.744 50.1892C439.744 47.8756 437.869 46 435.555 46C433.241 46 431.366 47.8756 431.366 50.1892C431.366 52.5029 433.241 54.3784 435.555 54.3784Z" fill="#7FD1C8"/>
<path d="M502.369 54.3647C504.675 54.3647 506.544 52.4954 506.544 50.1896C506.544 47.8837 504.675 46.0144 502.369 46.0144C500.063 46.0144 498.194 47.8837 498.194 50.1896C498.194 52.4954 500.063 54.3647 502.369 54.3647Z" fill="#7FD1C8"/>
<path d="M68.0702 54.3647C70.3761 54.3647 72.2454 52.4954 72.2454 50.1896C72.2454 47.8837 70.3761 46.0144 68.0702 46.0144C65.7644 46.0144 63.8951 47.8837 63.8951 50.1896C63.8951 52.4954 65.7644 54.3647 68.0702 54.3647Z" fill="#7FD1C8"/>
<path d="M602.589 54.3647C604.895 54.3647 606.765 52.4954 606.765 50.1896C606.765 47.8837 604.895 46.0144 602.589 46.0144C600.284 46.0144 598.414 47.8837 598.414 50.1896C598.414 52.4954 600.284 54.3647 602.589 54.3647Z" fill="#7FD1C8"/>
<path d="M335.321 54.3647C337.627 54.3647 339.496 52.4954 339.496 50.1896C339.496 47.8837 337.627 46.0144 335.321 46.0144C333.015 46.0144 331.146 47.8837 331.146 50.1896C331.146 52.4954 333.015 54.3647 335.321 54.3647Z" fill="#7FD1C8"/>
<path d="M201.691 54.3647C203.997 54.3647 205.866 52.4954 205.866 50.1896C205.866 47.8837 203.997 46.0144 201.691 46.0144C199.385 46.0144 197.516 47.8837 197.516 50.1896C197.516 52.4954 199.385 54.3647 201.691 54.3647Z" fill="#7FD1C8"/>
<path d="M268.503 54.3647C270.809 54.3647 272.678 52.4954 272.678 50.1896C272.678 47.8837 270.809 46.0144 268.503 46.0144C266.197 46.0144 264.328 47.8837 264.328 50.1896C264.328 52.4954 266.197 54.3647 268.503 54.3647Z" fill="#7FD1C8"/>
<path d="M134.873 54.3647C137.179 54.3647 139.049 52.4954 139.049 50.1896C139.049 47.8837 137.179 46.0144 134.873 46.0144C132.568 46.0144 130.698 47.8837 130.698 50.1896C130.698 52.4954 132.568 54.3647 134.873 54.3647Z" fill="#7FD1C8"/>
<path d="M535.774 54.3647C538.079 54.3647 539.949 52.4954 539.949 50.1896C539.949 47.8837 538.079 46.0144 535.774 46.0144C533.468 46.0144 531.598 47.8837 531.598 50.1896C531.598 52.4954 533.468 54.3647 535.774 54.3647Z" fill="#7FD1C8"/>
<path d="M402.138 54.3647C404.444 54.3647 406.314 52.4954 406.314 50.1896C406.314 47.8837 404.444 46.0144 402.138 46.0144C399.833 46.0144 397.963 47.8837 397.963 50.1896C397.963 52.4954 399.833 54.3647 402.138 54.3647Z" fill="#7FD1C8"/>
<path d="M468.956 54.3647C471.262 54.3647 473.131 52.4954 473.131 50.1896C473.131 47.8837 471.262 46.0144 468.956 46.0144C466.65 46.0144 464.781 47.8837 464.781 50.1896C464.781 52.4954 466.65 54.3647 468.956 54.3647Z" fill="#7FD1C8"/>
<path d="M101.469 90.9155C103.775 90.9155 105.644 89.0462 105.644 86.7403C105.644 84.4345 103.775 82.5652 101.469 82.5652C99.1633 82.5652 97.294 84.4345 97.294 86.7403C97.294 89.0462 99.1633 90.9155 101.469 90.9155Z" fill="#7FD1C8"/>
<path d="M636.004 90.9155C638.31 90.9155 640.18 89.0462 640.18 86.7403C640.18 84.4345 638.31 82.5652 636.004 82.5652C633.699 82.5652 631.829 84.4345 631.829 86.7403C631.829 89.0462 633.699 90.9155 636.004 90.9155Z" fill="#7FD1C8"/>
<path d="M368.737 90.9275C371.051 90.9275 372.927 89.0519 372.927 86.7383C372.927 84.4247 371.051 82.5491 368.737 82.5491C366.424 82.5491 364.548 84.4247 364.548 86.7383C364.548 89.0519 366.424 90.9275 368.737 90.9275Z" fill="#7FD1C8"/>
<path d="M235.104 90.9155C237.41 90.9155 239.28 89.0462 239.28 86.7403C239.28 84.4345 237.41 82.5652 235.104 82.5652C232.798 82.5652 230.929 84.4345 230.929 86.7403C230.929 89.0462 232.798 90.9155 235.104 90.9155Z" fill="#7FD1C8"/>
<path d="M301.92 90.9155C304.226 90.9155 306.095 89.0462 306.095 86.7403C306.095 84.4345 304.226 82.5652 301.92 82.5652C299.614 82.5652 297.745 84.4345 297.745 86.7403C297.745 89.0462 299.614 90.9155 301.92 90.9155Z" fill="#7FD1C8"/>
<path d="M168.287 90.9155C170.593 90.9155 172.462 89.0462 172.462 86.7403C172.462 84.4345 170.593 82.5652 168.287 82.5652C165.981 82.5652 164.112 84.4345 164.112 86.7403C164.112 89.0462 165.981 90.9155 168.287 90.9155Z" fill="#7FD1C8"/>
<path d="M569.187 90.9155C571.493 90.9155 573.362 89.0462 573.362 86.7403C573.362 84.4345 571.493 82.5652 569.187 82.5652C566.881 82.5652 565.012 84.4345 565.012 86.7403C565.012 89.0462 566.881 90.9155 569.187 90.9155Z" fill="#7FD1C8"/>
<path d="M435.555 90.9275C437.869 90.9275 439.744 89.0519 439.744 86.7383C439.744 84.4247 437.869 82.5491 435.555 82.5491C433.241 82.5491 431.366 84.4247 431.366 86.7383C431.366 89.0519 433.241 90.9275 435.555 90.9275Z" fill="#7FD1C8"/>
<path d="M502.369 90.9155C504.675 90.9155 506.544 89.0462 506.544 86.7403C506.544 84.4345 504.675 82.5652 502.369 82.5652C500.063 82.5652 498.194 84.4345 498.194 86.7403C498.194 89.0462 500.063 90.9155 502.369 90.9155Z" fill="#7FD1C8"/>
<path d="M68.0702 90.9155C70.3761 90.9155 72.2454 89.0462 72.2454 86.7403C72.2454 84.4345 70.3761 82.5652 68.0702 82.5652C65.7644 82.5652 63.8951 84.4345 63.8951 86.7403C63.8951 89.0462 65.7644 90.9155 68.0702 90.9155Z" fill="#7FD1C8"/>
<path d="M602.589 90.9155C604.895 90.9155 606.765 89.0462 606.765 86.7403C606.765 84.4345 604.895 82.5652 602.589 82.5652C600.284 82.5652 598.414 84.4345 598.414 86.7403C598.414 89.0462 600.284 90.9155 602.589 90.9155Z" fill="#7FD1C8"/>
<path d="M335.321 90.9155C337.627 90.9155 339.496 89.0462 339.496 86.7403C339.496 84.4345 337.627 82.5652 335.321 82.5652C333.015 82.5652 331.146 84.4345 331.146 86.7403C331.146 89.0462 333.015 90.9155 335.321 90.9155Z" fill="#7FD1C8"/>
<path d="M201.691 90.9155C203.997 90.9155 205.866 89.0462 205.866 86.7403C205.866 84.4345 203.997 82.5652 201.691 82.5652C199.385 82.5652 197.516 84.4345 197.516 86.7403C197.516 89.0462 199.385 90.9155 201.691 90.9155Z" fill="#7FD1C8"/>
<path d="M268.503 90.9155C270.809 90.9155 272.678 89.0462 272.678 86.7403C272.678 84.4345 270.809 82.5652 268.503 82.5652C266.197 82.5652 264.328 84.4345 264.328 86.7403C264.328 89.0462 266.197 90.9155 268.503 90.9155Z" fill="#7FD1C8"/>
<path d="M134.873 90.9155C137.179 90.9155 139.049 89.0462 139.049 86.7403C139.049 84.4345 137.179 82.5652 134.873 82.5652C132.568 82.5652 130.698 84.4345 130.698 86.7403C130.698 89.0462 132.568 90.9155 134.873 90.9155Z" fill="#7FD1C8"/>
<path d="M535.774 90.9155C538.079 90.9155 539.949 89.0462 539.949 86.7403C539.949 84.4345 538.079 82.5652 535.774 82.5652C533.468 82.5652 531.598 84.4345 531.598 86.7403C531.598 89.0462 533.468 90.9155 535.774 90.9155Z" fill="#7FD1C8"/>
<path d="M402.138 90.9155C404.444 90.9155 406.314 89.0462 406.314 86.7403C406.314 84.4345 404.444 82.5652 402.138 82.5652C399.833 82.5652 397.963 84.4345 397.963 86.7403C397.963 89.0462 399.833 90.9155 402.138 90.9155Z" fill="#7FD1C8"/>
<path d="M468.956 90.9155C471.262 90.9155 473.131 89.0462 473.131 86.7403C473.131 84.4345 471.262 82.5652 468.956 82.5652C466.65 82.5652 464.781 84.4345 464.781 86.7403C464.781 89.0462 466.65 90.9155 468.956 90.9155Z" fill="#7FD1C8"/>
<path d="M101.469 127.463C103.775 127.463 105.644 125.594 105.644 123.288C105.644 120.982 103.775 119.113 101.469 119.113C99.1633 119.113 97.294 120.982 97.294 123.288C97.294 125.594 99.1633 127.463 101.469 127.463Z" fill="#7FD1C8"/>
<path d="M636.004 127.463C638.31 127.463 640.18 125.594 640.18 123.288C640.18 120.982 638.31 119.113 636.004 119.113C633.699 119.113 631.829 120.982 631.829 123.288C631.829 125.594 633.699 127.463 636.004 127.463Z" fill="#7FD1C8"/>
<path d="M368.737 127.48C371.051 127.48 372.927 125.605 372.927 123.291C372.927 120.977 371.051 119.102 368.737 119.102C366.424 119.102 364.548 120.977 364.548 123.291C364.548 125.605 366.424 127.48 368.737 127.48Z" fill="#7FD1C8"/>
<path d="M235.104 127.463C237.41 127.463 239.28 125.594 239.28 123.288C239.28 120.982 237.41 119.113 235.104 119.113C232.798 119.113 230.929 120.982 230.929 123.288C230.929 125.594 232.798 127.463 235.104 127.463Z" fill="#7FD1C8"/>
<path d="M301.92 127.463C304.226 127.463 306.095 125.594 306.095 123.288C306.095 120.982 304.226 119.113 301.92 119.113C299.614 119.113 297.745 120.982 297.745 123.288C297.745 125.594 299.614 127.463 301.92 127.463Z" fill="#7FD1C8"/>
<path d="M168.287 127.463C170.593 127.463 172.462 125.594 172.462 123.288C172.462 120.982 170.593 119.113 168.287 119.113C165.981 119.113 164.112 120.982 164.112 123.288C164.112 125.594 165.981 127.463 168.287 127.463Z" fill="#7FD1C8"/>
<path d="M569.187 127.463C571.493 127.463 573.362 125.594 573.362 123.288C573.362 120.982 571.493 119.113 569.187 119.113C566.881 119.113 565.012 120.982 565.012 123.288C565.012 125.594 566.881 127.463 569.187 127.463Z" fill="#7FD1C8"/>
<path d="M435.555 127.48C437.869 127.48 439.744 125.605 439.744 123.291C439.744 120.977 437.869 119.102 435.555 119.102C433.241 119.102 431.366 120.977 431.366 123.291C431.366 125.605 433.241 127.48 435.555 127.48Z" fill="#7FD1C8"/>
<path d="M502.369 127.463C504.675 127.463 506.544 125.594 506.544 123.288C506.544 120.982 504.675 119.113 502.369 119.113C500.063 119.113 498.194 120.982 498.194 123.288C498.194 125.594 500.063 127.463 502.369 127.463Z" fill="#7FD1C8"/>
<path d="M68.0702 127.463C70.3761 127.463 72.2454 125.594 72.2454 123.288C72.2454 120.982 70.3761 119.113 68.0702 119.113C65.7644 119.113 63.8951 120.982 63.8951 123.288C63.8951 125.594 65.7644 127.463 68.0702 127.463Z" fill="#7FD1C8"/>
<path d="M602.589 127.463C604.895 127.463 606.765 125.594 606.765 123.288C606.765 120.982 604.895 119.113 602.589 119.113C600.284 119.113 598.414 120.982 598.414 123.288C598.414 125.594 600.284 127.463 602.589 127.463Z" fill="#7FD1C8"/>
<path d="M335.321 127.463C337.627 127.463 339.496 125.594 339.496 123.288C339.496 120.982 337.627 119.113 335.321 119.113C333.015 119.113 331.146 120.982 331.146 123.288C331.146 125.594 333.015 127.463 335.321 127.463Z" fill="#7FD1C8"/>
<path d="M201.691 127.463C203.997 127.463 205.866 125.594 205.866 123.288C205.866 120.982 203.997 119.113 201.691 119.113C199.385 119.113 197.516 120.982 197.516 123.288C197.516 125.594 199.385 127.463 201.691 127.463Z" fill="#7FD1C8"/>
<path d="M268.503 127.463C270.809 127.463 272.678 125.594 272.678 123.288C272.678 120.982 270.809 119.113 268.503 119.113C266.197 119.113 264.328 120.982 264.328 123.288C264.328 125.594 266.197 127.463 268.503 127.463Z" fill="#7FD1C8"/>
<path d="M134.873 127.463C137.179 127.463 139.049 125.594 139.049 123.288C139.049 120.982 137.179 119.113 134.873 119.113C132.568 119.113 130.698 120.982 130.698 123.288C130.698 125.594 132.568 127.463 134.873 127.463Z" fill="#7FD1C8"/>
<path d="M535.774 127.463C538.079 127.463 539.949 125.594 539.949 123.288C539.949 120.982 538.079 119.113 535.774 119.113C533.468 119.113 531.598 120.982 531.598 123.288C531.598 125.594 533.468 127.463 535.774 127.463Z" fill="#7FD1C8"/>
<path d="M402.138 127.463C404.444 127.463 406.314 125.594 406.314 123.288C406.314 120.982 404.444 119.113 402.138 119.113C399.833 119.113 397.963 120.982 397.963 123.288C397.963 125.594 399.833 127.463 402.138 127.463Z" fill="#7FD1C8"/>
<path d="M468.956 127.463C471.262 127.463 473.131 125.594 473.131 123.288C473.131 120.982 471.262 119.113 468.956 119.113C466.65 119.113 464.781 120.982 464.781 123.288C464.781 125.594 466.65 127.463 468.956 127.463Z" fill="#7FD1C8"/>
<path d="M101.469 164.016C103.775 164.016 105.644 162.146 105.644 159.84C105.644 157.535 103.775 155.665 101.469 155.665C99.1633 155.665 97.294 157.535 97.294 159.84C97.294 162.146 99.1633 164.016 101.469 164.016Z" fill="#7FD1C8"/>
<path d="M636.004 164.016C638.31 164.016 640.18 162.146 640.18 159.84C640.18 157.535 638.31 155.665 636.004 155.665C633.699 155.665 631.829 157.535 631.829 159.84C631.829 162.146 633.699 164.016 636.004 164.016Z" fill="#7FD1C8"/>
<path d="M368.737 164.027C371.051 164.027 372.927 162.152 372.927 159.838C372.927 157.524 371.051 155.649 368.737 155.649C366.424 155.649 364.548 157.524 364.548 159.838C364.548 162.152 366.424 164.027 368.737 164.027Z" fill="#7FD1C8"/>
<path d="M235.104 164.016C237.41 164.016 239.28 162.146 239.28 159.84C239.28 157.535 237.41 155.665 235.104 155.665C232.798 155.665 230.929 157.535 230.929 159.84C230.929 162.146 232.798 164.016 235.104 164.016Z" fill="#7FD1C8"/>
<path d="M301.92 164.016C304.226 164.016 306.095 162.146 306.095 159.84C306.095 157.535 304.226 155.665 301.92 155.665C299.614 155.665 297.745 157.535 297.745 159.84C297.745 162.146 299.614 164.016 301.92 164.016Z" fill="#7FD1C8"/>
<path d="M168.287 164.016C170.593 164.016 172.462 162.146 172.462 159.84C172.462 157.535 170.593 155.665 168.287 155.665C165.981 155.665 164.112 157.535 164.112 159.84C164.112 162.146 165.981 164.016 168.287 164.016Z" fill="#7FD1C8"/>
<path d="M569.187 164.016C571.493 164.016 573.362 162.146 573.362 159.84C573.362 157.535 571.493 155.665 569.187 155.665C566.881 155.665 565.012 157.535 565.012 159.84C565.012 162.146 566.881 164.016 569.187 164.016Z" fill="#7FD1C8"/>
<path d="M435.555 164.027C437.869 164.027 439.744 162.152 439.744 159.838C439.744 157.524 437.869 155.649 435.555 155.649C433.241 155.649 431.366 157.524 431.366 159.838C431.366 162.152 433.241 164.027 435.555 164.027Z" fill="#7FD1C8"/>
<path d="M502.369 164.016C504.675 164.016 506.544 162.146 506.544 159.84C506.544 157.535 504.675 155.665 502.369 155.665C500.063 155.665 498.194 157.535 498.194 159.84C498.194 162.146 500.063 164.016 502.369 164.016Z" fill="#7FD1C8"/>
<path d="M68.0702 164.016C70.3761 164.016 72.2454 162.146 72.2454 159.84C72.2454 157.535 70.3761 155.665 68.0702 155.665C65.7644 155.665 63.8951 157.535 63.8951 159.84C63.8951 162.146 65.7644 164.016 68.0702 164.016Z" fill="#7FD1C8"/>
<path d="M602.589 164.016C604.895 164.016 606.765 162.146 606.765 159.84C606.765 157.535 604.895 155.665 602.589 155.665C600.284 155.665 598.414 157.535 598.414 159.84C598.414 162.146 600.284 164.016 602.589 164.016Z" fill="#7FD1C8"/>
<path d="M335.321 164.016C337.627 164.016 339.496 162.146 339.496 159.84C339.496 157.535 337.627 155.665 335.321 155.665C333.015 155.665 331.146 157.535 331.146 159.84C331.146 162.146 333.015 164.016 335.321 164.016Z" fill="#7FD1C8"/>
<path d="M201.691 164.016C203.997 164.016 205.866 162.146 205.866 159.84C205.866 157.535 203.997 155.665 201.691 155.665C199.385 155.665 197.516 157.535 197.516 159.84C197.516 162.146 199.385 164.016 201.691 164.016Z" fill="#7FD1C8"/>
<path d="M268.503 164.016C270.809 164.016 272.678 162.146 272.678 159.84C272.678 157.535 270.809 155.665 268.503 155.665C266.197 155.665 264.328 157.535 264.328 159.84C264.328 162.146 266.197 164.016 268.503 164.016Z" fill="#7FD1C8"/>
<path d="M134.873 164.016C137.179 164.016 139.049 162.146 139.049 159.84C139.049 157.535 137.179 155.665 134.873 155.665C132.568 155.665 130.698 157.535 130.698 159.84C130.698 162.146 132.568 164.016 134.873 164.016Z" fill="#7FD1C8"/>
<path d="M535.774 164.016C538.079 164.016 539.949 162.146 539.949 159.84C539.949 157.535 538.079 155.665 535.774 155.665C533.468 155.665 531.598 157.535 531.598 159.84C531.598 162.146 533.468 164.016 535.774 164.016Z" fill="#7FD1C8"/>
<path d="M402.138 164.016C404.444 164.016 406.314 162.146 406.314 159.84C406.314 157.535 404.444 155.665 402.138 155.665C399.833 155.665 397.963 157.535 397.963 159.84C397.963 162.146 399.833 164.016 402.138 164.016Z" fill="#7FD1C8"/>
<path d="M468.956 164.016C471.262 164.016 473.131 162.146 473.131 159.84C473.131 157.535 471.262 155.665 468.956 155.665C466.65 155.665 464.781 157.535 464.781 159.84C464.781 162.146 466.65 164.016 468.956 164.016Z" fill="#7FD1C8"/>
<path d="M101.469 200.565C103.775 200.565 105.644 198.695 105.644 196.389C105.644 194.084 103.775 192.214 101.469 192.214C99.1633 192.214 97.294 194.084 97.294 196.389C97.294 198.695 99.1633 200.565 101.469 200.565Z" fill="#7FD1C8"/>
<path d="M636.004 200.565C638.31 200.565 640.18 198.695 640.18 196.389C640.18 194.084 638.31 192.214 636.004 192.214C633.699 192.214 631.829 194.084 631.829 196.389C631.829 198.695 633.699 200.565 636.004 200.565Z" fill="#7FD1C8"/>
<path d="M368.737 200.58C371.051 200.58 372.927 198.704 372.927 196.391C372.927 194.077 371.051 192.202 368.737 192.202C366.424 192.202 364.548 194.077 364.548 196.391C364.548 198.704 366.424 200.58 368.737 200.58Z" fill="#7FD1C8"/>
<path d="M235.104 200.565C237.41 200.565 239.28 198.695 239.28 196.389C239.28 194.084 237.41 192.214 235.104 192.214C232.798 192.214 230.929 194.084 230.929 196.389C230.929 198.695 232.798 200.565 235.104 200.565Z" fill="#7FD1C8"/>
<path d="M301.92 200.565C304.226 200.565 306.095 198.695 306.095 196.389C306.095 194.084 304.226 192.214 301.92 192.214C299.614 192.214 297.745 194.084 297.745 196.389C297.745 198.695 299.614 200.565 301.92 200.565Z" fill="#7FD1C8"/>
<path d="M168.287 200.565C170.593 200.565 172.462 198.695 172.462 196.389C172.462 194.084 170.593 192.214 168.287 192.214C165.981 192.214 164.112 194.084 164.112 196.389C164.112 198.695 165.981 200.565 168.287 200.565Z" fill="#7FD1C8"/>
<path d="M569.187 200.565C571.493 200.565 573.362 198.695 573.362 196.389C573.362 194.084 571.493 192.214 569.187 192.214C566.881 192.214 565.012 194.084 565.012 196.389C565.012 198.695 566.881 200.565 569.187 200.565Z" fill="#7FD1C8"/>
<path d="M435.555 200.58C437.869 200.58 439.744 198.704 439.744 196.391C439.744 194.077 437.869 192.202 435.555 192.202C433.241 192.202 431.366 194.077 431.366 196.391C431.366 198.704 433.241 200.58 435.555 200.58Z" fill="#7FD1C8"/>
<path d="M502.369 200.565C504.675 200.565 506.544 198.695 506.544 196.389C506.544 194.084 504.675 192.214 502.369 192.214C500.063 192.214 498.194 194.084 498.194 196.389C498.194 198.695 500.063 200.565 502.369 200.565Z" fill="#7FD1C8"/>
<path d="M68.0702 200.565C70.3761 200.565 72.2454 198.695 72.2454 196.389C72.2454 194.084 70.3761 192.214 68.0702 192.214C65.7644 192.214 63.8951 194.084 63.8951 196.389C63.8951 198.695 65.7644 200.565 68.0702 200.565Z" fill="#7FD1C8"/>
<path d="M602.589 200.565C604.895 200.565 606.765 198.695 606.765 196.389C606.765 194.084 604.895 192.214 602.589 192.214C600.284 192.214 598.414 194.084 598.414 196.389C598.414 198.695 600.284 200.565 602.589 200.565Z" fill="#7FD1C8"/>
<path d="M335.321 200.565C337.627 200.565 339.496 198.695 339.496 196.389C339.496 194.084 337.627 192.214 335.321 192.214C333.015 192.214 331.146 194.084 331.146 196.389C331.146 198.695 333.015 200.565 335.321 200.565Z" fill="#7FD1C8"/>
<path d="M201.691 200.565C203.997 200.565 205.866 198.695 205.866 196.389C205.866 194.084 203.997 192.214 201.691 192.214C199.385 192.214 197.516 194.084 197.516 196.389C197.516 198.695 199.385 200.565 201.691 200.565Z" fill="#7FD1C8"/>
<path d="M268.503 200.565C270.809 200.565 272.678 198.695 272.678 196.389C272.678 194.084 270.809 192.214 268.503 192.214C266.197 192.214 264.328 194.084 264.328 196.389C264.328 198.695 266.197 200.565 268.503 200.565Z" fill="#7FD1C8"/>
<path d="M134.873 200.565C137.179 200.565 139.049 198.695 139.049 196.389C139.049 194.084 137.179 192.214 134.873 192.214C132.568 192.214 130.698 194.084 130.698 196.389C130.698 198.695 132.568 200.565 134.873 200.565Z" fill="#7FD1C8"/>
<path d="M535.774 200.565C538.079 200.565 539.949 198.695 539.949 196.389C539.949 194.084 538.079 192.214 535.774 192.214C533.468 192.214 531.598 194.084 531.598 196.389C531.598 198.695 533.468 200.565 535.774 200.565Z" fill="#7FD1C8"/>
<path d="M402.138 200.565C404.444 200.565 406.314 198.695 406.314 196.389C406.314 194.084 404.444 192.214 402.138 192.214C399.833 192.214 397.963 194.084 397.963 196.389C397.963 198.695 399.833 200.565 402.138 200.565Z" fill="#7FD1C8"/>
<path d="M468.956 200.565C471.262 200.565 473.131 198.695 473.131 196.389C473.131 194.084 471.262 192.214 468.956 192.214C466.65 192.214 464.781 194.084 464.781 196.389C464.781 198.695 466.65 200.565 468.956 200.565Z" fill="#7FD1C8"/>
<path d="M101.469 237.115C103.775 237.115 105.644 235.246 105.644 232.94C105.644 230.634 103.775 228.765 101.469 228.765C99.1633 228.765 97.294 230.634 97.294 232.94C97.294 235.246 99.1633 237.115 101.469 237.115Z" fill="#7FD1C8"/>
<path d="M636.004 237.115C638.31 237.115 640.18 235.246 640.18 232.94C640.18 230.634 638.31 228.765 636.004 228.765C633.699 228.765 631.829 230.634 631.829 232.94C631.829 235.246 633.699 237.115 636.004 237.115Z" fill="#7FD1C8"/>
<path d="M368.737 237.129C371.051 237.129 372.927 235.254 372.927 232.94C372.927 230.626 371.051 228.751 368.737 228.751C366.424 228.751 364.548 230.626 364.548 232.94C364.548 235.254 366.424 237.129 368.737 237.129Z" fill="#7FD1C8"/>
<path d="M235.104 237.115C237.41 237.115 239.28 235.246 239.28 232.94C239.28 230.634 237.41 228.765 235.104 228.765C232.798 228.765 230.929 230.634 230.929 232.94C230.929 235.246 232.798 237.115 235.104 237.115Z" fill="#7FD1C8"/>
<path d="M301.92 237.115C304.226 237.115 306.095 235.246 306.095 232.94C306.095 230.634 304.226 228.765 301.92 228.765C299.614 228.765 297.745 230.634 297.745 232.94C297.745 235.246 299.614 237.115 301.92 237.115Z" fill="#7FD1C8"/>
<path d="M168.287 237.115C170.593 237.115 172.462 235.246 172.462 232.94C172.462 230.634 170.593 228.765 168.287 228.765C165.981 228.765 164.112 230.634 164.112 232.94C164.112 235.246 165.981 237.115 168.287 237.115Z" fill="#7FD1C8"/>
<path d="M569.187 237.115C571.493 237.115 573.362 235.246 573.362 232.94C573.362 230.634 571.493 228.765 569.187 228.765C566.881 228.765 565.012 230.634 565.012 232.94C565.012 235.246 566.881 237.115 569.187 237.115Z" fill="#7FD1C8"/>
<path d="M435.555 237.129C437.869 237.129 439.744 235.254 439.744 232.94C439.744 230.626 437.869 228.751 435.555 228.751C433.241 228.751 431.366 230.626 431.366 232.94C431.366 235.254 433.241 237.129 435.555 237.129Z" fill="#7FD1C8"/>
<path d="M502.369 237.115C504.675 237.115 506.544 235.246 506.544 232.94C506.544 230.634 504.675 228.765 502.369 228.765C500.063 228.765 498.194 230.634 498.194 232.94C498.194 235.246 500.063 237.115 502.369 237.115Z" fill="#7FD1C8"/>
<path d="M68.0702 237.115C70.3761 237.115 72.2454 235.246 72.2454 232.94C72.2454 230.634 70.3761 228.765 68.0702 228.765C65.7644 228.765 63.8951 230.634 63.8951 232.94C63.8951 235.246 65.7644 237.115 68.0702 237.115Z" fill="#7FD1C8"/>
<path d="M602.589 237.115C604.895 237.115 606.765 235.246 606.765 232.94C606.765 230.634 604.895 228.765 602.589 228.765C600.284 228.765 598.414 230.634 598.414 232.94C598.414 235.246 600.284 237.115 602.589 237.115Z" fill="#7FD1C8"/>
<path d="M335.321 237.115C337.627 237.115 339.496 235.246 339.496 232.94C339.496 230.634 337.627 228.765 335.321 228.765C333.015 228.765 331.146 230.634 331.146 232.94C331.146 235.246 333.015 237.115 335.321 237.115Z" fill="#7FD1C8"/>
<path d="M201.691 237.115C203.997 237.115 205.866 235.246 205.866 232.94C205.866 230.634 203.997 228.765 201.691 228.765C199.385 228.765 197.516 230.634 197.516 232.94C197.516 235.246 199.385 237.115 201.691 237.115Z" fill="#7FD1C8"/>
<path d="M268.503 237.115C270.809 237.115 272.678 235.246 272.678 232.94C272.678 230.634 270.809 228.765 268.503 228.765C266.197 228.765 264.328 230.634 264.328 232.94C264.328 235.246 266.197 237.115 268.503 237.115Z" fill="#7FD1C8"/>
<path d="M134.873 237.115C137.179 237.115 139.049 235.246 139.049 232.94C139.049 230.634 137.179 228.765 134.873 228.765C132.568 228.765 130.698 230.634 130.698 232.94C130.698 235.246 132.568 237.115 134.873 237.115Z" fill="#7FD1C8"/>
<path d="M535.774 237.115C538.079 237.115 539.949 235.246 539.949 232.94C539.949 230.634 538.079 228.765 535.774 228.765C533.468 228.765 531.598 230.634 531.598 232.94C531.598 235.246 533.468 237.115 535.774 237.115Z" fill="#7FD1C8"/>
<path d="M402.138 237.115C404.444 237.115 406.314 235.246 406.314 232.94C406.314 230.634 404.444 228.765 402.138 228.765C399.833 228.765 397.963 230.634 397.963 232.94C397.963 235.246 399.833 237.115 402.138 237.115Z" fill="#7FD1C8"/>
<path d="M468.956 237.115C471.262 237.115 473.131 235.246 473.131 232.94C473.131 230.634 471.262 228.765 468.956 228.765C466.65 228.765 464.781 230.634 464.781 232.94C464.781 235.246 466.65 237.115 468.956 237.115Z" fill="#7FD1C8"/>
<path d="M101.469 273.666C103.775 273.666 105.644 271.797 105.644 269.491C105.644 267.185 103.775 265.316 101.469 265.316C99.1633 265.316 97.294 267.185 97.294 269.491C97.294 271.797 99.1633 273.666 101.469 273.666Z" fill="#7FD1C8"/>
<path d="M636.004 273.666C638.31 273.666 640.18 271.797 640.18 269.491C640.18 267.185 638.31 265.316 636.004 265.316C633.699 265.316 631.829 267.185 631.829 269.491C631.829 271.797 633.699 273.666 636.004 273.666Z" fill="#7FD1C8"/>
<path d="M368.737 273.682C371.051 273.682 372.927 271.806 372.927 269.493C372.927 267.179 371.051 265.303 368.737 265.303C366.424 265.303 364.548 267.179 364.548 269.493C364.548 271.806 366.424 273.682 368.737 273.682Z" fill="#7FD1C8"/>
<path d="M235.104 273.666C237.41 273.666 239.28 271.797 239.28 269.491C239.28 267.185 237.41 265.316 235.104 265.316C232.798 265.316 230.929 267.185 230.929 269.491C230.929 271.797 232.798 273.666 235.104 273.666Z" fill="#7FD1C8"/>
<path d="M301.92 273.666C304.226 273.666 306.095 271.797 306.095 269.491C306.095 267.185 304.226 265.316 301.92 265.316C299.614 265.316 297.745 267.185 297.745 269.491C297.745 271.797 299.614 273.666 301.92 273.666Z" fill="#7FD1C8"/>
<path d="M168.287 273.666C170.593 273.666 172.462 271.797 172.462 269.491C172.462 267.185 170.593 265.316 168.287 265.316C165.981 265.316 164.112 267.185 164.112 269.491C164.112 271.797 165.981 273.666 168.287 273.666Z" fill="#7FD1C8"/>
<path d="M569.187 273.666C571.493 273.666 573.362 271.797 573.362 269.491C573.362 267.185 571.493 265.316 569.187 265.316C566.881 265.316 565.012 267.185 565.012 269.491C565.012 271.797 566.881 273.666 569.187 273.666Z" fill="#7FD1C8"/>
<path d="M435.555 273.682C437.869 273.682 439.744 271.806 439.744 269.493C439.744 267.179 437.869 265.303 435.555 265.303C433.241 265.303 431.366 267.179 431.366 269.493C431.366 271.806 433.241 273.682 435.555 273.682Z" fill="#7FD1C8"/>
<path d="M502.369 273.666C504.675 273.666 506.544 271.797 506.544 269.491C506.544 267.185 504.675 265.316 502.369 265.316C500.063 265.316 498.194 267.185 498.194 269.491C498.194 271.797 500.063 273.666 502.369 273.666Z" fill="#7FD1C8"/>
<path d="M68.0702 273.666C70.3761 273.666 72.2454 271.797 72.2454 269.491C72.2454 267.185 70.3761 265.316 68.0702 265.316C65.7644 265.316 63.8951 267.185 63.8951 269.491C63.8951 271.797 65.7644 273.666 68.0702 273.666Z" fill="#7FD1C8"/>
<path d="M602.589 273.666C604.895 273.666 606.765 271.797 606.765 269.491C606.765 267.185 604.895 265.316 602.589 265.316C600.284 265.316 598.414 267.185 598.414 269.491C598.414 271.797 600.284 273.666 602.589 273.666Z" fill="#7FD1C8"/>
<path d="M335.321 273.666C337.627 273.666 339.496 271.797 339.496 269.491C339.496 267.185 337.627 265.316 335.321 265.316C333.015 265.316 331.146 267.185 331.146 269.491C331.146 271.797 333.015 273.666 335.321 273.666Z" fill="#7FD1C8"/>
<path d="M201.691 273.666C203.997 273.666 205.866 271.797 205.866 269.491C205.866 267.185 203.997 265.316 201.691 265.316C199.385 265.316 197.516 267.185 197.516 269.491C197.516 271.797 199.385 273.666 201.691 273.666Z" fill="#7FD1C8"/>
<path d="M268.503 273.666C270.809 273.666 272.678 271.797 272.678 269.491C272.678 267.185 270.809 265.316 268.503 265.316C266.197 265.316 264.328 267.185 264.328 269.491C264.328 271.797 266.197 273.666 268.503 273.666Z" fill="#7FD1C8"/>
<path d="M134.873 273.666C137.179 273.666 139.049 271.797 139.049 269.491C139.049 267.185 137.179 265.316 134.873 265.316C132.568 265.316 130.698 267.185 130.698 269.491C130.698 271.797 132.568 273.666 134.873 273.666Z" fill="#7FD1C8"/>
<path d="M535.774 273.666C538.079 273.666 539.949 271.797 539.949 269.491C539.949 267.185 538.079 265.316 535.774 265.316C533.468 265.316 531.598 267.185 531.598 269.491C531.598 271.797 533.468 273.666 535.774 273.666Z" fill="#7FD1C8"/>
<path d="M402.138 273.666C404.444 273.666 406.314 271.797 406.314 269.491C406.314 267.185 404.444 265.316 402.138 265.316C399.833 265.316 397.963 267.185 397.963 269.491C397.963 271.797 399.833 273.666 402.138 273.666Z" fill="#7FD1C8"/>
<path d="M468.956 273.666C471.262 273.666 473.131 271.797 473.131 269.491C473.131 267.185 471.262 265.316 468.956 265.316C466.65 265.316 464.781 267.185 464.781 269.491C464.781 271.797 466.65 273.666 468.956 273.666Z" fill="#7FD1C8"/>
<path d="M101.469 310.214C103.775 310.214 105.644 308.344 105.644 306.038C105.644 303.733 103.775 301.863 101.469 301.863C99.1633 301.863 97.294 303.733 97.294 306.038C97.294 308.344 99.1633 310.214 101.469 310.214Z" fill="#7FD1C8"/>
<path d="M636.004 310.214C638.31 310.214 640.18 308.344 640.18 306.038C640.18 303.733 638.31 301.863 636.004 301.863C633.699 301.863 631.829 303.733 631.829 306.038C631.829 308.344 633.699 310.214 636.004 310.214Z" fill="#7FD1C8"/>
<path d="M368.737 310.231C371.051 310.231 372.927 308.355 372.927 306.042C372.927 303.728 371.051 301.853 368.737 301.853C366.424 301.853 364.548 303.728 364.548 306.042C364.548 308.355 366.424 310.231 368.737 310.231Z" fill="#7FD1C8"/>
<path d="M235.104 310.214C237.41 310.214 239.28 308.344 239.28 306.038C239.28 303.733 237.41 301.863 235.104 301.863C232.798 301.863 230.929 303.733 230.929 306.038C230.929 308.344 232.798 310.214 235.104 310.214Z" fill="#7FD1C8"/>
<path d="M301.92 310.214C304.226 310.214 306.095 308.344 306.095 306.038C306.095 303.733 304.226 301.863 301.92 301.863C299.614 301.863 297.745 303.733 297.745 306.038C297.745 308.344 299.614 310.214 301.92 310.214Z" fill="#7FD1C8"/>
<path d="M168.287 310.214C170.593 310.214 172.462 308.344 172.462 306.038C172.462 303.733 170.593 301.863 168.287 301.863C165.981 301.863 164.112 303.733 164.112 306.038C164.112 308.344 165.981 310.214 168.287 310.214Z" fill="#7FD1C8"/>
<path d="M569.187 310.214C571.493 310.214 573.362 308.344 573.362 306.038C573.362 303.733 571.493 301.863 569.187 301.863C566.881 301.863 565.012 303.733 565.012 306.038C565.012 308.344 566.881 310.214 569.187 310.214Z" fill="#7FD1C8"/>
<path d="M435.555 310.231C437.869 310.231 439.744 308.355 439.744 306.042C439.744 303.728 437.869 301.853 435.555 301.853C433.241 301.853 431.366 303.728 431.366 306.042C431.366 308.355 433.241 310.231 435.555 310.231Z" fill="#7FD1C8"/>
<path d="M502.369 310.214C504.675 310.214 506.544 308.344 506.544 306.038C506.544 303.733 504.675 301.863 502.369 301.863C500.063 301.863 498.194 303.733 498.194 306.038C498.194 308.344 500.063 310.214 502.369 310.214Z" fill="#7FD1C8"/>
<path d="M68.0702 310.214C70.3761 310.214 72.2454 308.344 72.2454 306.038C72.2454 303.733 70.3761 301.863 68.0702 301.863C65.7644 301.863 63.8951 303.733 63.8951 306.038C63.8951 308.344 65.7644 310.214 68.0702 310.214Z" fill="#7FD1C8"/>
<path d="M602.589 310.214C604.895 310.214 606.765 308.344 606.765 306.038C606.765 303.733 604.895 301.863 602.589 301.863C600.284 301.863 598.414 303.733 598.414 306.038C598.414 308.344 600.284 310.214 602.589 310.214Z" fill="#7FD1C8"/>
<path d="M335.321 310.214C337.627 310.214 339.496 308.344 339.496 306.038C339.496 303.733 337.627 301.863 335.321 301.863C333.015 301.863 331.146 303.733 331.146 306.038C331.146 308.344 333.015 310.214 335.321 310.214Z" fill="#7FD1C8"/>
<path d="M201.691 310.214C203.997 310.214 205.866 308.344 205.866 306.038C205.866 303.733 203.997 301.863 201.691 301.863C199.385 301.863 197.516 303.733 197.516 306.038C197.516 308.344 199.385 310.214 201.691 310.214Z" fill="#7FD1C8"/>
<path d="M268.503 310.214C270.809 310.214 272.678 308.344 272.678 306.038C272.678 303.733 270.809 301.863 268.503 301.863C266.197 301.863 264.328 303.733 264.328 306.038C264.328 308.344 266.197 310.214 268.503 310.214Z" fill="#7FD1C8"/>
<path d="M134.873 310.214C137.179 310.214 139.049 308.344 139.049 306.038C139.049 303.733 137.179 301.863 134.873 301.863C132.568 301.863 130.698 303.733 130.698 306.038C130.698 308.344 132.568 310.214 134.873 310.214Z" fill="#7FD1C8"/>
<path d="M535.774 310.214C538.079 310.214 539.949 308.344 539.949 306.038C539.949 303.733 538.079 301.863 535.774 301.863C533.468 301.863 531.598 303.733 531.598 306.038C531.598 308.344 533.468 310.214 535.774 310.214Z" fill="#7FD1C8"/>
<path d="M402.138 310.214C404.444 310.214 406.314 308.344 406.314 306.038C406.314 303.733 404.444 301.863 402.138 301.863C399.833 301.863 397.963 303.733 397.963 306.038C397.963 308.344 399.833 310.214 402.138 310.214Z" fill="#7FD1C8"/>
<path d="M468.956 310.214C471.262 310.214 473.131 308.344 473.131 306.038C473.131 303.733 471.262 301.863 468.956 301.863C466.65 301.863 464.781 303.733 464.781 306.038C464.781 308.344 466.65 310.214 468.956 310.214Z" fill="#7FD1C8"/>
<path d="M101.469 346.766C103.775 346.766 105.644 344.897 105.644 342.591C105.644 340.285 103.775 338.416 101.469 338.416C99.1633 338.416 97.294 340.285 97.294 342.591C97.294 344.897 99.1633 346.766 101.469 346.766Z" fill="#7FD1C8"/>
<path d="M636.004 346.766C638.31 346.766 640.18 344.897 640.18 342.591C640.18 340.285 638.31 338.416 636.004 338.416C633.699 338.416 631.829 340.285 631.829 342.591C631.829 344.897 633.699 346.766 636.004 346.766Z" fill="#7FD1C8"/>
<path d="M368.737 346.778C371.051 346.778 372.927 344.903 372.927 342.589C372.927 340.275 371.051 338.4 368.737 338.4C366.424 338.4 364.548 340.275 364.548 342.589C364.548 344.903 366.424 346.778 368.737 346.778Z" fill="#7FD1C8"/>
<path d="M235.104 346.766C237.41 346.766 239.28 344.897 239.28 342.591C239.28 340.285 237.41 338.416 235.104 338.416C232.798 338.416 230.929 340.285 230.929 342.591C230.929 344.897 232.798 346.766 235.104 346.766Z" fill="#7FD1C8"/>
<path d="M301.92 346.766C304.226 346.766 306.095 344.897 306.095 342.591C306.095 340.285 304.226 338.416 301.92 338.416C299.614 338.416 297.745 340.285 297.745 342.591C297.745 344.897 299.614 346.766 301.92 346.766Z" fill="#7FD1C8"/>
<path d="M168.287 346.766C170.593 346.766 172.462 344.897 172.462 342.591C172.462 340.285 170.593 338.416 168.287 338.416C165.981 338.416 164.112 340.285 164.112 342.591C164.112 344.897 165.981 346.766 168.287 346.766Z" fill="#7FD1C8"/>
<path d="M569.187 346.766C571.493 346.766 573.362 344.897 573.362 342.591C573.362 340.285 571.493 338.416 569.187 338.416C566.881 338.416 565.012 340.285 565.012 342.591C565.012 344.897 566.881 346.766 569.187 346.766Z" fill="#7FD1C8"/>
<path d="M435.555 346.778C437.869 346.778 439.744 344.903 439.744 342.589C439.744 340.275 437.869 338.4 435.555 338.4C433.241 338.4 431.366 340.275 431.366 342.589C431.366 344.903 433.241 346.778 435.555 346.778Z" fill="#7FD1C8"/>
<path d="M502.369 346.766C504.675 346.766 506.544 344.897 506.544 342.591C506.544 340.285 504.675 338.416 502.369 338.416C500.063 338.416 498.194 340.285 498.194 342.591C498.194 344.897 500.063 346.766 502.369 346.766Z" fill="#7FD1C8"/>
<path d="M68.0702 346.766C70.3761 346.766 72.2454 344.897 72.2454 342.591C72.2454 340.285 70.3761 338.416 68.0702 338.416C65.7644 338.416 63.8951 340.285 63.8951 342.591C63.8951 344.897 65.7644 346.766 68.0702 346.766Z" fill="#7FD1C8"/>
<path d="M602.589 346.766C604.895 346.766 606.765 344.897 606.765 342.591C606.765 340.285 604.895 338.416 602.589 338.416C600.284 338.416 598.414 340.285 598.414 342.591C598.414 344.897 600.284 346.766 602.589 346.766Z" fill="#7FD1C8"/>
<path d="M335.321 346.766C337.627 346.766 339.496 344.897 339.496 342.591C339.496 340.285 337.627 338.416 335.321 338.416C333.015 338.416 331.146 340.285 331.146 342.591C331.146 344.897 333.015 346.766 335.321 346.766Z" fill="#7FD1C8"/>
<path d="M201.691 346.766C203.997 346.766 205.866 344.897 205.866 342.591C205.866 340.285 203.997 338.416 201.691 338.416C199.385 338.416 197.516 340.285 197.516 342.591C197.516 344.897 199.385 346.766 201.691 346.766Z" fill="#7FD1C8"/>
<path d="M268.503 346.766C270.809 346.766 272.678 344.897 272.678 342.591C272.678 340.285 270.809 338.416 268.503 338.416C266.197 338.416 264.328 340.285 264.328 342.591C264.328 344.897 266.197 346.766 268.503 346.766Z" fill="#7FD1C8"/>
<path d="M134.873 346.766C137.179 346.766 139.049 344.897 139.049 342.591C139.049 340.285 137.179 338.416 134.873 338.416C132.568 338.416 130.698 340.285 130.698 342.591C130.698 344.897 132.568 346.766 134.873 346.766Z" fill="#7FD1C8"/>
<path d="M535.774 346.766C538.079 346.766 539.949 344.897 539.949 342.591C539.949 340.285 538.079 338.416 535.774 338.416C533.468 338.416 531.598 340.285 531.598 342.591C531.598 344.897 533.468 346.766 535.774 346.766Z" fill="#7FD1C8"/>
<path d="M402.138 346.766C404.444 346.766 406.314 344.897 406.314 342.591C406.314 340.285 404.444 338.416 402.138 338.416C399.833 338.416 397.963 340.285 397.963 342.591C397.963 344.897 399.833 346.766 402.138 346.766Z" fill="#7FD1C8"/>
<path d="M468.956 346.766C471.262 346.766 473.131 344.897 473.131 342.591C473.131 340.285 471.262 338.416 468.956 338.416C466.65 338.416 464.781 340.285 464.781 342.591C464.781 344.897 466.65 346.766 468.956 346.766Z" fill="#7FD1C8"/>
<path d="M101.469 383.315C103.775 383.315 105.644 381.446 105.644 379.14C105.644 376.834 103.775 374.965 101.469 374.965C99.1633 374.965 97.294 376.834 97.294 379.14C97.294 381.446 99.1633 383.315 101.469 383.315Z" fill="#7FD1C8"/>
<path d="M636.004 383.315C638.31 383.315 640.18 381.446 640.18 379.14C640.18 376.834 638.31 374.965 636.004 374.965C633.699 374.965 631.829 376.834 631.829 379.14C631.829 381.446 633.699 383.315 636.004 383.315Z" fill="#7FD1C8"/>
<path d="M368.737 383.331C371.051 383.331 372.927 381.455 372.927 379.142C372.927 376.828 371.051 374.953 368.737 374.953C366.424 374.953 364.548 376.828 364.548 379.142C364.548 381.455 366.424 383.331 368.737 383.331Z" fill="#7FD1C8"/>
<path d="M235.104 383.315C237.41 383.315 239.28 381.446 239.28 379.14C239.28 376.834 237.41 374.965 235.104 374.965C232.798 374.965 230.929 376.834 230.929 379.14C230.929 381.446 232.798 383.315 235.104 383.315Z" fill="#7FD1C8"/>
<path d="M301.92 383.315C304.226 383.315 306.095 381.446 306.095 379.14C306.095 376.834 304.226 374.965 301.92 374.965C299.614 374.965 297.745 376.834 297.745 379.14C297.745 381.446 299.614 383.315 301.92 383.315Z" fill="#7FD1C8"/>
<path d="M168.287 383.315C170.593 383.315 172.462 381.446 172.462 379.14C172.462 376.834 170.593 374.965 168.287 374.965C165.981 374.965 164.112 376.834 164.112 379.14C164.112 381.446 165.981 383.315 168.287 383.315Z" fill="#7FD1C8"/>
<path d="M569.187 383.315C571.493 383.315 573.362 381.446 573.362 379.14C573.362 376.834 571.493 374.965 569.187 374.965C566.881 374.965 565.012 376.834 565.012 379.14C565.012 381.446 566.881 383.315 569.187 383.315Z" fill="#7FD1C8"/>
<path d="M435.555 383.331C437.869 383.331 439.744 381.455 439.744 379.142C439.744 376.828 437.869 374.953 435.555 374.953C433.241 374.953 431.366 376.828 431.366 379.142C431.366 381.455 433.241 383.331 435.555 383.331Z" fill="#7FD1C8"/>
<path d="M502.369 383.315C504.675 383.315 506.544 381.446 506.544 379.14C506.544 376.834 504.675 374.965 502.369 374.965C500.063 374.965 498.194 376.834 498.194 379.14C498.194 381.446 500.063 383.315 502.369 383.315Z" fill="#7FD1C8"/>
<path d="M68.0702 383.315C70.3761 383.315 72.2454 381.446 72.2454 379.14C72.2454 376.834 70.3761 374.965 68.0702 374.965C65.7644 374.965 63.8951 376.834 63.8951 379.14C63.8951 381.446 65.7644 383.315 68.0702 383.315Z" fill="#7FD1C8"/>
<path d="M602.589 383.315C604.895 383.315 606.765 381.446 606.765 379.14C606.765 376.834 604.895 374.965 602.589 374.965C600.284 374.965 598.414 376.834 598.414 379.14C598.414 381.446 600.284 383.315 602.589 383.315Z" fill="#7FD1C8"/>
<path d="M335.321 383.315C337.627 383.315 339.496 381.446 339.496 379.14C339.496 376.834 337.627 374.965 335.321 374.965C333.015 374.965 331.146 376.834 331.146 379.14C331.146 381.446 333.015 383.315 335.321 383.315Z" fill="#7FD1C8"/>
<path d="M201.691 383.315C203.997 383.315 205.866 381.446 205.866 379.14C205.866 376.834 203.997 374.965 201.691 374.965C199.385 374.965 197.516 376.834 197.516 379.14C197.516 381.446 199.385 383.315 201.691 383.315Z" fill="#7FD1C8"/>
<path d="M268.503 383.315C270.809 383.315 272.678 381.446 272.678 379.14C272.678 376.834 270.809 374.965 268.503 374.965C266.197 374.965 264.328 376.834 264.328 379.14C264.328 381.446 266.197 383.315 268.503 383.315Z" fill="#7FD1C8"/>
<path d="M134.873 383.315C137.179 383.315 139.049 381.446 139.049 379.14C139.049 376.834 137.179 374.965 134.873 374.965C132.568 374.965 130.698 376.834 130.698 379.14C130.698 381.446 132.568 383.315 134.873 383.315Z" fill="#7FD1C8"/>
<path d="M535.774 383.315C538.079 383.315 539.949 381.446 539.949 379.14C539.949 376.834 538.079 374.965 535.774 374.965C533.468 374.965 531.598 376.834 531.598 379.14C531.598 381.446 533.468 383.315 535.774 383.315Z" fill="#7FD1C8"/>
<path d="M402.138 383.315C404.444 383.315 406.314 381.446 406.314 379.14C406.314 376.834 404.444 374.965 402.138 374.965C399.833 374.965 397.963 376.834 397.963 379.14C397.963 381.446 399.833 383.315 402.138 383.315Z" fill="#7FD1C8"/>
<path d="M468.956 383.315C471.262 383.315 473.131 381.446 473.131 379.14C473.131 376.834 471.262 374.965 468.956 374.965C466.65 374.965 464.781 376.834 464.781 379.14C464.781 381.446 466.65 383.315 468.956 383.315Z" fill="#7FD1C8"/>
<path d="M101.469 419.866C103.775 419.866 105.644 417.997 105.644 415.691C105.644 413.385 103.775 411.516 101.469 411.516C99.1633 411.516 97.294 413.385 97.294 415.691C97.294 417.997 99.1633 419.866 101.469 419.866Z" fill="#7FD1C8"/>
<path d="M636.004 419.866C638.31 419.866 640.18 417.997 640.18 415.691C640.18 413.385 638.31 411.516 636.004 411.516C633.699 411.516 631.829 413.385 631.829 415.691C631.829 417.997 633.699 419.866 636.004 419.866Z" fill="#7FD1C8"/>
<path d="M368.737 419.88C371.051 419.88 372.927 418.005 372.927 415.691C372.927 413.377 371.051 411.502 368.737 411.502C366.424 411.502 364.548 413.377 364.548 415.691C364.548 418.005 366.424 419.88 368.737 419.88Z" fill="#7FD1C8"/>
<path d="M235.104 419.866C237.41 419.866 239.28 417.997 239.28 415.691C239.28 413.385 237.41 411.516 235.104 411.516C232.798 411.516 230.929 413.385 230.929 415.691C230.929 417.997 232.798 419.866 235.104 419.866Z" fill="#7FD1C8"/>
<path d="M301.92 419.866C304.226 419.866 306.095 417.997 306.095 415.691C306.095 413.385 304.226 411.516 301.92 411.516C299.614 411.516 297.745 413.385 297.745 415.691C297.745 417.997 299.614 419.866 301.92 419.866Z" fill="#7FD1C8"/>
<path d="M168.287 419.866C170.593 419.866 172.462 417.997 172.462 415.691C172.462 413.385 170.593 411.516 168.287 411.516C165.981 411.516 164.112 413.385 164.112 415.691C164.112 417.997 165.981 419.866 168.287 419.866Z" fill="#7FD1C8"/>
<path d="M569.187 419.866C571.493 419.866 573.362 417.997 573.362 415.691C573.362 413.385 571.493 411.516 569.187 411.516C566.881 411.516 565.012 413.385 565.012 415.691C565.012 417.997 566.881 419.866 569.187 419.866Z" fill="#7FD1C8"/>
<path d="M435.555 419.88C437.869 419.88 439.744 418.005 439.744 415.691C439.744 413.377 437.869 411.502 435.555 411.502C433.241 411.502 431.366 413.377 431.366 415.691C431.366 418.005 433.241 419.88 435.555 419.88Z" fill="#7FD1C8"/>
<path d="M502.369 419.866C504.675 419.866 506.544 417.997 506.544 415.691C506.544 413.385 504.675 411.516 502.369 411.516C500.063 411.516 498.194 413.385 498.194 415.691C498.194 417.997 500.063 419.866 502.369 419.866Z" fill="#7FD1C8"/>
<path d="M68.0702 419.866C70.3761 419.866 72.2454 417.997 72.2454 415.691C72.2454 413.385 70.3761 411.516 68.0702 411.516C65.7644 411.516 63.8951 413.385 63.8951 415.691C63.8951 417.997 65.7644 419.866 68.0702 419.866Z" fill="#7FD1C8"/>
<path d="M602.589 419.866C604.895 419.866 606.765 417.997 606.765 415.691C606.765 413.385 604.895 411.516 602.589 411.516C600.284 411.516 598.414 413.385 598.414 415.691C598.414 417.997 600.284 419.866 602.589 419.866Z" fill="#7FD1C8"/>
<path d="M335.321 419.866C337.627 419.866 339.496 417.997 339.496 415.691C339.496 413.385 337.627 411.516 335.321 411.516C333.015 411.516 331.146 413.385 331.146 415.691C331.146 417.997 333.015 419.866 335.321 419.866Z" fill="#7FD1C8"/>
<path d="M201.691 419.866C203.997 419.866 205.866 417.997 205.866 415.691C205.866 413.385 203.997 411.516 201.691 411.516C199.385 411.516 197.516 413.385 197.516 415.691C197.516 417.997 199.385 419.866 201.691 419.866Z" fill="#7FD1C8"/>
<path d="M268.503 419.866C270.809 419.866 272.678 417.997 272.678 415.691C272.678 413.385 270.809 411.516 268.503 411.516C266.197 411.516 264.328 413.385 264.328 415.691C264.328 417.997 266.197 419.866 268.503 419.866Z" fill="#7FD1C8"/>
<path d="M134.873 419.866C137.179 419.866 139.049 417.997 139.049 415.691C139.049 413.385 137.179 411.516 134.873 411.516C132.568 411.516 130.698 413.385 130.698 415.691C130.698 417.997 132.568 419.866 134.873 419.866Z" fill="#7FD1C8"/>
<path d="M535.774 419.866C538.079 419.866 539.949 417.997 539.949 415.691C539.949 413.385 538.079 411.516 535.774 411.516C533.468 411.516 531.598 413.385 531.598 415.691C531.598 417.997 533.468 419.866 535.774 419.866Z" fill="#7FD1C8"/>
<path d="M402.138 419.866C404.444 419.866 406.314 417.997 406.314 415.691C406.314 413.385 404.444 411.516 402.138 411.516C399.833 411.516 397.963 413.385 397.963 415.691C397.963 417.997 399.833 419.866 402.138 419.866Z" fill="#7FD1C8"/>
<path d="M468.956 419.866C471.262 419.866 473.131 417.997 473.131 415.691C473.131 413.385 471.262 411.516 468.956 411.516C466.65 411.516 464.781 413.385 464.781 415.691C464.781 417.997 466.65 419.866 468.956 419.866Z" fill="#7FD1C8"/>
<path d="M101.469 456.415C103.775 456.415 105.644 454.546 105.644 452.24C105.644 449.934 103.775 448.065 101.469 448.065C99.1633 448.065 97.294 449.934 97.294 452.24C97.294 454.546 99.1633 456.415 101.469 456.415Z" fill="#7FD1C8"/>
<path d="M636.002 456.433C638.316 456.433 640.192 454.557 640.192 452.243C640.192 449.93 638.316 448.054 636.002 448.054C633.689 448.054 631.813 449.93 631.813 452.243C631.813 454.557 633.689 456.433 636.002 456.433Z" fill="#7FD1C8"/>
<path d="M368.737 456.433C371.051 456.433 372.927 454.557 372.927 452.243C372.927 449.93 371.051 448.054 368.737 448.054C366.424 448.054 364.548 449.93 364.548 452.243C364.548 454.557 366.424 456.433 368.737 456.433Z" fill="#7FD1C8"/>
<path d="M235.104 456.415C237.41 456.415 239.28 454.546 239.28 452.24C239.28 449.934 237.41 448.065 235.104 448.065C232.798 448.065 230.929 449.934 230.929 452.24C230.929 454.546 232.798 456.415 235.104 456.415Z" fill="#7FD1C8"/>
<path d="M301.922 456.433C304.235 456.433 306.111 454.557 306.111 452.243C306.111 449.93 304.235 448.054 301.922 448.054C299.608 448.054 297.732 449.93 297.732 452.243C297.732 454.557 299.608 456.433 301.922 456.433Z" fill="#7FD1C8"/>
<path d="M168.287 456.415C170.593 456.415 172.462 454.546 172.462 452.24C172.462 449.934 170.593 448.065 168.287 448.065C165.981 448.065 164.112 449.934 164.112 452.24C164.112 454.546 165.981 456.415 168.287 456.415Z" fill="#7FD1C8"/>
<path d="M569.188 456.433C571.502 456.433 573.378 454.557 573.378 452.243C573.378 449.93 571.502 448.054 569.188 448.054C566.875 448.054 564.999 449.93 564.999 452.243C564.999 454.557 566.875 456.433 569.188 456.433Z" fill="#7FD1C8"/>
<path d="M435.555 456.433C437.869 456.433 439.744 454.557 439.744 452.243C439.744 449.93 437.869 448.054 435.555 448.054C433.241 448.054 431.366 449.93 431.366 452.243C431.366 454.557 433.241 456.433 435.555 456.433Z" fill="#7FD1C8"/>
<path d="M502.369 456.433C504.683 456.433 506.558 454.557 506.558 452.243C506.558 449.93 504.683 448.054 502.369 448.054C500.055 448.054 498.18 449.93 498.18 452.243C498.18 454.557 500.055 456.433 502.369 456.433Z" fill="#7FD1C8"/>
<path d="M68.07 456.433C70.3836 456.433 72.2592 454.557 72.2592 452.243C72.2592 449.93 70.3836 448.054 68.07 448.054C65.7563 448.054 63.8807 449.93 63.8807 452.243C63.8807 454.557 65.7563 456.433 68.07 456.433Z" fill="#7FD1C8"/>
<path d="M602.589 456.433C604.903 456.433 606.778 454.557 606.778 452.243C606.778 449.93 604.903 448.054 602.589 448.054C600.275 448.054 598.4 449.93 598.4 452.243C598.4 454.557 600.275 456.433 602.589 456.433Z" fill="#7FD1C8"/>
<path d="M335.321 456.433C337.634 456.433 339.51 454.557 339.51 452.243C339.51 449.93 337.634 448.054 335.321 448.054C333.007 448.054 331.131 449.93 331.131 452.243C331.131 454.557 333.007 456.433 335.321 456.433Z" fill="#7FD1C8"/>
<path d="M201.691 456.415C203.997 456.415 205.866 454.546 205.866 452.24C205.866 449.934 203.997 448.065 201.691 448.065C199.385 448.065 197.516 449.934 197.516 452.24C197.516 454.546 199.385 456.415 201.691 456.415Z" fill="#7FD1C8"/>
<path d="M268.503 456.415C270.809 456.415 272.678 454.546 272.678 452.24C272.678 449.934 270.809 448.065 268.503 448.065C266.197 448.065 264.328 449.934 264.328 452.24C264.328 454.546 266.197 456.415 268.503 456.415Z" fill="#7FD1C8"/>
<path d="M134.871 456.433C137.185 456.433 139.061 454.557 139.061 452.243C139.061 449.93 137.185 448.054 134.871 448.054C132.558 448.054 130.682 449.93 130.682 452.243C130.682 454.557 132.558 456.433 134.871 456.433Z" fill="#7FD1C8"/>
<path d="M535.772 456.433C538.085 456.433 539.961 454.557 539.961 452.243C539.961 449.93 538.085 448.054 535.772 448.054C533.458 448.054 531.582 449.93 531.582 452.243C531.582 454.557 533.458 456.433 535.772 456.433Z" fill="#7FD1C8"/>
<path d="M402.14 456.433C404.454 456.433 406.329 454.557 406.329 452.243C406.329 449.93 404.454 448.054 402.14 448.054C399.826 448.054 397.951 449.93 397.951 452.243C397.951 454.557 399.826 456.433 402.14 456.433Z" fill="#7FD1C8"/>
<path d="M468.954 456.433C471.268 456.433 473.143 454.557 473.143 452.243C473.143 449.93 471.268 448.054 468.954 448.054C466.64 448.054 464.765 449.93 464.765 452.243C464.765 454.557 466.64 456.433 468.954 456.433Z" fill="#7FD1C8"/>
<path d="M101.469 492.968C103.775 492.968 105.644 491.099 105.644 488.793C105.644 486.487 103.775 484.618 101.469 484.618C99.1633 484.618 97.294 486.487 97.294 488.793C97.294 491.099 99.1633 492.968 101.469 492.968Z" fill="#7FD1C8"/>
<path d="M636.002 492.982C638.316 492.982 640.192 491.106 640.192 488.792C640.192 486.479 638.316 484.603 636.002 484.603C633.689 484.603 631.813 486.479 631.813 488.792C631.813 491.106 633.689 492.982 636.002 492.982Z" fill="#7FD1C8"/>
<path d="M368.737 492.982C371.051 492.982 372.927 491.106 372.927 488.792C372.927 486.479 371.051 484.603 368.737 484.603C366.424 484.603 364.548 486.479 364.548 488.792C364.548 491.106 366.424 492.982 368.737 492.982Z" fill="#7FD1C8"/>
<path d="M235.104 492.968C237.41 492.968 239.28 491.099 239.28 488.793C239.28 486.487 237.41 484.618 235.104 484.618C232.798 484.618 230.929 486.487 230.929 488.793C230.929 491.099 232.798 492.968 235.104 492.968Z" fill="#7FD1C8"/>
<path d="M301.922 492.982C304.235 492.982 306.111 491.106 306.111 488.792C306.111 486.479 304.235 484.603 301.922 484.603C299.608 484.603 297.732 486.479 297.732 488.792C297.732 491.106 299.608 492.982 301.922 492.982Z" fill="#7FD1C8"/>
<path d="M168.287 492.968C170.593 492.968 172.462 491.099 172.462 488.793C172.462 486.487 170.593 484.618 168.287 484.618C165.981 484.618 164.112 486.487 164.112 488.793C164.112 491.099 165.981 492.968 168.287 492.968Z" fill="#7FD1C8"/>
<path d="M569.188 492.982C571.502 492.982 573.378 491.106 573.378 488.792C573.378 486.479 571.502 484.603 569.188 484.603C566.875 484.603 564.999 486.479 564.999 488.792C564.999 491.106 566.875 492.982 569.188 492.982Z" fill="#7FD1C8"/>
<path d="M435.555 492.982C437.869 492.982 439.744 491.106 439.744 488.792C439.744 486.479 437.869 484.603 435.555 484.603C433.241 484.603 431.366 486.479 431.366 488.792C431.366 491.106 433.241 492.982 435.555 492.982Z" fill="#7FD1C8"/>
<path d="M502.369 492.982C504.683 492.982 506.558 491.106 506.558 488.792C506.558 486.479 504.683 484.603 502.369 484.603C500.055 484.603 498.18 486.479 498.18 488.792C498.18 491.106 500.055 492.982 502.369 492.982Z" fill="#7FD1C8"/>
<path d="M68.07 492.982C70.3836 492.982 72.2592 491.106 72.2592 488.792C72.2592 486.479 70.3836 484.603 68.07 484.603C65.7563 484.603 63.8807 486.479 63.8807 488.792C63.8807 491.106 65.7563 492.982 68.07 492.982Z" fill="#7FD1C8"/>
<path d="M602.589 492.982C604.903 492.982 606.778 491.106 606.778 488.792C606.778 486.479 604.903 484.603 602.589 484.603C600.275 484.603 598.4 486.479 598.4 488.792C598.4 491.106 600.275 492.982 602.589 492.982Z" fill="#7FD1C8"/>
<path d="M335.321 492.982C337.634 492.982 339.51 491.106 339.51 488.792C339.51 486.479 337.634 484.603 335.321 484.603C333.007 484.603 331.131 486.479 331.131 488.792C331.131 491.106 333.007 492.982 335.321 492.982Z" fill="#7FD1C8"/>
<path d="M201.691 492.968C203.997 492.968 205.866 491.099 205.866 488.793C205.866 486.487 203.997 484.618 201.691 484.618C199.385 484.618 197.516 486.487 197.516 488.793C197.516 491.099 199.385 492.968 201.691 492.968Z" fill="#7FD1C8"/>
<path d="M268.503 492.968C270.809 492.968 272.678 491.099 272.678 488.793C272.678 486.487 270.809 484.618 268.503 484.618C266.197 484.618 264.328 486.487 264.328 488.793C264.328 491.099 266.197 492.968 268.503 492.968Z" fill="#7FD1C8"/>
<path d="M134.871 492.982C137.185 492.982 139.061 491.106 139.061 488.792C139.061 486.479 137.185 484.603 134.871 484.603C132.558 484.603 130.682 486.479 130.682 488.792C130.682 491.106 132.558 492.982 134.871 492.982Z" fill="#7FD1C8"/>
<path d="M535.772 492.982C538.085 492.982 539.961 491.106 539.961 488.792C539.961 486.479 538.085 484.603 535.772 484.603C533.458 484.603 531.582 486.479 531.582 488.792C531.582 491.106 533.458 492.982 535.772 492.982Z" fill="#7FD1C8"/>
<path d="M402.14 492.982C404.454 492.982 406.329 491.106 406.329 488.792C406.329 486.479 404.454 484.603 402.14 484.603C399.826 484.603 397.951 486.479 397.951 488.792C397.951 491.106 399.826 492.982 402.14 492.982Z" fill="#7FD1C8"/>
<path d="M468.954 492.982C471.268 492.982 473.143 491.106 473.143 488.792C473.143 486.479 471.268 484.603 468.954 484.603C466.64 484.603 464.765 486.479 464.765 488.792C464.765 491.106 466.64 492.982 468.954 492.982Z" fill="#7FD1C8"/>
<path d="M101.469 529.515C103.775 529.515 105.644 527.646 105.644 525.34C105.644 523.034 103.775 521.165 101.469 521.165C99.1633 521.165 97.294 523.034 97.294 525.34C97.294 527.646 99.1633 529.515 101.469 529.515Z" fill="#7FD1C8"/>
<path d="M636.002 529.529C638.316 529.529 640.192 527.653 640.192 525.34C640.192 523.026 638.316 521.151 636.002 521.151C633.689 521.151 631.813 523.026 631.813 525.34C631.813 527.653 633.689 529.529 636.002 529.529Z" fill="#7FD1C8"/>
<path d="M368.737 529.529C371.051 529.529 372.927 527.653 372.927 525.34C372.927 523.026 371.051 521.151 368.737 521.151C366.424 521.151 364.548 523.026 364.548 525.34C364.548 527.653 366.424 529.529 368.737 529.529Z" fill="#7FD1C8"/>
<path d="M235.104 529.515C237.41 529.515 239.28 527.646 239.28 525.34C239.28 523.034 237.41 521.165 235.104 521.165C232.798 521.165 230.929 523.034 230.929 525.34C230.929 527.646 232.798 529.515 235.104 529.515Z" fill="#7FD1C8"/>
<path d="M301.922 529.529C304.235 529.529 306.111 527.653 306.111 525.34C306.111 523.026 304.235 521.151 301.922 521.151C299.608 521.151 297.732 523.026 297.732 525.34C297.732 527.653 299.608 529.529 301.922 529.529Z" fill="#7FD1C8"/>
<path d="M168.287 529.515C170.593 529.515 172.462 527.646 172.462 525.34C172.462 523.034 170.593 521.165 168.287 521.165C165.981 521.165 164.112 523.034 164.112 525.34C164.112 527.646 165.981 529.515 168.287 529.515Z" fill="#7FD1C8"/>
<path d="M569.188 529.529C571.502 529.529 573.378 527.653 573.378 525.34C573.378 523.026 571.502 521.151 569.188 521.151C566.875 521.151 564.999 523.026 564.999 525.34C564.999 527.653 566.875 529.529 569.188 529.529Z" fill="#7FD1C8"/>
<path d="M435.555 529.529C437.869 529.529 439.744 527.653 439.744 525.34C439.744 523.026 437.869 521.151 435.555 521.151C433.241 521.151 431.366 523.026 431.366 525.34C431.366 527.653 433.241 529.529 435.555 529.529Z" fill="#7FD1C8"/>
<path d="M502.369 529.529C504.683 529.529 506.558 527.653 506.558 525.34C506.558 523.026 504.683 521.151 502.369 521.151C500.055 521.151 498.18 523.026 498.18 525.34C498.18 527.653 500.055 529.529 502.369 529.529Z" fill="#7FD1C8"/>
<path d="M68.07 529.529C70.3836 529.529 72.2592 527.653 72.2592 525.34C72.2592 523.026 70.3836 521.151 68.07 521.151C65.7563 521.151 63.8807 523.026 63.8807 525.34C63.8807 527.653 65.7563 529.529 68.07 529.529Z" fill="#7FD1C8"/>
<path d="M602.589 529.529C604.903 529.529 606.778 527.653 606.778 525.34C606.778 523.026 604.903 521.151 602.589 521.151C600.275 521.151 598.4 523.026 598.4 525.34C598.4 527.653 600.275 529.529 602.589 529.529Z" fill="#7FD1C8"/>
<path d="M335.321 529.529C337.634 529.529 339.51 527.653 339.51 525.34C339.51 523.026 337.634 521.151 335.321 521.151C333.007 521.151 331.131 523.026 331.131 525.34C331.131 527.653 333.007 529.529 335.321 529.529Z" fill="#7FD1C8"/>
<path d="M201.691 529.515C203.997 529.515 205.866 527.646 205.866 525.34C205.866 523.034 203.997 521.165 201.691 521.165C199.385 521.165 197.516 523.034 197.516 525.34C197.516 527.646 199.385 529.515 201.691 529.515Z" fill="#7FD1C8"/>
<path d="M268.503 529.515C270.809 529.515 272.678 527.646 272.678 525.34C272.678 523.034 270.809 521.165 268.503 521.165C266.197 521.165 264.328 523.034 264.328 525.34C264.328 527.646 266.197 529.515 268.503 529.515Z" fill="#7FD1C8"/>
<path d="M134.871 529.529C137.185 529.529 139.061 527.653 139.061 525.34C139.061 523.026 137.185 521.151 134.871 521.151C132.558 521.151 130.682 523.026 130.682 525.34C130.682 527.653 132.558 529.529 134.871 529.529Z" fill="#7FD1C8"/>
<path d="M535.772 529.529C538.085 529.529 539.961 527.653 539.961 525.34C539.961 523.026 538.085 521.151 535.772 521.151C533.458 521.151 531.582 523.026 531.582 525.34C531.582 527.653 533.458 529.529 535.772 529.529Z" fill="#7FD1C8"/>
<path d="M402.14 529.529C404.454 529.529 406.329 527.653 406.329 525.34C406.329 523.026 404.454 521.151 402.14 521.151C399.826 521.151 397.951 523.026 397.951 525.34C397.951 527.653 399.826 529.529 402.14 529.529Z" fill="#7FD1C8"/>
<path d="M468.954 529.529C471.268 529.529 473.143 527.653 473.143 525.34C473.143 523.026 471.268 521.151 468.954 521.151C466.64 521.151 464.765 523.026 464.765 525.34C464.765 527.653 466.64 529.529 468.954 529.529Z" fill="#7FD1C8"/>
<path d="M101.469 566.066C103.775 566.066 105.644 564.197 105.644 561.891C105.644 559.585 103.775 557.716 101.469 557.716C99.1633 557.716 97.294 559.585 97.294 561.891C97.294 564.197 99.1633 566.066 101.469 566.066Z" fill="#7FD1C8"/>
<path d="M636.002 566.082C638.316 566.082 640.192 564.206 640.192 561.893C640.192 559.579 638.316 557.703 636.002 557.703C633.689 557.703 631.813 559.579 631.813 561.893C631.813 564.206 633.689 566.082 636.002 566.082Z" fill="#7FD1C8"/>
<path d="M368.737 566.082C371.051 566.082 372.927 564.206 372.927 561.893C372.927 559.579 371.051 557.703 368.737 557.703C366.424 557.703 364.548 559.579 364.548 561.893C364.548 564.206 366.424 566.082 368.737 566.082Z" fill="#7FD1C8"/>
<path d="M235.104 566.066C237.41 566.066 239.28 564.197 239.28 561.891C239.28 559.585 237.41 557.716 235.104 557.716C232.798 557.716 230.929 559.585 230.929 561.891C230.929 564.197 232.798 566.066 235.104 566.066Z" fill="#7FD1C8"/>
<path d="M301.922 566.082C304.235 566.082 306.111 564.206 306.111 561.893C306.111 559.579 304.235 557.703 301.922 557.703C299.608 557.703 297.732 559.579 297.732 561.893C297.732 564.206 299.608 566.082 301.922 566.082Z" fill="#7FD1C8"/>
<path d="M168.287 566.066C170.593 566.066 172.462 564.197 172.462 561.891C172.462 559.585 170.593 557.716 168.287 557.716C165.981 557.716 164.112 559.585 164.112 561.891C164.112 564.197 165.981 566.066 168.287 566.066Z" fill="#7FD1C8"/>
<path d="M569.188 566.082C571.502 566.082 573.378 564.206 573.378 561.893C573.378 559.579 571.502 557.703 569.188 557.703C566.875 557.703 564.999 559.579 564.999 561.893C564.999 564.206 566.875 566.082 569.188 566.082Z" fill="#7FD1C8"/>
<path d="M435.555 566.082C437.869 566.082 439.744 564.206 439.744 561.893C439.744 559.579 437.869 557.703 435.555 557.703C433.241 557.703 431.366 559.579 431.366 561.893C431.366 564.206 433.241 566.082 435.555 566.082Z" fill="#7FD1C8"/>
<path d="M502.369 566.082C504.683 566.082 506.558 564.206 506.558 561.893C506.558 559.579 504.683 557.703 502.369 557.703C500.055 557.703 498.18 559.579 498.18 561.893C498.18 564.206 500.055 566.082 502.369 566.082Z" fill="#7FD1C8"/>
<path d="M68.07 566.082C70.3836 566.082 72.2592 564.206 72.2592 561.893C72.2592 559.579 70.3836 557.703 68.07 557.703C65.7563 557.703 63.8807 559.579 63.8807 561.893C63.8807 564.206 65.7563 566.082 68.07 566.082Z" fill="#7FD1C8"/>
<path d="M602.589 566.082C604.903 566.082 606.778 564.206 606.778 561.893C606.778 559.579 604.903 557.703 602.589 557.703C600.275 557.703 598.4 559.579 598.4 561.893C598.4 564.206 600.275 566.082 602.589 566.082Z" fill="#7FD1C8"/>
<path d="M335.321 566.082C337.634 566.082 339.51 564.206 339.51 561.893C339.51 559.579 337.634 557.703 335.321 557.703C333.007 557.703 331.131 559.579 331.131 561.893C331.131 564.206 333.007 566.082 335.321 566.082Z" fill="#7FD1C8"/>
<path d="M201.691 566.066C203.997 566.066 205.866 564.197 205.866 561.891C205.866 559.585 203.997 557.716 201.691 557.716C199.385 557.716 197.516 559.585 197.516 561.891C197.516 564.197 199.385 566.066 201.691 566.066Z" fill="#7FD1C8"/>
<path d="M268.503 566.066C270.809 566.066 272.678 564.197 272.678 561.891C272.678 559.585 270.809 557.716 268.503 557.716C266.197 557.716 264.328 559.585 264.328 561.891C264.328 564.197 266.197 566.066 268.503 566.066Z" fill="#7FD1C8"/>
<path d="M134.871 566.082C137.185 566.082 139.061 564.206 139.061 561.893C139.061 559.579 137.185 557.703 134.871 557.703C132.558 557.703 130.682 559.579 130.682 561.893C130.682 564.206 132.558 566.082 134.871 566.082Z" fill="#7FD1C8"/>
<path d="M535.772 566.082C538.085 566.082 539.961 564.206 539.961 561.893C539.961 559.579 538.085 557.703 535.772 557.703C533.458 557.703 531.582 559.579 531.582 561.893C531.582 564.206 533.458 566.082 535.772 566.082Z" fill="#7FD1C8"/>
<path d="M402.14 566.082C404.454 566.082 406.329 564.206 406.329 561.893C406.329 559.579 404.454 557.703 402.14 557.703C399.826 557.703 397.951 559.579 397.951 561.893C397.951 564.206 399.826 566.082 402.14 566.082Z" fill="#7FD1C8"/>
<path d="M468.954 566.082C471.268 566.082 473.143 564.206 473.143 561.893C473.143 559.579 471.268 557.703 468.954 557.703C466.64 557.703 464.765 559.579 464.765 561.893C464.765 564.206 466.64 566.082 468.954 566.082Z" fill="#7FD1C8"/>
<path d="M101.469 602.617C103.775 602.617 105.644 600.748 105.644 598.442C105.644 596.136 103.775 594.267 101.469 594.267C99.1633 594.267 97.294 596.136 97.294 598.442C97.294 600.748 99.1633 602.617 101.469 602.617Z" fill="#7FD1C8"/>
<path d="M636.002 602.631C638.316 602.631 640.192 600.755 640.192 598.442C640.192 596.128 638.316 594.252 636.002 594.252C633.689 594.252 631.813 596.128 631.813 598.442C631.813 600.755 633.689 602.631 636.002 602.631Z" fill="#7FD1C8"/>
<path d="M368.737 602.631C371.051 602.631 372.927 600.755 372.927 598.442C372.927 596.128 371.051 594.252 368.737 594.252C366.424 594.252 364.548 596.128 364.548 598.442C364.548 600.755 366.424 602.631 368.737 602.631Z" fill="#7FD1C8"/>
<path d="M235.104 602.617C237.41 602.617 239.28 600.748 239.28 598.442C239.28 596.136 237.41 594.267 235.104 594.267C232.798 594.267 230.929 596.136 230.929 598.442C230.929 600.748 232.798 602.617 235.104 602.617Z" fill="#7FD1C8"/>
<path d="M301.922 602.631C304.235 602.631 306.111 600.755 306.111 598.442C306.111 596.128 304.235 594.252 301.922 594.252C299.608 594.252 297.732 596.128 297.732 598.442C297.732 600.755 299.608 602.631 301.922 602.631Z" fill="#7FD1C8"/>
<path d="M168.287 602.617C170.593 602.617 172.462 600.748 172.462 598.442C172.462 596.136 170.593 594.267 168.287 594.267C165.981 594.267 164.112 596.136 164.112 598.442C164.112 600.748 165.981 602.617 168.287 602.617Z" fill="#7FD1C8"/>
<path d="M569.188 602.631C571.502 602.631 573.378 600.755 573.378 598.442C573.378 596.128 571.502 594.252 569.188 594.252C566.875 594.252 564.999 596.128 564.999 598.442C564.999 600.755 566.875 602.631 569.188 602.631Z" fill="#7FD1C8"/>
<path d="M435.555 602.631C437.869 602.631 439.744 600.755 439.744 598.442C439.744 596.128 437.869 594.252 435.555 594.252C433.241 594.252 431.366 596.128 431.366 598.442C431.366 600.755 433.241 602.631 435.555 602.631Z" fill="#7FD1C8"/>
<path d="M502.369 602.631C504.683 602.631 506.558 600.755 506.558 598.442C506.558 596.128 504.683 594.252 502.369 594.252C500.055 594.252 498.18 596.128 498.18 598.442C498.18 600.755 500.055 602.631 502.369 602.631Z" fill="#7FD1C8"/>
<path d="M68.07 602.631C70.3836 602.631 72.2592 600.755 72.2592 598.442C72.2592 596.128 70.3836 594.252 68.07 594.252C65.7563 594.252 63.8807 596.128 63.8807 598.442C63.8807 600.755 65.7563 602.631 68.07 602.631Z" fill="#7FD1C8"/>
<path d="M602.589 602.631C604.903 602.631 606.778 600.755 606.778 598.442C606.778 596.128 604.903 594.252 602.589 594.252C600.275 594.252 598.4 596.128 598.4 598.442C598.4 600.755 600.275 602.631 602.589 602.631Z" fill="#7FD1C8"/>
<path d="M335.321 602.631C337.634 602.631 339.51 600.755 339.51 598.442C339.51 596.128 337.634 594.252 335.321 594.252C333.007 594.252 331.131 596.128 331.131 598.442C331.131 600.755 333.007 602.631 335.321 602.631Z" fill="#7FD1C8"/>
<path d="M201.691 602.617C203.997 602.617 205.866 600.748 205.866 598.442C205.866 596.136 203.997 594.267 201.691 594.267C199.385 594.267 197.516 596.136 197.516 598.442C197.516 600.748 199.385 602.617 201.691 602.617Z" fill="#7FD1C8"/>
<path d="M268.503 602.617C270.809 602.617 272.678 600.748 272.678 598.442C272.678 596.136 270.809 594.267 268.503 594.267C266.197 594.267 264.328 596.136 264.328 598.442C264.328 600.748 266.197 602.617 268.503 602.617Z" fill="#7FD1C8"/>
<path d="M134.871 602.631C137.185 602.631 139.061 600.755 139.061 598.442C139.061 596.128 137.185 594.252 134.871 594.252C132.558 594.252 130.682 596.128 130.682 598.442C130.682 600.755 132.558 602.631 134.871 602.631Z" fill="#7FD1C8"/>
<path d="M535.772 602.631C538.085 602.631 539.961 600.755 539.961 598.442C539.961 596.128 538.085 594.252 535.772 594.252C533.458 594.252 531.582 596.128 531.582 598.442C531.582 600.755 533.458 602.631 535.772 602.631Z" fill="#7FD1C8"/>
<path d="M402.14 602.631C404.454 602.631 406.329 600.755 406.329 598.442C406.329 596.128 404.454 594.252 402.14 594.252C399.826 594.252 397.951 596.128 397.951 598.442C397.951 600.755 399.826 602.631 402.14 602.631Z" fill="#7FD1C8"/>
<path d="M468.954 602.631C471.268 602.631 473.143 600.755 473.143 598.442C473.143 596.128 471.268 594.252 468.954 594.252C466.64 594.252 464.765 596.128 464.765 598.442C464.765 600.755 466.64 602.631 468.954 602.631Z" fill="#7FD1C8"/>
<path d="M140.239 537.671L127.272 504.2C104.071 444.333 141.151 408.577 196.938 436.988C249.783 463.895 286.745 433.283 269.193 377.152L224.51 234.3C209.918 187.65 233.053 156.646 275.195 166.411L302.84 172.816C332.929 179.785 354.606 165.951 357.545 137.89L363.29 83.0676" stroke="#A7E7DF" stroke-width="7" stroke-miterlimit="10"/>
<g filter="url(#filter0_dd_204_98)">
<rect x="243.084" y="167.18" width="486" height="120" rx="12" fill="#3F3F3D"/>
<rect x="363.084" y="219.18" width="326" height="16" rx="8" fill="#8E8E8D"/>
<rect x="271.084" y="197.18" width="59.1667" height="59.1667" rx="12" fill="#089181"/>
</g>
<g filter="url(#filter1_dd_204_98)">
<rect x="243.084" y="311.18" width="486" height="120" rx="12" fill="#3F3F3D"/>
<rect x="363.084" y="363.18" width="326" height="16" rx="8" fill="#8E8E8D"/>
<rect x="271.084" y="341.18" width="59.1667" height="59.1667" rx="12" fill="#30A699"/>
<path d="M345.922 394.825L332.706 381.608L343.542 376.963C343.759 376.871 343.892 376.652 343.876 376.417C343.86 376.183 343.696 375.985 343.469 375.923L314.78 368.199C314.589 368.147 314.385 368.203 314.246 368.342C314.106 368.482 314.051 368.685 314.103 368.876L321.827 397.565C321.888 397.792 322.086 397.956 322.321 397.972C322.562 397.985 322.775 397.855 322.867 397.639L327.511 386.802L340.728 400.019C340.836 400.126 340.977 400.18 341.118 400.18C341.259 400.18 341.401 400.126 341.508 400.019L345.922 395.605C346.138 395.389 346.138 395.04 345.922 394.825Z" fill="white"/>
</g>
<g filter="url(#filter2_dd_204_98)">
<rect width="486" height="120" transform="translate(243.084 455.18)" fill="#3F3F3D"/>
<rect x="243.084" y="455.18" width="486" height="120" rx="12" fill="#3F3F3D"/>
<rect x="363.084" y="507.18" width="326" height="16" rx="8" fill="#8E8E8D"/>
<rect x="271.084" y="485.18" width="59.1667" height="59.1667" rx="12" fill="#A7E7DF"/>
</g>
<g filter="url(#filter3_dd_204_98)">
<rect x="243.084" y="599.18" width="486" height="120" rx="12" fill="#3F3F3D"/>
<rect x="363.084" y="651.18" width="326" height="16" rx="8" fill="#8E8E8D"/>
<rect x="272.084" y="630.18" width="57.1667" height="57.1667" rx="11" fill="#BBF1EB" stroke="#F1F2F4" stroke-width="2"/>
</g>
<g filter="url(#filter4_d_204_98)">
<g clip-path="url(#clip0_204_98)">
<rect x="326.881" y="25" width="92.8288" height="92" rx="46" fill="#089181"/>
<g clip-path="url(#clip1_204_98)">
<path fill-rule="evenodd" clip-rule="evenodd" d="M378.533 51C379.078 51 379.628 51.2077 380.049 51.6342L381.07 52.6557L379.836 54.9063L382.086 53.6715L388.065 59.6488L384.107 65.8786L390.338 61.9218L392.263 63.8469L392.437 64.0434C393.038 64.8179 393.027 65.9123 392.437 66.6756L392.258 66.8776L381.581 77.5525L366.336 62.3091L377.012 51.6342C377.433 51.2133 377.983 51 378.533 51Z" fill="white"/>
<path fill-rule="evenodd" clip-rule="evenodd" d="M364.814 63.8301L380.06 79.0735L378.533 80.5945C377.753 81.3746 376.524 81.4195 375.693 80.7741L375.491 80.6001L371.444 76.5591L371.023 77.0923C366.482 82.7497 361.413 88.5305 360.329 89.653L360.24 89.7428C358.556 91.4265 355.828 91.4265 354.144 89.7428C352.46 88.0591 352.46 85.3314 354.144 83.6477C355.031 82.7609 361.329 77.227 367.324 72.4452L367.733 72.8549L363.282 68.4042C362.507 67.6297 362.446 66.4174 363.108 65.5699L363.288 65.3679L364.809 63.8413L364.814 63.8301Z" fill="white"/>
</g>
</g>
</g>
<g filter="url(#filter5_dd_204_98)">
<rect width="59.4571" height="59.4571" rx="12" transform="matrix(0.866044 -0.499967 0.866044 0.499967 90.8807 641.633)" fill="#089181"/>
</g>
<g filter="url(#filter6_dd_204_98)">
<rect width="59.4571" height="59.4571" rx="12" transform="matrix(0.866044 -0.499967 0.866044 0.499967 90.8807 598.18)" fill="#58BCB0"/>
</g>
<g filter="url(#filter7_dd_204_98)">
<rect width="59.4571" height="59.4571" rx="12" transform="matrix(0.866044 -0.499967 0.866044 0.499967 90.8807 554.727)" fill="#A7E7DF"/>
</g>
<defs>
<filter id="filter0_dd_204_98" x="231.084" y="163.18" width="510" height="144" filterUnits="userSpaceOnUse" color-interpolation-filters="sRGB">
<feFlood flood-opacity="0" result="BackgroundImageFix"/>
<feColorMatrix in="SourceAlpha" type="matrix" values="0 0 0 0 0 0 0 0 0 0 0 0 0 0 0 0 0 0 127 0" result="hardAlpha"/>
<feOffset dy="8"/>
<feGaussianBlur stdDeviation="6"/>
<feColorMatrix type="matrix" values="0 0 0 0 0.0352941 0 0 0 0 0.117647 0 0 0 0 0.258824 0 0 0 0.15 0"/>
<feBlend mode="normal" in2="BackgroundImageFix" result="effect1_dropShadow_204_98"/>
<feColorMatrix in="SourceAlpha" type="matrix" values="0 0 0 0 0 0 0 0 0 0 0 0 0 0 0 0 0 0 127 0" result="hardAlpha"/>
<feOffset/>
<feGaussianBlur stdDeviation="0.5"/>
<feColorMatrix type="matrix" values="0 0 0 0 0.0352941 0 0 0 0 0.117647 0 0 0 0 0.258824 0 0 0 0.31 0"/>
<feBlend mode="normal" in2="effect1_dropShadow_204_98" result="effect2_dropShadow_204_98"/>
<feBlend mode="normal" in="SourceGraphic" in2="effect2_dropShadow_204_98" result="shape"/>
</filter>
<filter id="filter1_dd_204_98" x="231.084" y="307.18" width="510" height="144" filterUnits="userSpaceOnUse" color-interpolation-filters="sRGB">
<feFlood flood-opacity="0" result="BackgroundImageFix"/>
<feColorMatrix in="SourceAlpha" type="matrix" values="0 0 0 0 0 0 0 0 0 0 0 0 0 0 0 0 0 0 127 0" result="hardAlpha"/>
<feOffset dy="8"/>
<feGaussianBlur stdDeviation="6"/>
<feColorMatrix type="matrix" values="0 0 0 0 0.0352941 0 0 0 0 0.117647 0 0 0 0 0.258824 0 0 0 0.15 0"/>
<feBlend mode="normal" in2="BackgroundImageFix" result="effect1_dropShadow_204_98"/>
<feColorMatrix in="SourceAlpha" type="matrix" values="0 0 0 0 0 0 0 0 0 0 0 0 0 0 0 0 0 0 127 0" result="hardAlpha"/>
<feOffset/>
<feGaussianBlur stdDeviation="0.5"/>
<feColorMatrix type="matrix" values="0 0 0 0 0.0352941 0 0 0 0 0.117647 0 0 0 0 0.258824 0 0 0 0.31 0"/>
<feBlend mode="normal" in2="effect1_dropShadow_204_98" result="effect2_dropShadow_204_98"/>
<feBlend mode="normal" in="SourceGraphic" in2="effect2_dropShadow_204_98" result="shape"/>
</filter>
<filter id="filter2_dd_204_98" x="231.084" y="451.18" width="510" height="144" filterUnits="userSpaceOnUse" color-interpolation-filters="sRGB">
<feFlood flood-opacity="0" result="BackgroundImageFix"/>
<feColorMatrix in="SourceAlpha" type="matrix" values="0 0 0 0 0 0 0 0 0 0 0 0 0 0 0 0 0 0 127 0" result="hardAlpha"/>
<feOffset dy="8"/>
<feGaussianBlur stdDeviation="6"/>
<feColorMatrix type="matrix" values="0 0 0 0 0.0352941 0 0 0 0 0.117647 0 0 0 0 0.258824 0 0 0 0.15 0"/>
<feBlend mode="normal" in2="BackgroundImageFix" result="effect1_dropShadow_204_98"/>
<feColorMatrix in="SourceAlpha" type="matrix" values="0 0 0 0 0 0 0 0 0 0 0 0 0 0 0 0 0 0 127 0" result="hardAlpha"/>
<feOffset/>
<feGaussianBlur stdDeviation="0.5"/>
<feColorMatrix type="matrix" values="0 0 0 0 0.0352941 0 0 0 0 0.117647 0 0 0 0 0.258824 0 0 0 0.31 0"/>
<feBlend mode="normal" in2="effect1_dropShadow_204_98" result="effect2_dropShadow_204_98"/>
<feBlend mode="normal" in="SourceGraphic" in2="effect2_dropShadow_204_98" result="shape"/>
</filter>
<filter id="filter3_dd_204_98" x="231.084" y="595.18" width="510" height="144" filterUnits="userSpaceOnUse" color-interpolation-filters="sRGB">
<feFlood flood-opacity="0" result="BackgroundImageFix"/>
<feColorMatrix in="SourceAlpha" type="matrix" values="0 0 0 0 0 0 0 0 0 0 0 0 0 0 0 0 0 0 127 0" result="hardAlpha"/>
<feOffset dy="8"/>
<feGaussianBlur stdDeviation="6"/>
<feColorMatrix type="matrix" values="0 0 0 0 0.0352941 0 0 0 0 0.117647 0 0 0 0 0.258824 0 0 0 0.15 0"/>
<feBlend mode="normal" in2="BackgroundImageFix" result="effect1_dropShadow_204_98"/>
<feColorMatrix in="SourceAlpha" type="matrix" values="0 0 0 0 0 0 0 0 0 0 0 0 0 0 0 0 0 0 127 0" result="hardAlpha"/>
<feOffset/>
<feGaussianBlur stdDeviation="0.5"/>
<feColorMatrix type="matrix" values="0 0 0 0 0.0352941 0 0 0 0 0.117647 0 0 0 0 0.258824 0 0 0 0.31 0"/>
<feBlend mode="normal" in2="effect1_dropShadow_204_98" result="effect2_dropShadow_204_98"/>
<feBlend mode="normal" in="SourceGraphic" in2="effect2_dropShadow_204_98" result="shape"/>
</filter>
<filter id="filter4_d_204_98" x="296.693" y="0.5625" width="153.204" height="152.375" filterUnits="userSpaceOnUse" color-interpolation-filters="sRGB">
<feFlood flood-opacity="0" result="BackgroundImageFix"/>
<feColorMatrix in="SourceAlpha" type="matrix" values="0 0 0 0 0 0 0 0 0 0 0 0 0 0 0 0 0 0 127 0" result="hardAlpha"/>
<feOffset dy="5.75"/>
<feGaussianBlur stdDeviation="15.0938"/>
<feComposite in2="hardAlpha" operator="out"/>
<feColorMatrix type="matrix" values="0 0 0 0 0.0352941 0 0 0 0 0.117647 0 0 0 0 0.258824 0 0 0 0.22 0"/>
<feBlend mode="normal" in2="BackgroundImageFix" result="effect1_dropShadow_204_98"/>
<feBlend mode="normal" in="SourceGraphic" in2="effect1_dropShadow_204_98" result="shape"/>
</filter>
<filter id="filter5_dd_204_98" x="84.9686" y="611.421" width="114.809" height="76.4243" filterUnits="userSpaceOnUse" color-interpolation-filters="sRGB">
<feFlood flood-opacity="0" result="BackgroundImageFix"/>
<feColorMatrix in="SourceAlpha" type="matrix" values="0 0 0 0 0 0 0 0 0 0 0 0 0 0 0 0 0 0 127 0" result="hardAlpha"/>
<feOffset dy="8"/>
<feGaussianBlur stdDeviation="6"/>
<feColorMatrix type="matrix" values="0 0 0 0 0.0352941 0 0 0 0 0.117647 0 0 0 0 0.258824 0 0 0 0.15 0"/>
<feBlend mode="normal" in2="BackgroundImageFix" result="effect1_dropShadow_204_98"/>
<feColorMatrix in="SourceAlpha" type="matrix" values="0 0 0 0 0 0 0 0 0 0 0 0 0 0 0 0 0 0 127 0" result="hardAlpha"/>
<feOffset/>
<feGaussianBlur stdDeviation="0.5"/>
<feColorMatrix type="matrix" values="0 0 0 0 0.0352941 0 0 0 0 0.117647 0 0 0 0 0.258824 0 0 0 0.31 0"/>
<feBlend mode="normal" in2="effect1_dropShadow_204_98" result="effect2_dropShadow_204_98"/>
<feBlend mode="normal" in="SourceGraphic" in2="effect2_dropShadow_204_98" result="shape"/>
</filter>
<filter id="filter6_dd_204_98" x="84.9686" y="567.968" width="114.809" height="76.4243" filterUnits="userSpaceOnUse" color-interpolation-filters="sRGB">
<feFlood flood-opacity="0" result="BackgroundImageFix"/>
<feColorMatrix in="SourceAlpha" type="matrix" values="0 0 0 0 0 0 0 0 0 0 0 0 0 0 0 0 0 0 127 0" result="hardAlpha"/>
<feOffset dy="8"/>
<feGaussianBlur stdDeviation="6"/>
<feColorMatrix type="matrix" values="0 0 0 0 0.0352941 0 0 0 0 0.117647 0 0 0 0 0.258824 0 0 0 0.15 0"/>
<feBlend mode="normal" in2="BackgroundImageFix" result="effect1_dropShadow_204_98"/>
<feColorMatrix in="SourceAlpha" type="matrix" values="0 0 0 0 0 0 0 0 0 0 0 0 0 0 0 0 0 0 127 0" result="hardAlpha"/>
<feOffset/>
<feGaussianBlur stdDeviation="0.5"/>
<feColorMatrix type="matrix" values="0 0 0 0 0.0352941 0 0 0 0 0.117647 0 0 0 0 0.258824 0 0 0 0.31 0"/>
<feBlend mode="normal" in2="effect1_dropShadow_204_98" result="effect2_dropShadow_204_98"/>
<feBlend mode="normal" in="SourceGraphic" in2="effect2_dropShadow_204_98" result="shape"/>
</filter>
<filter id="filter7_dd_204_98" x="84.9686" y="524.515" width="114.809" height="76.4243" filterUnits="userSpaceOnUse" color-interpolation-filters="sRGB">
<feFlood flood-opacity="0" result="BackgroundImageFix"/>
<feColorMatrix in="SourceAlpha" type="matrix" values="0 0 0 0 0 0 0 0 0 0 0 0 0 0 0 0 0 0 127 0" result="hardAlpha"/>
<feOffset dy="8"/>
<feGaussianBlur stdDeviation="6"/>
<feColorMatrix type="matrix" values="0 0 0 0 0.0352941 0 0 0 0 0.117647 0 0 0 0 0.258824 0 0 0 0.15 0"/>
<feBlend mode="normal" in2="BackgroundImageFix" result="effect1_dropShadow_204_98"/>
<feColorMatrix in="SourceAlpha" type="matrix" values="0 0 0 0 0 0 0 0 0 0 0 0 0 0 0 0 0 0 127 0" result="hardAlpha"/>
<feOffset/>
<feGaussianBlur stdDeviation="0.5"/>
<feColorMatrix type="matrix" values="0 0 0 0 0.0352941 0 0 0 0 0.117647 0 0 0 0 0.258824 0 0 0 0.31 0"/>
<feBlend mode="normal" in2="effect1_dropShadow_204_98" result="effect2_dropShadow_204_98"/>
<feBlend mode="normal" in="SourceGraphic" in2="effect2_dropShadow_204_98" result="shape"/>
</filter>
<clipPath id="clip0_204_98">
<rect x="326.881" y="25" width="92.8288" height="92" rx="46" fill="white"/>
</clipPath>
<clipPath id="clip1_204_98">
<rect width="40" height="40" fill="white" transform="translate(352.881 51)"/>
</clipPath>
</defs>
</svg>
