<svg width="57" height="23" viewBox="0 0 57 23" fill="none" xmlns="http://www.w3.org/2000/svg">
<g clip-path="url(#clip0_29_4)">
<path d="M5.736 1.504V3.712H5.136C4.528 3.712 4.088 3.84 3.816 4.096C3.56 4.352 3.432 4.712 3.432 5.176V5.752H5.376V9.688H1.08V5.008C1.08 3.68 1.4 2.768 2.04 2.272C2.68 1.76 3.52 1.504 4.56 1.504H5.736ZM7.41319 19V5.944H11.9972V19H7.41319ZM7.41319 4.576V1.504H11.9972V4.576H7.41319ZM14.0091 19V15.736L19.6731 9.616H14.4411V5.944H25.5531V9.136L19.8891 15.328H25.8171V19H14.0091ZM33.6169 19.24C32.1929 19.24 30.9769 18.968 29.9689 18.424C28.9769 17.864 28.2169 17.088 27.6889 16.096C27.1609 15.088 26.8969 13.92 26.8969 12.592C26.8969 11.168 27.1689 9.944 27.7129 8.92C28.2569 7.88 29.0169 7.088 29.9929 6.544C30.9849 5.984 32.1369 5.704 33.4489 5.704C35.0329 5.704 36.3289 6.048 37.3369 6.736C38.3449 7.408 39.0649 8.336 39.4969 9.52C39.9449 10.704 40.0889 12.048 39.9289 13.552H31.4089C31.3929 14.032 31.4729 14.448 31.6489 14.8C31.8409 15.136 32.1049 15.392 32.4409 15.568C32.7769 15.744 33.1689 15.832 33.6169 15.832C34.0969 15.832 34.5129 15.736 34.8649 15.544C35.2169 15.336 35.4409 15.072 35.5369 14.752H39.8329C39.7369 15.648 39.4089 16.432 38.8489 17.104C38.3049 17.776 37.5849 18.304 36.6889 18.688C35.7929 19.056 34.7689 19.24 33.6169 19.24ZM31.4089 11.2L31.0249 10.816H35.8249L35.4169 11.176C35.4489 10.728 35.3849 10.352 35.2249 10.048C35.0649 9.744 34.8329 9.512 34.5289 9.352C34.2249 9.176 33.8649 9.088 33.4489 9.088C33.0169 9.088 32.6409 9.176 32.3209 9.352C32.0169 9.528 31.7849 9.776 31.6249 10.096C31.4649 10.416 31.3929 10.784 31.4089 11.2ZM46.5401 19.24C45.7721 19.24 45.0761 19.104 44.4521 18.832C43.8281 18.56 43.2841 18.144 42.8201 17.584C42.3721 17.024 42.0281 16.32 41.7881 15.472C41.5481 14.624 41.4281 13.624 41.4281 12.472C41.4281 10.936 41.6361 9.672 42.0521 8.68C42.4841 7.672 43.0841 6.928 43.8521 6.448C44.6201 5.952 45.5161 5.704 46.5401 5.704C47.1641 5.704 47.7241 5.8 48.2201 5.992C48.7321 6.168 49.1721 6.424 49.5401 6.76C49.9081 7.096 50.1881 7.488 50.3801 7.936H50.6201V1.504H55.2041V19H50.7881L50.6201 17.008H50.3801C50.0921 17.68 49.6121 18.224 48.9401 18.64C48.2681 19.04 47.4681 19.24 46.5401 19.24ZM48.3401 15.568C48.8841 15.568 49.3161 15.448 49.6361 15.208C49.9561 14.952 50.1881 14.632 50.3321 14.248C50.4921 13.848 50.5721 13.432 50.5721 13V11.944C50.5721 11.608 50.5321 11.288 50.4521 10.984C50.3721 10.68 50.2441 10.408 50.0681 10.168C49.8921 9.928 49.6601 9.736 49.3721 9.592C49.0841 9.448 48.7401 9.376 48.3401 9.376C47.8921 9.376 47.5001 9.48 47.1641 9.688C46.8281 9.896 46.5641 10.224 46.3721 10.672C46.1961 11.12 46.1081 11.72 46.1081 12.472C46.1081 13.208 46.1961 13.808 46.3721 14.272C46.5641 14.72 46.8281 15.048 47.1641 15.256C47.5001 15.464 47.8921 15.568 48.3401 15.568Z" fill="#BC72EE"/>
</g>
<defs>
<clipPath id="clip0_29_4">
<rect width="57" height="23" fill="white"/>
</clipPath>
</defs>
</svg>
