<svg width="212" height="24" viewBox="0 0 212 24" fill="none" xmlns="http://www.w3.org/2000/svg">
<g clip-path="url(#clip0_29_2)">
<path d="M1.656 19V1.504H9.504C11.296 1.504 12.8 1.872 14.016 2.608C15.232 3.344 16.152 4.368 16.776 5.68C17.4 6.992 17.712 8.52 17.712 10.264C17.712 11.56 17.536 12.744 17.184 13.816C16.832 14.888 16.304 15.816 15.6 16.6C14.912 17.368 14.056 17.96 13.032 18.376C12.024 18.792 10.848 19 9.504 19H1.656ZM6.528 14.896H8.664C9.224 14.896 9.744 14.84 10.224 14.728C10.72 14.6 11.152 14.376 11.52 14.056C11.904 13.72 12.2 13.24 12.408 12.616C12.632 11.992 12.744 11.176 12.744 10.168C12.744 8.904 12.56 7.944 12.192 7.288C11.84 6.632 11.36 6.192 10.752 5.968C10.144 5.728 9.448 5.608 8.664 5.608H6.528V14.896ZM25.8122 19.24C24.3882 19.24 23.1722 18.968 22.1642 18.424C21.1722 17.864 20.4122 17.088 19.8842 16.096C19.3562 15.088 19.0922 13.92 19.0922 12.592C19.0922 11.168 19.3642 9.944 19.9082 8.92C20.4522 7.88 21.2122 7.088 22.1882 6.544C23.1802 5.984 24.3322 5.704 25.6442 5.704C27.2282 5.704 28.5242 6.048 29.5322 6.736C30.5402 7.408 31.2602 8.336 31.6922 9.52C32.1402 10.704 32.2842 12.048 32.1242 13.552H23.6042C23.5882 14.032 23.6682 14.448 23.8442 14.8C24.0362 15.136 24.3002 15.392 24.6362 15.568C24.9722 15.744 25.3642 15.832 25.8122 15.832C26.2922 15.832 26.7082 15.736 27.0602 15.544C27.4122 15.336 27.6362 15.072 27.7322 14.752H32.0282C31.9322 15.648 31.6042 16.432 31.0442 17.104C30.5002 17.776 29.7802 18.304 28.8842 18.688C27.9882 19.056 26.9642 19.24 25.8122 19.24ZM23.6042 11.2L23.2202 10.816H28.0202L27.6122 11.176C27.6442 10.728 27.5802 10.352 27.4202 10.048C27.2602 9.744 27.0282 9.512 26.7242 9.352C26.4202 9.176 26.0602 9.088 25.6442 9.088C25.2122 9.088 24.8362 9.176 24.5162 9.352C24.2122 9.528 23.9802 9.776 23.8202 10.096C23.6602 10.416 23.5882 10.784 23.6042 11.2ZM39.6531 19.24C37.6531 19.24 36.1091 18.84 35.0211 18.04C33.9331 17.224 33.3971 16.16 33.4131 14.848H37.9251C37.9411 15.36 38.1251 15.72 38.4771 15.928C38.8451 16.12 39.2771 16.216 39.7731 16.216C40.3171 16.216 40.7171 16.136 40.9731 15.976C41.2291 15.8 41.3571 15.584 41.3571 15.328C41.3571 15.024 41.2771 14.808 41.1171 14.68C40.9571 14.536 40.7091 14.432 40.3731 14.368C40.0531 14.304 39.6371 14.24 39.1251 14.176C38.4211 14.08 37.7491 13.96 37.1091 13.816C36.4691 13.656 35.8931 13.432 35.3811 13.144C34.8851 12.84 34.4851 12.44 34.1811 11.944C33.8931 11.448 33.7491 10.816 33.7491 10.048C33.7491 9.056 34.0051 8.24 34.5171 7.6C35.0291 6.96 35.7411 6.488 36.6531 6.184C37.5651 5.864 38.6291 5.704 39.8451 5.704C41.0131 5.704 42.0291 5.872 42.8931 6.208C43.7571 6.528 44.4291 7 44.9091 7.624C45.4051 8.232 45.6691 8.976 45.7011 9.856H41.2131C41.2131 9.632 41.1491 9.44 41.0211 9.28C40.9091 9.104 40.7411 8.968 40.5171 8.872C40.2931 8.776 40.0211 8.728 39.7011 8.728C39.2371 8.728 38.8931 8.808 38.6691 8.968C38.4451 9.128 38.3331 9.336 38.3331 9.592C38.3331 9.816 38.4131 10 38.5731 10.144C38.7331 10.272 38.9811 10.376 39.3171 10.456C39.6531 10.52 40.0851 10.584 40.6131 10.648C41.2851 10.728 41.9411 10.84 42.5811 10.984C43.2211 11.128 43.7971 11.344 44.3091 11.632C44.8211 11.904 45.2291 12.304 45.5331 12.832C45.8371 13.36 45.9891 14.048 45.9891 14.896C45.9891 16.432 45.4291 17.544 44.3091 18.232C43.2051 18.904 41.6531 19.24 39.6531 19.24ZM47.9366 19V5.944H52.5206V19H47.9366ZM47.9366 4.576V1.504H52.5206V4.576H47.9366ZM60.8925 23.248C59.6445 23.248 58.5805 23.072 57.7005 22.72C56.8205 22.368 56.1325 21.872 55.6365 21.232C55.1565 20.608 54.8925 19.88 54.8445 19.048H59.2605C59.2925 19.24 59.3805 19.408 59.5245 19.552C59.6845 19.712 59.8845 19.832 60.1245 19.912C60.3805 20.008 60.6765 20.056 61.0125 20.056C61.6205 20.056 62.0845 19.968 62.4045 19.792C62.7405 19.632 62.9725 19.4 63.1005 19.096C63.2285 18.792 63.2925 18.44 63.2925 18.04V16.144H63.0525C62.7965 16.752 62.3405 17.248 61.6845 17.632C61.0445 18 60.3005 18.184 59.4525 18.184C58.7005 18.184 58.0125 18.056 57.3885 17.8C56.7805 17.544 56.2525 17.16 55.8045 16.648C55.3565 16.136 55.0125 15.488 54.7725 14.704C54.5325 13.92 54.4125 13 54.4125 11.944C54.4125 10.52 54.6205 9.352 55.0365 8.44C55.4685 7.512 56.0605 6.824 56.8125 6.376C57.5645 5.928 58.4445 5.704 59.4525 5.704C60.3005 5.704 61.0445 5.896 61.6845 6.28C62.3405 6.648 62.7965 7.136 63.0525 7.744H63.2925L63.4365 5.944H67.8765V17.08C67.8765 18.232 67.7085 19.2 67.3725 19.984C67.0525 20.784 66.5805 21.424 65.9565 21.904C65.3485 22.384 64.6125 22.728 63.7485 22.936C62.9005 23.144 61.9485 23.248 60.8925 23.248ZM61.2045 14.728C61.6685 14.728 62.0445 14.632 62.3325 14.44C62.6365 14.248 62.8605 14 63.0045 13.696C63.1645 13.376 63.2605 13.04 63.2925 12.688L63.2685 11.152C63.2365 10.8 63.1405 10.472 62.9805 10.168C62.8365 9.864 62.6205 9.624 62.3325 9.448C62.0445 9.256 61.6685 9.16 61.2045 9.16C60.7885 9.16 60.4205 9.256 60.1005 9.448C59.7805 9.624 59.5325 9.92 59.3565 10.336C59.1805 10.736 59.0925 11.272 59.0925 11.944C59.0925 12.616 59.1805 13.16 59.3565 13.576C59.5325 13.976 59.7805 14.272 60.1005 14.464C60.4205 14.64 60.7885 14.728 61.2045 14.728ZM70.3429 19V5.944H74.7589L74.9269 8.08H75.1189C75.4389 7.28 75.9429 6.688 76.6309 6.304C77.3349 5.904 78.1189 5.704 78.9829 5.704C79.6229 5.704 80.2149 5.8 80.7589 5.992C81.3189 6.184 81.8069 6.488 82.2229 6.904C82.6389 7.32 82.9589 7.872 83.1829 8.56C83.4229 9.232 83.5429 10.048 83.5429 11.008V19H78.9589V12.016C78.9589 11.44 78.8949 10.96 78.7669 10.576C78.6389 10.176 78.4389 9.88 78.1669 9.688C77.8949 9.496 77.5269 9.4 77.0629 9.4C76.5829 9.4 76.1829 9.512 75.8629 9.736C75.5589 9.96 75.3269 10.24 75.1669 10.576C75.0069 10.912 74.9269 11.256 74.9269 11.608V19H70.3429ZM94.6176 19V5.68H89.7936V1.504H104.458V5.68H99.4896V19H94.6176ZM109.554 19.24C108.546 19.24 107.634 19.096 106.818 18.808C106.002 18.504 105.298 18.064 104.706 17.488C104.114 16.896 103.658 16.184 103.338 15.352C103.018 14.504 102.858 13.544 102.858 12.472C102.858 11.112 103.114 9.928 103.626 8.92C104.154 7.912 104.914 7.128 105.906 6.568C106.914 5.992 108.13 5.704 109.554 5.704C110.562 5.704 111.474 5.856 112.29 6.16C113.106 6.448 113.81 6.888 114.402 7.48C114.994 8.056 115.45 8.76 115.77 9.592C116.09 10.424 116.25 11.384 116.25 12.472C116.25 13.816 115.986 15 115.458 16.024C114.946 17.032 114.194 17.824 113.202 18.4C112.21 18.96 110.994 19.24 109.554 19.24ZM109.554 15.568C109.97 15.568 110.33 15.464 110.634 15.256C110.954 15.048 111.194 14.72 111.354 14.272C111.53 13.808 111.618 13.208 111.618 12.472C111.618 11.912 111.57 11.44 111.474 11.056C111.378 10.656 111.234 10.336 111.042 10.096C110.866 9.84 110.65 9.656 110.394 9.544C110.154 9.432 109.874 9.376 109.554 9.376C109.138 9.376 108.77 9.48 108.45 9.688C108.146 9.896 107.906 10.224 107.73 10.672C107.57 11.12 107.49 11.72 107.49 12.472C107.49 13.032 107.538 13.512 107.634 13.912C107.73 14.296 107.866 14.616 108.042 14.872C108.234 15.112 108.458 15.288 108.714 15.4C108.97 15.512 109.25 15.568 109.554 15.568ZM118.155 19V1.504H122.811V10.576L123.819 9.328L126.723 5.944H132.339L127.347 11.176L132.363 19H126.963L124.899 15.616L124.131 14.224L122.811 15.544V19H118.155ZM138.664 19.24C137.24 19.24 136.024 18.968 135.016 18.424C134.024 17.864 133.264 17.088 132.736 16.096C132.208 15.088 131.944 13.92 131.944 12.592C131.944 11.168 132.216 9.944 132.76 8.92C133.304 7.88 134.064 7.088 135.04 6.544C136.032 5.984 137.184 5.704 138.496 5.704C140.08 5.704 141.376 6.048 142.384 6.736C143.392 7.408 144.112 8.336 144.544 9.52C144.992 10.704 145.136 12.048 144.976 13.552H136.456C136.44 14.032 136.52 14.448 136.696 14.8C136.888 15.136 137.152 15.392 137.488 15.568C137.824 15.744 138.216 15.832 138.664 15.832C139.144 15.832 139.56 15.736 139.912 15.544C140.264 15.336 140.488 15.072 140.584 14.752H144.88C144.784 15.648 144.456 16.432 143.896 17.104C143.352 17.776 142.632 18.304 141.736 18.688C140.84 19.056 139.816 19.24 138.664 19.24ZM136.456 11.2L136.072 10.816H140.872L140.464 11.176C140.496 10.728 140.432 10.352 140.272 10.048C140.112 9.744 139.88 9.512 139.576 9.352C139.272 9.176 138.912 9.088 138.496 9.088C138.064 9.088 137.688 9.176 137.368 9.352C137.064 9.528 136.832 9.776 136.672 10.096C136.512 10.416 136.44 10.784 136.456 11.2ZM146.937 19V5.944H151.353L151.521 8.08H151.713C152.033 7.28 152.537 6.688 153.225 6.304C153.929 5.904 154.713 5.704 155.577 5.704C156.217 5.704 156.809 5.8 157.353 5.992C157.913 6.184 158.401 6.488 158.817 6.904C159.233 7.32 159.553 7.872 159.777 8.56C160.017 9.232 160.137 10.048 160.137 11.008V19H155.553V12.016C155.553 11.44 155.489 10.96 155.361 10.576C155.233 10.176 155.033 9.88 154.761 9.688C154.489 9.496 154.121 9.4 153.657 9.4C153.177 9.4 152.777 9.512 152.457 9.736C152.153 9.96 151.921 10.24 151.761 10.576C151.601 10.912 151.521 11.256 151.521 11.608V19H146.937ZM162.616 19V5.944H167.2V19H162.616ZM162.616 4.576V1.504H167.2V4.576H162.616ZM169.212 19V15.736L174.876 9.616H169.644V5.944H180.756V9.136L175.092 15.328H181.02V19H169.212ZM188.82 19.24C187.396 19.24 186.18 18.968 185.172 18.424C184.18 17.864 183.42 17.088 182.892 16.096C182.364 15.088 182.1 13.92 182.1 12.592C182.1 11.168 182.372 9.944 182.916 8.92C183.46 7.88 184.22 7.088 185.196 6.544C186.188 5.984 187.34 5.704 188.652 5.704C190.236 5.704 191.532 6.048 192.54 6.736C193.548 7.408 194.268 8.336 194.7 9.52C195.148 10.704 195.292 12.048 195.132 13.552H186.612C186.596 14.032 186.676 14.448 186.852 14.8C187.044 15.136 187.308 15.392 187.644 15.568C187.98 15.744 188.372 15.832 188.82 15.832C189.3 15.832 189.716 15.736 190.068 15.544C190.42 15.336 190.644 15.072 190.74 14.752H195.036C194.94 15.648 194.612 16.432 194.052 17.104C193.508 17.776 192.788 18.304 191.892 18.688C190.996 19.056 189.972 19.24 188.82 19.24ZM186.612 11.2L186.228 10.816H191.028L190.62 11.176C190.652 10.728 190.588 10.352 190.428 10.048C190.268 9.744 190.036 9.512 189.732 9.352C189.428 9.176 189.068 9.088 188.652 9.088C188.22 9.088 187.844 9.176 187.524 9.352C187.22 9.528 186.988 9.776 186.828 10.096C186.668 10.416 186.596 10.784 186.612 11.2ZM201.743 19.24C200.975 19.24 200.279 19.104 199.655 18.832C199.031 18.56 198.487 18.144 198.023 17.584C197.575 17.024 197.231 16.32 196.991 15.472C196.751 14.624 196.631 13.624 196.631 12.472C196.631 10.936 196.839 9.672 197.255 8.68C197.687 7.672 198.287 6.928 199.055 6.448C199.823 5.952 200.719 5.704 201.743 5.704C202.367 5.704 202.927 5.8 203.423 5.992C203.935 6.168 204.375 6.424 204.743 6.76C205.111 7.096 205.391 7.488 205.583 7.936H205.823V1.504H210.407V19H205.991L205.823 17.008H205.583C205.295 17.68 204.815 18.224 204.143 18.64C203.471 19.04 202.671 19.24 201.743 19.24ZM203.543 15.568C204.087 15.568 204.519 15.448 204.839 15.208C205.159 14.952 205.391 14.632 205.535 14.248C205.695 13.848 205.775 13.432 205.775 13V11.944C205.775 11.608 205.735 11.288 205.655 10.984C205.575 10.68 205.447 10.408 205.271 10.168C205.095 9.928 204.863 9.736 204.575 9.592C204.287 9.448 203.943 9.376 203.543 9.376C203.095 9.376 202.703 9.48 202.367 9.688C202.031 9.896 201.767 10.224 201.575 10.672C201.399 11.12 201.311 11.72 201.311 12.472C201.311 13.208 201.399 13.808 201.575 14.272C201.767 14.72 202.031 15.048 202.367 15.256C202.703 15.464 203.095 15.568 203.543 15.568Z" fill="#BC72EE"/>
</g>
<defs>
<clipPath id="clip0_29_2">
<rect width="212" height="24" fill="white"/>
</clipPath>
</defs>
</svg>
